%TF.GenerationSoftware,KiCad,Pcbnew,6.0.11-2627ca5db0~126~ubuntu20.04.1*%
%TF.CreationDate,2023-02-28T17:49:04+07:00*%
%TF.ProjectId,CY7C68013A-56-SSOP,43593743-3638-4303-9133-412d35362d53,rev?*%
%TF.SameCoordinates,Original*%
%TF.FileFunction,Copper,L2,Inr*%
%TF.FilePolarity,Positive*%
%FSLAX46Y46*%
G04 Gerber Fmt 4.6, Leading zero omitted, Abs format (unit mm)*
G04 Created by KiCad (PCBNEW 6.0.11-2627ca5db0~126~ubuntu20.04.1) date 2023-02-28 17:49:04*
%MOMM*%
%LPD*%
G01*
G04 APERTURE LIST*
%ADD10C,0.250000*%
%TA.AperFunction,NonConductor*%
%ADD11C,0.250000*%
%TD*%
%TA.AperFunction,ComponentPad*%
%ADD12C,0.800000*%
%TD*%
%TA.AperFunction,ComponentPad*%
%ADD13C,6.400000*%
%TD*%
%TA.AperFunction,ComponentPad*%
%ADD14R,1.700000X1.700000*%
%TD*%
%TA.AperFunction,ComponentPad*%
%ADD15O,1.700000X1.700000*%
%TD*%
%TA.AperFunction,ComponentPad*%
%ADD16O,1.000000X2.100000*%
%TD*%
%TA.AperFunction,ComponentPad*%
%ADD17O,1.000000X1.800000*%
%TD*%
%TA.AperFunction,ViaPad*%
%ADD18C,0.800000*%
%TD*%
G04 APERTURE END LIST*
D10*
D11*
X125359485Y-80361819D02*
X125407104Y-80314200D01*
X125502342Y-80266580D01*
X125740438Y-80266580D01*
X125835676Y-80314200D01*
X125883295Y-80361819D01*
X125930914Y-80457057D01*
X125930914Y-80552295D01*
X125883295Y-80695152D01*
X125311866Y-81266580D01*
X125930914Y-81266580D01*
D12*
%TO.N,GND*%
%TO.C,H2*%
X119171800Y-85889324D03*
X117474744Y-85186380D03*
X121571800Y-83489324D03*
X116771800Y-83489324D03*
X120868856Y-81792268D03*
D13*
X119171800Y-83489324D03*
D12*
X117474744Y-81792268D03*
X119171800Y-81089324D03*
X120868856Y-85186380D03*
%TD*%
D13*
%TO.N,GND*%
%TO.C,H4*%
X119171800Y-110885200D03*
D12*
X117474744Y-109188144D03*
X119171800Y-113285200D03*
X120868856Y-112582256D03*
X117474744Y-112582256D03*
X119171800Y-108485200D03*
X116771800Y-110885200D03*
X121571800Y-110885200D03*
X120868856Y-109188144D03*
%TD*%
D14*
%TO.N,Net-(J1-Pad1)*%
%TO.C,J1*%
X116535200Y-91816000D03*
D15*
%TO.N,+3V3*%
X116535200Y-94356000D03*
%TD*%
D12*
%TO.N,GND*%
%TO.C,H3*%
X159951800Y-83489324D03*
X160654744Y-85186380D03*
X164751800Y-83489324D03*
X162351800Y-85889324D03*
X164048856Y-81792268D03*
D13*
X162351800Y-83489324D03*
D12*
X160654744Y-81792268D03*
X162351800Y-81089324D03*
X164048856Y-85186380D03*
%TD*%
D14*
%TO.N,+3V3*%
%TO.C,J2*%
X116535200Y-100452000D03*
D15*
%TO.N,Net-(J2-Pad2)*%
X116535200Y-102992000D03*
%TD*%
D14*
%TO.N,VBUS*%
%TO.C,J4*%
X164891800Y-118505200D03*
D15*
%TO.N,GND*%
X164891800Y-121045200D03*
%TO.N,+3V3*%
X162351800Y-118505200D03*
%TO.N,/PD5*%
X162351800Y-121045200D03*
%TO.N,/PD6*%
X159811800Y-118505200D03*
%TO.N,/PD7*%
X159811800Y-121045200D03*
%TO.N,/CLKOUT*%
X157271800Y-118505200D03*
%TO.N,/RDY0*%
X157271800Y-121045200D03*
%TO.N,/RDY1*%
X154731800Y-118505200D03*
%TO.N,/PD4*%
X154731800Y-121045200D03*
%TO.N,/PD3*%
X152191800Y-118505200D03*
%TO.N,/PD2*%
X152191800Y-121045200D03*
%TO.N,/PD1*%
X149651800Y-118505200D03*
%TO.N,/PD0*%
X149651800Y-121045200D03*
%TO.N,/RST*%
X147111800Y-118505200D03*
%TO.N,/PA7*%
X147111800Y-121045200D03*
%TO.N,/PA6*%
X144571800Y-118505200D03*
%TO.N,/PA5*%
X144571800Y-121045200D03*
%TO.N,/PA4*%
X142031800Y-118505200D03*
%TO.N,/PA3*%
X142031800Y-121045200D03*
%TO.N,/PA2*%
X139491800Y-118505200D03*
%TO.N,/PA1*%
X139491800Y-121045200D03*
%TO.N,/PA0*%
X136951800Y-118505200D03*
%TO.N,/CTL2*%
X136951800Y-121045200D03*
%TO.N,/CTL1*%
X134411800Y-118505200D03*
%TO.N,/CTL0*%
X134411800Y-121045200D03*
%TO.N,/PB7*%
X131871800Y-118505200D03*
%TO.N,/PB6*%
X131871800Y-121045200D03*
%TO.N,/PB5*%
X129331800Y-118505200D03*
%TO.N,/PB4*%
X129331800Y-121045200D03*
%TO.N,/IFCLK*%
X126791800Y-118505200D03*
%TO.N,/PB0*%
X126791800Y-121045200D03*
%TO.N,/PB1*%
X124251800Y-118505200D03*
%TO.N,/PB2*%
X124251800Y-121045200D03*
%TO.N,/PB3*%
X121711800Y-118505200D03*
%TO.N,unconnected-(J4-Pad36)*%
X121711800Y-121045200D03*
%TO.N,+3V3*%
X119171800Y-118505200D03*
%TO.N,GND*%
X119171800Y-121045200D03*
%TO.N,+3V3*%
X116631800Y-118505200D03*
%TO.N,GND*%
X116631800Y-121045200D03*
%TD*%
D12*
%TO.N,GND*%
%TO.C,H1*%
X162351800Y-108485200D03*
D13*
X162351800Y-110885200D03*
D12*
X162351800Y-113285200D03*
X160654744Y-109188144D03*
X160654744Y-112582256D03*
X159951800Y-110885200D03*
X164048856Y-112582256D03*
X164751800Y-110885200D03*
X164048856Y-109188144D03*
%TD*%
D16*
%TO.N,Earth_Protective*%
%TO.C,J5*%
X144451800Y-85579200D03*
X135811800Y-85579200D03*
D17*
X135811800Y-81379200D03*
X144451800Y-81379200D03*
%TD*%
D18*
%TO.N,GND*%
X143570200Y-89514200D03*
X149820200Y-91114200D03*
%TO.N,VBUS*%
X143620200Y-88389200D03*
X144574833Y-88408211D03*
X158520200Y-91714200D03*
X158520200Y-90689200D03*
X134920200Y-88714200D03*
X135820200Y-88714200D03*
%TO.N,GND*%
X141095200Y-90914200D03*
X151180800Y-90424000D03*
X139170200Y-90914200D03*
X144470200Y-87414200D03*
X137370200Y-81764200D03*
X155321000Y-94640400D03*
X133170200Y-85564200D03*
X126445200Y-103894200D03*
X141095200Y-89914200D03*
X138531600Y-107924600D03*
X133096000Y-82651600D03*
X139070200Y-81214200D03*
X153949400Y-94640400D03*
X135898903Y-107492800D03*
X143611600Y-103352600D03*
X139170200Y-87914200D03*
X156921200Y-95605600D03*
X140570200Y-81764200D03*
X147769137Y-94057925D03*
X139170200Y-89914200D03*
X160985200Y-96520000D03*
X135820200Y-87439200D03*
X134920200Y-87439200D03*
X141095200Y-87914200D03*
X145395200Y-87414200D03*
X145520200Y-108189200D03*
X136728800Y-94056200D03*
X142470200Y-82364200D03*
X139170200Y-88914200D03*
X145059400Y-94049498D03*
X148295200Y-83539200D03*
X142570200Y-92514200D03*
X141095200Y-88914200D03*
X134162800Y-91541600D03*
X149170200Y-81914200D03*
X152323800Y-95605600D03*
X137245200Y-92489200D03*
X124739400Y-88620600D03*
%TO.N,+3V3*%
X156135200Y-81356200D03*
X131038600Y-82626200D03*
X146151600Y-94081600D03*
X134899400Y-107492800D03*
X156135200Y-82356200D03*
X161112200Y-94818200D03*
X153135200Y-81356200D03*
X122035200Y-103494200D03*
X141071600Y-92125800D03*
X133426200Y-93065600D03*
X154635200Y-82356200D03*
X138709400Y-92354400D03*
X138049000Y-103449498D03*
X154635200Y-81356200D03*
X153135200Y-82356200D03*
X147345200Y-108214200D03*
%TO.N,/RST*%
X162941000Y-101041200D03*
X149580600Y-102514400D03*
%TO.N,/D-*%
X142970200Y-83303033D03*
X138320200Y-83314200D03*
%TO.N,/D+*%
X141970200Y-83303033D03*
X137320200Y-83314200D03*
%TO.N,/PA0*%
X139166600Y-102870000D03*
X130429000Y-99923600D03*
%TO.N,/PA1*%
X130429000Y-97078800D03*
X140309600Y-102870000D03*
%TD*%
%TA.AperFunction,Conductor*%
%TO.N,GND*%
G36*
X124731631Y-79563902D02*
G01*
X124778124Y-79617558D01*
X124789510Y-79669900D01*
X124789510Y-82061200D01*
X126500891Y-82061200D01*
X126500891Y-81823253D01*
X135057300Y-81823253D01*
X135072538Y-81953954D01*
X135075034Y-81960831D01*
X135075035Y-81960834D01*
X135118617Y-82080900D01*
X135132568Y-82119334D01*
X135229034Y-82266468D01*
X135356760Y-82387464D01*
X135508896Y-82475832D01*
X135677280Y-82526830D01*
X135852880Y-82537724D01*
X135860096Y-82536484D01*
X135860098Y-82536484D01*
X136019062Y-82509169D01*
X136019064Y-82509168D01*
X136026277Y-82507929D01*
X136188168Y-82439044D01*
X136329871Y-82334763D01*
X136443782Y-82200680D01*
X136466001Y-82157166D01*
X136520466Y-82050505D01*
X136520468Y-82050500D01*
X136523793Y-82043988D01*
X136531943Y-82010684D01*
X136547604Y-81946682D01*
X136565611Y-81873092D01*
X136566300Y-81861986D01*
X136566300Y-81823253D01*
X143697300Y-81823253D01*
X143712538Y-81953954D01*
X143715034Y-81960831D01*
X143715035Y-81960834D01*
X143758617Y-82080900D01*
X143772568Y-82119334D01*
X143869034Y-82266468D01*
X143996760Y-82387464D01*
X144148896Y-82475832D01*
X144317280Y-82526830D01*
X144492880Y-82537724D01*
X144500096Y-82536484D01*
X144500098Y-82536484D01*
X144659062Y-82509169D01*
X144659064Y-82509168D01*
X144666277Y-82507929D01*
X144828168Y-82439044D01*
X144950123Y-82349296D01*
X152475929Y-82349296D01*
X152479587Y-82382428D01*
X152489494Y-82472158D01*
X152493313Y-82506753D01*
X152495923Y-82513884D01*
X152495923Y-82513886D01*
X152538537Y-82630334D01*
X152547753Y-82655519D01*
X152551989Y-82661822D01*
X152551989Y-82661823D01*
X152629968Y-82777867D01*
X152636108Y-82787005D01*
X152641727Y-82792118D01*
X152641728Y-82792119D01*
X152747660Y-82888509D01*
X152753276Y-82893619D01*
X152892493Y-82969208D01*
X153045722Y-83009407D01*
X153129677Y-83010726D01*
X153196519Y-83011776D01*
X153196522Y-83011776D01*
X153204116Y-83011895D01*
X153358532Y-82976529D01*
X153447421Y-82931823D01*
X153493272Y-82908763D01*
X153493275Y-82908761D01*
X153500055Y-82905351D01*
X153505826Y-82900422D01*
X153505829Y-82900420D01*
X153614736Y-82807404D01*
X153614736Y-82807403D01*
X153620514Y-82802469D01*
X153712955Y-82673824D01*
X153715789Y-82666775D01*
X153715792Y-82666769D01*
X153767804Y-82537384D01*
X153769289Y-82533689D01*
X153813255Y-82477944D01*
X153880380Y-82454819D01*
X153949352Y-82471656D01*
X153998271Y-82523108D01*
X154004522Y-82537384D01*
X154038537Y-82630334D01*
X154047753Y-82655519D01*
X154051989Y-82661822D01*
X154051989Y-82661823D01*
X154129968Y-82777867D01*
X154136108Y-82787005D01*
X154141727Y-82792118D01*
X154141728Y-82792119D01*
X154247660Y-82888509D01*
X154253276Y-82893619D01*
X154392493Y-82969208D01*
X154545722Y-83009407D01*
X154629677Y-83010726D01*
X154696519Y-83011776D01*
X154696522Y-83011776D01*
X154704116Y-83011895D01*
X154858532Y-82976529D01*
X154947421Y-82931823D01*
X154993272Y-82908763D01*
X154993275Y-82908761D01*
X155000055Y-82905351D01*
X155005826Y-82900422D01*
X155005829Y-82900420D01*
X155114736Y-82807404D01*
X155114736Y-82807403D01*
X155120514Y-82802469D01*
X155212955Y-82673824D01*
X155215789Y-82666775D01*
X155215792Y-82666769D01*
X155267804Y-82537384D01*
X155269289Y-82533689D01*
X155313255Y-82477944D01*
X155380380Y-82454819D01*
X155449352Y-82471656D01*
X155498271Y-82523108D01*
X155504522Y-82537384D01*
X155538537Y-82630334D01*
X155547753Y-82655519D01*
X155551989Y-82661822D01*
X155551989Y-82661823D01*
X155629968Y-82777867D01*
X155636108Y-82787005D01*
X155641727Y-82792118D01*
X155641728Y-82792119D01*
X155747660Y-82888509D01*
X155753276Y-82893619D01*
X155892493Y-82969208D01*
X156045722Y-83009407D01*
X156129677Y-83010726D01*
X156196519Y-83011776D01*
X156196522Y-83011776D01*
X156204116Y-83011895D01*
X156358532Y-82976529D01*
X156447421Y-82931823D01*
X156493272Y-82908763D01*
X156493275Y-82908761D01*
X156500055Y-82905351D01*
X156505826Y-82900422D01*
X156505829Y-82900420D01*
X156614736Y-82807404D01*
X156614736Y-82807403D01*
X156620514Y-82802469D01*
X156712955Y-82673824D01*
X156772042Y-82526841D01*
X156794362Y-82370007D01*
X156794507Y-82356200D01*
X156775476Y-82198933D01*
X156719480Y-82050746D01*
X156660118Y-81964373D01*
X156634039Y-81926428D01*
X156611939Y-81858959D01*
X156629825Y-81790252D01*
X156635549Y-81781545D01*
X156712955Y-81673824D01*
X156772042Y-81526841D01*
X156788341Y-81412314D01*
X156793781Y-81374091D01*
X156793781Y-81374088D01*
X156794362Y-81370007D01*
X156794507Y-81356200D01*
X156775476Y-81198933D01*
X156719480Y-81050746D01*
X156642549Y-80938810D01*
X156634055Y-80926451D01*
X156634054Y-80926449D01*
X156629753Y-80920192D01*
X156511475Y-80814811D01*
X156504089Y-80810900D01*
X156378188Y-80744239D01*
X156378189Y-80744239D01*
X156371474Y-80740684D01*
X156217833Y-80702092D01*
X156210234Y-80702052D01*
X156210233Y-80702052D01*
X156144381Y-80701707D01*
X156059421Y-80701262D01*
X156052041Y-80703034D01*
X156052039Y-80703034D01*
X155912763Y-80736471D01*
X155912760Y-80736472D01*
X155905384Y-80738243D01*
X155764614Y-80810900D01*
X155645239Y-80915038D01*
X155554150Y-81044644D01*
X155551390Y-81051724D01*
X155551388Y-81051727D01*
X155502260Y-81177735D01*
X155458880Y-81233937D01*
X155392001Y-81257764D01*
X155322857Y-81241651D01*
X155273401Y-81190713D01*
X155267001Y-81176505D01*
X155219480Y-81050746D01*
X155142549Y-80938810D01*
X155134055Y-80926451D01*
X155134054Y-80926449D01*
X155129753Y-80920192D01*
X155011475Y-80814811D01*
X155004089Y-80810900D01*
X154878188Y-80744239D01*
X154878189Y-80744239D01*
X154871474Y-80740684D01*
X154717833Y-80702092D01*
X154710234Y-80702052D01*
X154710233Y-80702052D01*
X154644381Y-80701707D01*
X154559421Y-80701262D01*
X154552041Y-80703034D01*
X154552039Y-80703034D01*
X154412763Y-80736471D01*
X154412760Y-80736472D01*
X154405384Y-80738243D01*
X154264614Y-80810900D01*
X154145239Y-80915038D01*
X154054150Y-81044644D01*
X154051390Y-81051724D01*
X154051388Y-81051727D01*
X154002260Y-81177735D01*
X153958880Y-81233937D01*
X153892001Y-81257764D01*
X153822857Y-81241651D01*
X153773401Y-81190713D01*
X153767001Y-81176505D01*
X153719480Y-81050746D01*
X153642549Y-80938810D01*
X153634055Y-80926451D01*
X153634054Y-80926449D01*
X153629753Y-80920192D01*
X153511475Y-80814811D01*
X153504089Y-80810900D01*
X153378188Y-80744239D01*
X153378189Y-80744239D01*
X153371474Y-80740684D01*
X153217833Y-80702092D01*
X153210234Y-80702052D01*
X153210233Y-80702052D01*
X153144381Y-80701707D01*
X153059421Y-80701262D01*
X153052041Y-80703034D01*
X153052039Y-80703034D01*
X152912763Y-80736471D01*
X152912760Y-80736472D01*
X152905384Y-80738243D01*
X152764614Y-80810900D01*
X152645239Y-80915038D01*
X152554150Y-81044644D01*
X152549002Y-81057849D01*
X152502740Y-81176505D01*
X152496606Y-81192237D01*
X152495614Y-81199770D01*
X152495614Y-81199771D01*
X152490101Y-81241651D01*
X152475929Y-81349296D01*
X152493313Y-81506753D01*
X152495923Y-81513884D01*
X152495923Y-81513886D01*
X152529267Y-81605002D01*
X152547753Y-81655519D01*
X152551989Y-81661822D01*
X152551989Y-81661823D01*
X152636108Y-81787005D01*
X152633309Y-81788886D01*
X152656435Y-81839728D01*
X152646226Y-81909987D01*
X152634780Y-81929920D01*
X152554150Y-82044644D01*
X152527712Y-82112455D01*
X152499373Y-82185141D01*
X152496606Y-82192237D01*
X152495614Y-82199770D01*
X152495614Y-82199771D01*
X152477271Y-82339104D01*
X152475929Y-82349296D01*
X144950123Y-82349296D01*
X144969871Y-82334763D01*
X145083782Y-82200680D01*
X145106001Y-82157166D01*
X145160466Y-82050505D01*
X145160468Y-82050500D01*
X145163793Y-82043988D01*
X145171943Y-82010684D01*
X145187604Y-81946682D01*
X145205611Y-81873092D01*
X145206300Y-81861986D01*
X145206300Y-80935147D01*
X145192396Y-80815889D01*
X145191910Y-80811718D01*
X145191910Y-80811716D01*
X145191062Y-80804446D01*
X145167032Y-80738243D01*
X145133529Y-80645945D01*
X145131032Y-80639066D01*
X145034566Y-80491932D01*
X144906840Y-80370936D01*
X144754704Y-80282568D01*
X144586320Y-80231570D01*
X144410720Y-80220676D01*
X144403504Y-80221916D01*
X144403502Y-80221916D01*
X144244538Y-80249231D01*
X144244536Y-80249232D01*
X144237323Y-80250471D01*
X144075432Y-80319356D01*
X143933729Y-80423637D01*
X143819818Y-80557720D01*
X143809595Y-80577741D01*
X143743134Y-80707895D01*
X143743132Y-80707900D01*
X143739807Y-80714412D01*
X143738068Y-80721518D01*
X143738067Y-80721521D01*
X143732508Y-80744239D01*
X143697989Y-80885308D01*
X143697300Y-80896414D01*
X143697300Y-81823253D01*
X136566300Y-81823253D01*
X136566300Y-80935147D01*
X136552396Y-80815889D01*
X136551910Y-80811718D01*
X136551910Y-80811716D01*
X136551062Y-80804446D01*
X136527032Y-80738243D01*
X136493529Y-80645945D01*
X136491032Y-80639066D01*
X136394566Y-80491932D01*
X136266840Y-80370936D01*
X136114704Y-80282568D01*
X135946320Y-80231570D01*
X135770720Y-80220676D01*
X135763504Y-80221916D01*
X135763502Y-80221916D01*
X135604538Y-80249231D01*
X135604536Y-80249232D01*
X135597323Y-80250471D01*
X135435432Y-80319356D01*
X135293729Y-80423637D01*
X135179818Y-80557720D01*
X135169595Y-80577741D01*
X135103134Y-80707895D01*
X135103132Y-80707900D01*
X135099807Y-80714412D01*
X135098068Y-80721518D01*
X135098067Y-80721521D01*
X135092508Y-80744239D01*
X135057989Y-80885308D01*
X135057300Y-80896414D01*
X135057300Y-81823253D01*
X126500891Y-81823253D01*
X126500891Y-79669900D01*
X126520893Y-79601779D01*
X126574549Y-79555286D01*
X126626891Y-79543900D01*
X162314324Y-79543900D01*
X162338903Y-79546321D01*
X162351800Y-79548886D01*
X162363970Y-79546465D01*
X162375311Y-79546465D01*
X162387478Y-79545549D01*
X162710023Y-79560462D01*
X162721606Y-79561536D01*
X162834264Y-79577251D01*
X163071002Y-79610274D01*
X163082442Y-79612413D01*
X163265444Y-79655454D01*
X163425853Y-79693182D01*
X163437029Y-79696362D01*
X163771534Y-79808478D01*
X163782359Y-79812671D01*
X164105048Y-79955153D01*
X164105098Y-79955175D01*
X164115515Y-79960363D01*
X164423697Y-80132020D01*
X164433592Y-80138146D01*
X164724636Y-80337516D01*
X164733924Y-80344530D01*
X165005326Y-80569900D01*
X165013927Y-80577741D01*
X165082130Y-80645945D01*
X165263379Y-80827195D01*
X165271219Y-80835796D01*
X165496579Y-81107189D01*
X165503593Y-81116476D01*
X165702960Y-81407519D01*
X165709087Y-81417414D01*
X165880752Y-81725613D01*
X165885934Y-81736020D01*
X166025331Y-82051727D01*
X166028431Y-82058748D01*
X166032627Y-82069578D01*
X166144741Y-82404084D01*
X166147925Y-82415278D01*
X166228691Y-82758678D01*
X166230829Y-82770114D01*
X166279567Y-83119511D01*
X166279567Y-83119514D01*
X166280641Y-83131099D01*
X166286055Y-83248224D01*
X166295555Y-83453746D01*
X166294659Y-83465660D01*
X166294659Y-83477151D01*
X166292238Y-83489323D01*
X166294659Y-83501495D01*
X166294803Y-83502219D01*
X166297224Y-83526799D01*
X166297224Y-120972724D01*
X166294803Y-120997303D01*
X166292238Y-121010200D01*
X166294659Y-121022370D01*
X166294659Y-121033710D01*
X166295575Y-121045877D01*
X166287584Y-121218722D01*
X166280663Y-121368420D01*
X166279589Y-121380009D01*
X166230850Y-121729406D01*
X166228711Y-121740846D01*
X166153555Y-122060392D01*
X166147944Y-122084247D01*
X166144762Y-122095432D01*
X166125496Y-122152912D01*
X166032649Y-122429928D01*
X166028445Y-122440780D01*
X165885950Y-122763502D01*
X165880762Y-122773920D01*
X165709105Y-123082103D01*
X165702979Y-123091998D01*
X165503604Y-123383049D01*
X165496590Y-123392336D01*
X165271225Y-123663734D01*
X165263384Y-123672335D01*
X165013935Y-123921784D01*
X165005334Y-123929625D01*
X164733936Y-124154990D01*
X164724649Y-124162004D01*
X164433598Y-124361379D01*
X164423703Y-124367505D01*
X164115520Y-124539162D01*
X164105102Y-124544350D01*
X163782380Y-124686845D01*
X163771528Y-124691049D01*
X163604284Y-124747104D01*
X163437032Y-124803162D01*
X163425856Y-124806342D01*
X163148735Y-124871520D01*
X163082446Y-124887111D01*
X163071006Y-124889250D01*
X162721609Y-124937989D01*
X162710020Y-124939063D01*
X162387477Y-124953975D01*
X162375310Y-124953059D01*
X162363970Y-124953059D01*
X162351800Y-124950638D01*
X162338903Y-124953203D01*
X162314324Y-124955624D01*
X119209276Y-124955624D01*
X119184697Y-124953203D01*
X119171800Y-124950638D01*
X119159630Y-124953059D01*
X119148290Y-124953059D01*
X119136123Y-124953975D01*
X118813580Y-124939063D01*
X118801991Y-124937989D01*
X118452594Y-124889250D01*
X118441154Y-124887111D01*
X118374865Y-124871520D01*
X118097744Y-124806342D01*
X118086568Y-124803162D01*
X117919316Y-124747104D01*
X117752072Y-124691049D01*
X117741220Y-124686845D01*
X117418498Y-124544350D01*
X117408080Y-124539162D01*
X117099897Y-124367505D01*
X117090002Y-124361379D01*
X116798951Y-124162004D01*
X116789664Y-124154990D01*
X116518266Y-123929625D01*
X116509665Y-123921784D01*
X116260216Y-123672335D01*
X116252375Y-123663734D01*
X116027010Y-123392336D01*
X116019996Y-123383049D01*
X115820621Y-123091998D01*
X115814495Y-123082103D01*
X115642838Y-122773920D01*
X115637650Y-122763502D01*
X115495155Y-122440780D01*
X115490951Y-122429928D01*
X115398104Y-122152912D01*
X115378838Y-122095432D01*
X115375656Y-122084247D01*
X115370046Y-122060392D01*
X115294889Y-121740846D01*
X115292750Y-121729406D01*
X115244011Y-121380009D01*
X115242937Y-121368420D01*
X115236016Y-121218722D01*
X115228025Y-121045877D01*
X115228941Y-121033710D01*
X115228941Y-121022370D01*
X115230176Y-121016164D01*
X120602948Y-121016164D01*
X120616224Y-121218722D01*
X120617645Y-121224318D01*
X120617646Y-121224323D01*
X120657186Y-121380009D01*
X120666192Y-121415469D01*
X120668609Y-121420712D01*
X120705810Y-121501408D01*
X120751177Y-121599816D01*
X120754510Y-121604532D01*
X120842762Y-121729406D01*
X120868333Y-121765589D01*
X121013738Y-121907235D01*
X121182520Y-122020012D01*
X121187823Y-122022290D01*
X121187826Y-122022292D01*
X121358086Y-122095441D01*
X121369028Y-122100142D01*
X121442044Y-122116664D01*
X121561379Y-122143667D01*
X121561384Y-122143668D01*
X121567016Y-122144942D01*
X121572787Y-122145169D01*
X121572789Y-122145169D01*
X121632556Y-122147517D01*
X121769853Y-122152912D01*
X121870299Y-122138348D01*
X121965031Y-122124613D01*
X121965036Y-122124612D01*
X121970745Y-122123784D01*
X121976209Y-122121929D01*
X121976214Y-122121928D01*
X122157493Y-122060392D01*
X122157498Y-122060390D01*
X122162965Y-122058534D01*
X122340076Y-121959347D01*
X122402734Y-121907235D01*
X122491713Y-121833231D01*
X122496145Y-121829545D01*
X122569916Y-121740846D01*
X122622253Y-121677918D01*
X122622255Y-121677915D01*
X122625947Y-121673476D01*
X122725134Y-121496365D01*
X122726990Y-121490898D01*
X122726992Y-121490893D01*
X122788528Y-121309614D01*
X122788529Y-121309609D01*
X122790384Y-121304145D01*
X122791212Y-121298436D01*
X122791213Y-121298431D01*
X122818979Y-121106927D01*
X122819512Y-121103253D01*
X122821032Y-121045200D01*
X122818364Y-121016164D01*
X123142948Y-121016164D01*
X123156224Y-121218722D01*
X123157645Y-121224318D01*
X123157646Y-121224323D01*
X123197186Y-121380009D01*
X123206192Y-121415469D01*
X123208609Y-121420712D01*
X123245810Y-121501408D01*
X123291177Y-121599816D01*
X123294510Y-121604532D01*
X123382762Y-121729406D01*
X123408333Y-121765589D01*
X123553738Y-121907235D01*
X123722520Y-122020012D01*
X123727823Y-122022290D01*
X123727826Y-122022292D01*
X123898086Y-122095441D01*
X123909028Y-122100142D01*
X123982044Y-122116664D01*
X124101379Y-122143667D01*
X124101384Y-122143668D01*
X124107016Y-122144942D01*
X124112787Y-122145169D01*
X124112789Y-122145169D01*
X124172556Y-122147517D01*
X124309853Y-122152912D01*
X124410299Y-122138348D01*
X124505031Y-122124613D01*
X124505036Y-122124612D01*
X124510745Y-122123784D01*
X124516209Y-122121929D01*
X124516214Y-122121928D01*
X124697493Y-122060392D01*
X124697498Y-122060390D01*
X124702965Y-122058534D01*
X124880076Y-121959347D01*
X124942734Y-121907235D01*
X125031713Y-121833231D01*
X125036145Y-121829545D01*
X125109916Y-121740846D01*
X125162253Y-121677918D01*
X125162255Y-121677915D01*
X125165947Y-121673476D01*
X125265134Y-121496365D01*
X125266990Y-121490898D01*
X125266992Y-121490893D01*
X125328528Y-121309614D01*
X125328529Y-121309609D01*
X125330384Y-121304145D01*
X125331212Y-121298436D01*
X125331213Y-121298431D01*
X125358979Y-121106927D01*
X125359512Y-121103253D01*
X125361032Y-121045200D01*
X125358364Y-121016164D01*
X125682948Y-121016164D01*
X125696224Y-121218722D01*
X125697645Y-121224318D01*
X125697646Y-121224323D01*
X125737186Y-121380009D01*
X125746192Y-121415469D01*
X125748609Y-121420712D01*
X125785810Y-121501408D01*
X125831177Y-121599816D01*
X125834510Y-121604532D01*
X125922762Y-121729406D01*
X125948333Y-121765589D01*
X126093738Y-121907235D01*
X126262520Y-122020012D01*
X126267823Y-122022290D01*
X126267826Y-122022292D01*
X126438086Y-122095441D01*
X126449028Y-122100142D01*
X126522044Y-122116664D01*
X126641379Y-122143667D01*
X126641384Y-122143668D01*
X126647016Y-122144942D01*
X126652787Y-122145169D01*
X126652789Y-122145169D01*
X126712556Y-122147517D01*
X126849853Y-122152912D01*
X126950299Y-122138348D01*
X127045031Y-122124613D01*
X127045036Y-122124612D01*
X127050745Y-122123784D01*
X127056209Y-122121929D01*
X127056214Y-122121928D01*
X127237493Y-122060392D01*
X127237498Y-122060390D01*
X127242965Y-122058534D01*
X127420076Y-121959347D01*
X127482734Y-121907235D01*
X127571713Y-121833231D01*
X127576145Y-121829545D01*
X127649916Y-121740846D01*
X127702253Y-121677918D01*
X127702255Y-121677915D01*
X127705947Y-121673476D01*
X127805134Y-121496365D01*
X127806990Y-121490898D01*
X127806992Y-121490893D01*
X127868528Y-121309614D01*
X127868529Y-121309609D01*
X127870384Y-121304145D01*
X127871212Y-121298436D01*
X127871213Y-121298431D01*
X127898979Y-121106927D01*
X127899512Y-121103253D01*
X127901032Y-121045200D01*
X127898364Y-121016164D01*
X128222948Y-121016164D01*
X128236224Y-121218722D01*
X128237645Y-121224318D01*
X128237646Y-121224323D01*
X128277186Y-121380009D01*
X128286192Y-121415469D01*
X128288609Y-121420712D01*
X128325810Y-121501408D01*
X128371177Y-121599816D01*
X128374510Y-121604532D01*
X128462762Y-121729406D01*
X128488333Y-121765589D01*
X128633738Y-121907235D01*
X128802520Y-122020012D01*
X128807823Y-122022290D01*
X128807826Y-122022292D01*
X128978086Y-122095441D01*
X128989028Y-122100142D01*
X129062044Y-122116664D01*
X129181379Y-122143667D01*
X129181384Y-122143668D01*
X129187016Y-122144942D01*
X129192787Y-122145169D01*
X129192789Y-122145169D01*
X129252556Y-122147517D01*
X129389853Y-122152912D01*
X129490299Y-122138348D01*
X129585031Y-122124613D01*
X129585036Y-122124612D01*
X129590745Y-122123784D01*
X129596209Y-122121929D01*
X129596214Y-122121928D01*
X129777493Y-122060392D01*
X129777498Y-122060390D01*
X129782965Y-122058534D01*
X129960076Y-121959347D01*
X130022734Y-121907235D01*
X130111713Y-121833231D01*
X130116145Y-121829545D01*
X130189916Y-121740846D01*
X130242253Y-121677918D01*
X130242255Y-121677915D01*
X130245947Y-121673476D01*
X130345134Y-121496365D01*
X130346990Y-121490898D01*
X130346992Y-121490893D01*
X130408528Y-121309614D01*
X130408529Y-121309609D01*
X130410384Y-121304145D01*
X130411212Y-121298436D01*
X130411213Y-121298431D01*
X130438979Y-121106927D01*
X130439512Y-121103253D01*
X130441032Y-121045200D01*
X130438364Y-121016164D01*
X130762948Y-121016164D01*
X130776224Y-121218722D01*
X130777645Y-121224318D01*
X130777646Y-121224323D01*
X130817186Y-121380009D01*
X130826192Y-121415469D01*
X130828609Y-121420712D01*
X130865810Y-121501408D01*
X130911177Y-121599816D01*
X130914510Y-121604532D01*
X131002762Y-121729406D01*
X131028333Y-121765589D01*
X131173738Y-121907235D01*
X131342520Y-122020012D01*
X131347823Y-122022290D01*
X131347826Y-122022292D01*
X131518086Y-122095441D01*
X131529028Y-122100142D01*
X131602044Y-122116664D01*
X131721379Y-122143667D01*
X131721384Y-122143668D01*
X131727016Y-122144942D01*
X131732787Y-122145169D01*
X131732789Y-122145169D01*
X131792556Y-122147517D01*
X131929853Y-122152912D01*
X132030299Y-122138348D01*
X132125031Y-122124613D01*
X132125036Y-122124612D01*
X132130745Y-122123784D01*
X132136209Y-122121929D01*
X132136214Y-122121928D01*
X132317493Y-122060392D01*
X132317498Y-122060390D01*
X132322965Y-122058534D01*
X132500076Y-121959347D01*
X132562734Y-121907235D01*
X132651713Y-121833231D01*
X132656145Y-121829545D01*
X132729916Y-121740846D01*
X132782253Y-121677918D01*
X132782255Y-121677915D01*
X132785947Y-121673476D01*
X132885134Y-121496365D01*
X132886990Y-121490898D01*
X132886992Y-121490893D01*
X132948528Y-121309614D01*
X132948529Y-121309609D01*
X132950384Y-121304145D01*
X132951212Y-121298436D01*
X132951213Y-121298431D01*
X132978979Y-121106927D01*
X132979512Y-121103253D01*
X132981032Y-121045200D01*
X132978364Y-121016164D01*
X133302948Y-121016164D01*
X133316224Y-121218722D01*
X133317645Y-121224318D01*
X133317646Y-121224323D01*
X133357186Y-121380009D01*
X133366192Y-121415469D01*
X133368609Y-121420712D01*
X133405810Y-121501408D01*
X133451177Y-121599816D01*
X133454510Y-121604532D01*
X133542762Y-121729406D01*
X133568333Y-121765589D01*
X133713738Y-121907235D01*
X133882520Y-122020012D01*
X133887823Y-122022290D01*
X133887826Y-122022292D01*
X134058086Y-122095441D01*
X134069028Y-122100142D01*
X134142044Y-122116664D01*
X134261379Y-122143667D01*
X134261384Y-122143668D01*
X134267016Y-122144942D01*
X134272787Y-122145169D01*
X134272789Y-122145169D01*
X134332556Y-122147517D01*
X134469853Y-122152912D01*
X134570299Y-122138348D01*
X134665031Y-122124613D01*
X134665036Y-122124612D01*
X134670745Y-122123784D01*
X134676209Y-122121929D01*
X134676214Y-122121928D01*
X134857493Y-122060392D01*
X134857498Y-122060390D01*
X134862965Y-122058534D01*
X135040076Y-121959347D01*
X135102734Y-121907235D01*
X135191713Y-121833231D01*
X135196145Y-121829545D01*
X135269916Y-121740846D01*
X135322253Y-121677918D01*
X135322255Y-121677915D01*
X135325947Y-121673476D01*
X135425134Y-121496365D01*
X135426990Y-121490898D01*
X135426992Y-121490893D01*
X135488528Y-121309614D01*
X135488529Y-121309609D01*
X135490384Y-121304145D01*
X135491212Y-121298436D01*
X135491213Y-121298431D01*
X135518979Y-121106927D01*
X135519512Y-121103253D01*
X135521032Y-121045200D01*
X135518364Y-121016164D01*
X135842948Y-121016164D01*
X135856224Y-121218722D01*
X135857645Y-121224318D01*
X135857646Y-121224323D01*
X135897186Y-121380009D01*
X135906192Y-121415469D01*
X135908609Y-121420712D01*
X135945810Y-121501408D01*
X135991177Y-121599816D01*
X135994510Y-121604532D01*
X136082762Y-121729406D01*
X136108333Y-121765589D01*
X136253738Y-121907235D01*
X136422520Y-122020012D01*
X136427823Y-122022290D01*
X136427826Y-122022292D01*
X136598086Y-122095441D01*
X136609028Y-122100142D01*
X136682044Y-122116664D01*
X136801379Y-122143667D01*
X136801384Y-122143668D01*
X136807016Y-122144942D01*
X136812787Y-122145169D01*
X136812789Y-122145169D01*
X136872556Y-122147517D01*
X137009853Y-122152912D01*
X137110299Y-122138348D01*
X137205031Y-122124613D01*
X137205036Y-122124612D01*
X137210745Y-122123784D01*
X137216209Y-122121929D01*
X137216214Y-122121928D01*
X137397493Y-122060392D01*
X137397498Y-122060390D01*
X137402965Y-122058534D01*
X137580076Y-121959347D01*
X137642734Y-121907235D01*
X137731713Y-121833231D01*
X137736145Y-121829545D01*
X137809916Y-121740846D01*
X137862253Y-121677918D01*
X137862255Y-121677915D01*
X137865947Y-121673476D01*
X137965134Y-121496365D01*
X137966990Y-121490898D01*
X137966992Y-121490893D01*
X138028528Y-121309614D01*
X138028529Y-121309609D01*
X138030384Y-121304145D01*
X138031212Y-121298436D01*
X138031213Y-121298431D01*
X138058979Y-121106927D01*
X138059512Y-121103253D01*
X138061032Y-121045200D01*
X138058364Y-121016164D01*
X138382948Y-121016164D01*
X138396224Y-121218722D01*
X138397645Y-121224318D01*
X138397646Y-121224323D01*
X138437186Y-121380009D01*
X138446192Y-121415469D01*
X138448609Y-121420712D01*
X138485810Y-121501408D01*
X138531177Y-121599816D01*
X138534510Y-121604532D01*
X138622762Y-121729406D01*
X138648333Y-121765589D01*
X138793738Y-121907235D01*
X138962520Y-122020012D01*
X138967823Y-122022290D01*
X138967826Y-122022292D01*
X139138086Y-122095441D01*
X139149028Y-122100142D01*
X139222044Y-122116664D01*
X139341379Y-122143667D01*
X139341384Y-122143668D01*
X139347016Y-122144942D01*
X139352787Y-122145169D01*
X139352789Y-122145169D01*
X139412556Y-122147517D01*
X139549853Y-122152912D01*
X139650299Y-122138348D01*
X139745031Y-122124613D01*
X139745036Y-122124612D01*
X139750745Y-122123784D01*
X139756209Y-122121929D01*
X139756214Y-122121928D01*
X139937493Y-122060392D01*
X139937498Y-122060390D01*
X139942965Y-122058534D01*
X140120076Y-121959347D01*
X140182734Y-121907235D01*
X140271713Y-121833231D01*
X140276145Y-121829545D01*
X140349916Y-121740846D01*
X140402253Y-121677918D01*
X140402255Y-121677915D01*
X140405947Y-121673476D01*
X140505134Y-121496365D01*
X140506990Y-121490898D01*
X140506992Y-121490893D01*
X140568528Y-121309614D01*
X140568529Y-121309609D01*
X140570384Y-121304145D01*
X140571212Y-121298436D01*
X140571213Y-121298431D01*
X140598979Y-121106927D01*
X140599512Y-121103253D01*
X140601032Y-121045200D01*
X140598364Y-121016164D01*
X140922948Y-121016164D01*
X140936224Y-121218722D01*
X140937645Y-121224318D01*
X140937646Y-121224323D01*
X140977186Y-121380009D01*
X140986192Y-121415469D01*
X140988609Y-121420712D01*
X141025810Y-121501408D01*
X141071177Y-121599816D01*
X141074510Y-121604532D01*
X141162762Y-121729406D01*
X141188333Y-121765589D01*
X141333738Y-121907235D01*
X141502520Y-122020012D01*
X141507823Y-122022290D01*
X141507826Y-122022292D01*
X141678086Y-122095441D01*
X141689028Y-122100142D01*
X141762044Y-122116664D01*
X141881379Y-122143667D01*
X141881384Y-122143668D01*
X141887016Y-122144942D01*
X141892787Y-122145169D01*
X141892789Y-122145169D01*
X141952556Y-122147517D01*
X142089853Y-122152912D01*
X142190299Y-122138348D01*
X142285031Y-122124613D01*
X142285036Y-122124612D01*
X142290745Y-122123784D01*
X142296209Y-122121929D01*
X142296214Y-122121928D01*
X142477493Y-122060392D01*
X142477498Y-122060390D01*
X142482965Y-122058534D01*
X142660076Y-121959347D01*
X142722734Y-121907235D01*
X142811713Y-121833231D01*
X142816145Y-121829545D01*
X142889916Y-121740846D01*
X142942253Y-121677918D01*
X142942255Y-121677915D01*
X142945947Y-121673476D01*
X143045134Y-121496365D01*
X143046990Y-121490898D01*
X143046992Y-121490893D01*
X143108528Y-121309614D01*
X143108529Y-121309609D01*
X143110384Y-121304145D01*
X143111212Y-121298436D01*
X143111213Y-121298431D01*
X143138979Y-121106927D01*
X143139512Y-121103253D01*
X143141032Y-121045200D01*
X143138364Y-121016164D01*
X143462948Y-121016164D01*
X143476224Y-121218722D01*
X143477645Y-121224318D01*
X143477646Y-121224323D01*
X143517186Y-121380009D01*
X143526192Y-121415469D01*
X143528609Y-121420712D01*
X143565810Y-121501408D01*
X143611177Y-121599816D01*
X143614510Y-121604532D01*
X143702762Y-121729406D01*
X143728333Y-121765589D01*
X143873738Y-121907235D01*
X144042520Y-122020012D01*
X144047823Y-122022290D01*
X144047826Y-122022292D01*
X144218086Y-122095441D01*
X144229028Y-122100142D01*
X144302044Y-122116664D01*
X144421379Y-122143667D01*
X144421384Y-122143668D01*
X144427016Y-122144942D01*
X144432787Y-122145169D01*
X144432789Y-122145169D01*
X144492556Y-122147517D01*
X144629853Y-122152912D01*
X144730299Y-122138348D01*
X144825031Y-122124613D01*
X144825036Y-122124612D01*
X144830745Y-122123784D01*
X144836209Y-122121929D01*
X144836214Y-122121928D01*
X145017493Y-122060392D01*
X145017498Y-122060390D01*
X145022965Y-122058534D01*
X145200076Y-121959347D01*
X145262734Y-121907235D01*
X145351713Y-121833231D01*
X145356145Y-121829545D01*
X145429916Y-121740846D01*
X145482253Y-121677918D01*
X145482255Y-121677915D01*
X145485947Y-121673476D01*
X145585134Y-121496365D01*
X145586990Y-121490898D01*
X145586992Y-121490893D01*
X145648528Y-121309614D01*
X145648529Y-121309609D01*
X145650384Y-121304145D01*
X145651212Y-121298436D01*
X145651213Y-121298431D01*
X145678979Y-121106927D01*
X145679512Y-121103253D01*
X145681032Y-121045200D01*
X145678364Y-121016164D01*
X146002948Y-121016164D01*
X146016224Y-121218722D01*
X146017645Y-121224318D01*
X146017646Y-121224323D01*
X146057186Y-121380009D01*
X146066192Y-121415469D01*
X146068609Y-121420712D01*
X146105810Y-121501408D01*
X146151177Y-121599816D01*
X146154510Y-121604532D01*
X146242762Y-121729406D01*
X146268333Y-121765589D01*
X146413738Y-121907235D01*
X146582520Y-122020012D01*
X146587823Y-122022290D01*
X146587826Y-122022292D01*
X146758086Y-122095441D01*
X146769028Y-122100142D01*
X146842044Y-122116664D01*
X146961379Y-122143667D01*
X146961384Y-122143668D01*
X146967016Y-122144942D01*
X146972787Y-122145169D01*
X146972789Y-122145169D01*
X147032556Y-122147517D01*
X147169853Y-122152912D01*
X147270299Y-122138348D01*
X147365031Y-122124613D01*
X147365036Y-122124612D01*
X147370745Y-122123784D01*
X147376209Y-122121929D01*
X147376214Y-122121928D01*
X147557493Y-122060392D01*
X147557498Y-122060390D01*
X147562965Y-122058534D01*
X147740076Y-121959347D01*
X147802734Y-121907235D01*
X147891713Y-121833231D01*
X147896145Y-121829545D01*
X147969916Y-121740846D01*
X148022253Y-121677918D01*
X148022255Y-121677915D01*
X148025947Y-121673476D01*
X148125134Y-121496365D01*
X148126990Y-121490898D01*
X148126992Y-121490893D01*
X148188528Y-121309614D01*
X148188529Y-121309609D01*
X148190384Y-121304145D01*
X148191212Y-121298436D01*
X148191213Y-121298431D01*
X148218979Y-121106927D01*
X148219512Y-121103253D01*
X148221032Y-121045200D01*
X148218364Y-121016164D01*
X148542948Y-121016164D01*
X148556224Y-121218722D01*
X148557645Y-121224318D01*
X148557646Y-121224323D01*
X148597186Y-121380009D01*
X148606192Y-121415469D01*
X148608609Y-121420712D01*
X148645810Y-121501408D01*
X148691177Y-121599816D01*
X148694510Y-121604532D01*
X148782762Y-121729406D01*
X148808333Y-121765589D01*
X148953738Y-121907235D01*
X149122520Y-122020012D01*
X149127823Y-122022290D01*
X149127826Y-122022292D01*
X149298086Y-122095441D01*
X149309028Y-122100142D01*
X149382044Y-122116664D01*
X149501379Y-122143667D01*
X149501384Y-122143668D01*
X149507016Y-122144942D01*
X149512787Y-122145169D01*
X149512789Y-122145169D01*
X149572556Y-122147517D01*
X149709853Y-122152912D01*
X149810299Y-122138348D01*
X149905031Y-122124613D01*
X149905036Y-122124612D01*
X149910745Y-122123784D01*
X149916209Y-122121929D01*
X149916214Y-122121928D01*
X150097493Y-122060392D01*
X150097498Y-122060390D01*
X150102965Y-122058534D01*
X150280076Y-121959347D01*
X150342734Y-121907235D01*
X150431713Y-121833231D01*
X150436145Y-121829545D01*
X150509916Y-121740846D01*
X150562253Y-121677918D01*
X150562255Y-121677915D01*
X150565947Y-121673476D01*
X150665134Y-121496365D01*
X150666990Y-121490898D01*
X150666992Y-121490893D01*
X150728528Y-121309614D01*
X150728529Y-121309609D01*
X150730384Y-121304145D01*
X150731212Y-121298436D01*
X150731213Y-121298431D01*
X150758979Y-121106927D01*
X150759512Y-121103253D01*
X150761032Y-121045200D01*
X150758364Y-121016164D01*
X151082948Y-121016164D01*
X151096224Y-121218722D01*
X151097645Y-121224318D01*
X151097646Y-121224323D01*
X151137186Y-121380009D01*
X151146192Y-121415469D01*
X151148609Y-121420712D01*
X151185810Y-121501408D01*
X151231177Y-121599816D01*
X151234510Y-121604532D01*
X151322762Y-121729406D01*
X151348333Y-121765589D01*
X151493738Y-121907235D01*
X151662520Y-122020012D01*
X151667823Y-122022290D01*
X151667826Y-122022292D01*
X151838086Y-122095441D01*
X151849028Y-122100142D01*
X151922044Y-122116664D01*
X152041379Y-122143667D01*
X152041384Y-122143668D01*
X152047016Y-122144942D01*
X152052787Y-122145169D01*
X152052789Y-122145169D01*
X152112556Y-122147517D01*
X152249853Y-122152912D01*
X152350299Y-122138348D01*
X152445031Y-122124613D01*
X152445036Y-122124612D01*
X152450745Y-122123784D01*
X152456209Y-122121929D01*
X152456214Y-122121928D01*
X152637493Y-122060392D01*
X152637498Y-122060390D01*
X152642965Y-122058534D01*
X152820076Y-121959347D01*
X152882734Y-121907235D01*
X152971713Y-121833231D01*
X152976145Y-121829545D01*
X153049916Y-121740846D01*
X153102253Y-121677918D01*
X153102255Y-121677915D01*
X153105947Y-121673476D01*
X153205134Y-121496365D01*
X153206990Y-121490898D01*
X153206992Y-121490893D01*
X153268528Y-121309614D01*
X153268529Y-121309609D01*
X153270384Y-121304145D01*
X153271212Y-121298436D01*
X153271213Y-121298431D01*
X153298979Y-121106927D01*
X153299512Y-121103253D01*
X153301032Y-121045200D01*
X153298364Y-121016164D01*
X153622948Y-121016164D01*
X153636224Y-121218722D01*
X153637645Y-121224318D01*
X153637646Y-121224323D01*
X153677186Y-121380009D01*
X153686192Y-121415469D01*
X153688609Y-121420712D01*
X153725810Y-121501408D01*
X153771177Y-121599816D01*
X153774510Y-121604532D01*
X153862762Y-121729406D01*
X153888333Y-121765589D01*
X154033738Y-121907235D01*
X154202520Y-122020012D01*
X154207823Y-122022290D01*
X154207826Y-122022292D01*
X154378086Y-122095441D01*
X154389028Y-122100142D01*
X154462044Y-122116664D01*
X154581379Y-122143667D01*
X154581384Y-122143668D01*
X154587016Y-122144942D01*
X154592787Y-122145169D01*
X154592789Y-122145169D01*
X154652556Y-122147517D01*
X154789853Y-122152912D01*
X154890299Y-122138348D01*
X154985031Y-122124613D01*
X154985036Y-122124612D01*
X154990745Y-122123784D01*
X154996209Y-122121929D01*
X154996214Y-122121928D01*
X155177493Y-122060392D01*
X155177498Y-122060390D01*
X155182965Y-122058534D01*
X155360076Y-121959347D01*
X155422734Y-121907235D01*
X155511713Y-121833231D01*
X155516145Y-121829545D01*
X155589916Y-121740846D01*
X155642253Y-121677918D01*
X155642255Y-121677915D01*
X155645947Y-121673476D01*
X155745134Y-121496365D01*
X155746990Y-121490898D01*
X155746992Y-121490893D01*
X155808528Y-121309614D01*
X155808529Y-121309609D01*
X155810384Y-121304145D01*
X155811212Y-121298436D01*
X155811213Y-121298431D01*
X155838979Y-121106927D01*
X155839512Y-121103253D01*
X155841032Y-121045200D01*
X155838364Y-121016164D01*
X156162948Y-121016164D01*
X156176224Y-121218722D01*
X156177645Y-121224318D01*
X156177646Y-121224323D01*
X156217186Y-121380009D01*
X156226192Y-121415469D01*
X156228609Y-121420712D01*
X156265810Y-121501408D01*
X156311177Y-121599816D01*
X156314510Y-121604532D01*
X156402762Y-121729406D01*
X156428333Y-121765589D01*
X156573738Y-121907235D01*
X156742520Y-122020012D01*
X156747823Y-122022290D01*
X156747826Y-122022292D01*
X156918086Y-122095441D01*
X156929028Y-122100142D01*
X157002044Y-122116664D01*
X157121379Y-122143667D01*
X157121384Y-122143668D01*
X157127016Y-122144942D01*
X157132787Y-122145169D01*
X157132789Y-122145169D01*
X157192556Y-122147517D01*
X157329853Y-122152912D01*
X157430299Y-122138348D01*
X157525031Y-122124613D01*
X157525036Y-122124612D01*
X157530745Y-122123784D01*
X157536209Y-122121929D01*
X157536214Y-122121928D01*
X157717493Y-122060392D01*
X157717498Y-122060390D01*
X157722965Y-122058534D01*
X157900076Y-121959347D01*
X157962734Y-121907235D01*
X158051713Y-121833231D01*
X158056145Y-121829545D01*
X158129916Y-121740846D01*
X158182253Y-121677918D01*
X158182255Y-121677915D01*
X158185947Y-121673476D01*
X158285134Y-121496365D01*
X158286990Y-121490898D01*
X158286992Y-121490893D01*
X158348528Y-121309614D01*
X158348529Y-121309609D01*
X158350384Y-121304145D01*
X158351212Y-121298436D01*
X158351213Y-121298431D01*
X158378979Y-121106927D01*
X158379512Y-121103253D01*
X158381032Y-121045200D01*
X158378364Y-121016164D01*
X158702948Y-121016164D01*
X158716224Y-121218722D01*
X158717645Y-121224318D01*
X158717646Y-121224323D01*
X158757186Y-121380009D01*
X158766192Y-121415469D01*
X158768609Y-121420712D01*
X158805810Y-121501408D01*
X158851177Y-121599816D01*
X158854510Y-121604532D01*
X158942762Y-121729406D01*
X158968333Y-121765589D01*
X159113738Y-121907235D01*
X159282520Y-122020012D01*
X159287823Y-122022290D01*
X159287826Y-122022292D01*
X159458086Y-122095441D01*
X159469028Y-122100142D01*
X159542044Y-122116664D01*
X159661379Y-122143667D01*
X159661384Y-122143668D01*
X159667016Y-122144942D01*
X159672787Y-122145169D01*
X159672789Y-122145169D01*
X159732556Y-122147517D01*
X159869853Y-122152912D01*
X159970299Y-122138348D01*
X160065031Y-122124613D01*
X160065036Y-122124612D01*
X160070745Y-122123784D01*
X160076209Y-122121929D01*
X160076214Y-122121928D01*
X160257493Y-122060392D01*
X160257498Y-122060390D01*
X160262965Y-122058534D01*
X160440076Y-121959347D01*
X160502734Y-121907235D01*
X160591713Y-121833231D01*
X160596145Y-121829545D01*
X160669916Y-121740846D01*
X160722253Y-121677918D01*
X160722255Y-121677915D01*
X160725947Y-121673476D01*
X160825134Y-121496365D01*
X160826990Y-121490898D01*
X160826992Y-121490893D01*
X160888528Y-121309614D01*
X160888529Y-121309609D01*
X160890384Y-121304145D01*
X160891212Y-121298436D01*
X160891213Y-121298431D01*
X160918979Y-121106927D01*
X160919512Y-121103253D01*
X160921032Y-121045200D01*
X160918364Y-121016164D01*
X161242948Y-121016164D01*
X161256224Y-121218722D01*
X161257645Y-121224318D01*
X161257646Y-121224323D01*
X161297186Y-121380009D01*
X161306192Y-121415469D01*
X161308609Y-121420712D01*
X161345810Y-121501408D01*
X161391177Y-121599816D01*
X161394510Y-121604532D01*
X161482762Y-121729406D01*
X161508333Y-121765589D01*
X161653738Y-121907235D01*
X161822520Y-122020012D01*
X161827823Y-122022290D01*
X161827826Y-122022292D01*
X161998086Y-122095441D01*
X162009028Y-122100142D01*
X162082044Y-122116664D01*
X162201379Y-122143667D01*
X162201384Y-122143668D01*
X162207016Y-122144942D01*
X162212787Y-122145169D01*
X162212789Y-122145169D01*
X162272556Y-122147517D01*
X162409853Y-122152912D01*
X162510299Y-122138348D01*
X162605031Y-122124613D01*
X162605036Y-122124612D01*
X162610745Y-122123784D01*
X162616209Y-122121929D01*
X162616214Y-122121928D01*
X162797493Y-122060392D01*
X162797498Y-122060390D01*
X162802965Y-122058534D01*
X162980076Y-121959347D01*
X163042734Y-121907235D01*
X163131713Y-121833231D01*
X163136145Y-121829545D01*
X163209916Y-121740846D01*
X163262253Y-121677918D01*
X163262255Y-121677915D01*
X163265947Y-121673476D01*
X163365134Y-121496365D01*
X163366990Y-121490898D01*
X163366992Y-121490893D01*
X163428528Y-121309614D01*
X163428529Y-121309609D01*
X163430384Y-121304145D01*
X163431212Y-121298436D01*
X163431213Y-121298431D01*
X163458979Y-121106927D01*
X163459512Y-121103253D01*
X163461032Y-121045200D01*
X163442458Y-120843059D01*
X163440890Y-120837499D01*
X163388925Y-120653246D01*
X163388924Y-120653244D01*
X163387357Y-120647687D01*
X163376778Y-120626233D01*
X163300131Y-120470809D01*
X163297576Y-120465628D01*
X163176120Y-120302979D01*
X163027058Y-120165187D01*
X163022175Y-120162106D01*
X163022171Y-120162103D01*
X162860264Y-120059948D01*
X162855381Y-120056867D01*
X162666839Y-119981646D01*
X162661179Y-119980520D01*
X162661175Y-119980519D01*
X162473413Y-119943171D01*
X162473410Y-119943171D01*
X162467746Y-119942044D01*
X162461971Y-119941968D01*
X162461967Y-119941968D01*
X162360593Y-119940641D01*
X162264771Y-119939387D01*
X162259074Y-119940366D01*
X162259073Y-119940366D01*
X162070407Y-119972785D01*
X162064710Y-119973764D01*
X161874263Y-120044024D01*
X161699810Y-120147812D01*
X161695470Y-120151618D01*
X161695466Y-120151621D01*
X161675523Y-120169111D01*
X161547192Y-120281655D01*
X161421520Y-120441069D01*
X161418831Y-120446180D01*
X161418829Y-120446183D01*
X161405873Y-120470809D01*
X161327003Y-120620715D01*
X161266807Y-120814578D01*
X161242948Y-121016164D01*
X160918364Y-121016164D01*
X160902458Y-120843059D01*
X160900890Y-120837499D01*
X160848925Y-120653246D01*
X160848924Y-120653244D01*
X160847357Y-120647687D01*
X160836778Y-120626233D01*
X160760131Y-120470809D01*
X160757576Y-120465628D01*
X160636120Y-120302979D01*
X160487058Y-120165187D01*
X160482175Y-120162106D01*
X160482171Y-120162103D01*
X160320264Y-120059948D01*
X160315381Y-120056867D01*
X160126839Y-119981646D01*
X160121179Y-119980520D01*
X160121175Y-119980519D01*
X159933413Y-119943171D01*
X159933410Y-119943171D01*
X159927746Y-119942044D01*
X159921971Y-119941968D01*
X159921967Y-119941968D01*
X159820593Y-119940641D01*
X159724771Y-119939387D01*
X159719074Y-119940366D01*
X159719073Y-119940366D01*
X159530407Y-119972785D01*
X159524710Y-119973764D01*
X159334263Y-120044024D01*
X159159810Y-120147812D01*
X159155470Y-120151618D01*
X159155466Y-120151621D01*
X159135523Y-120169111D01*
X159007192Y-120281655D01*
X158881520Y-120441069D01*
X158878831Y-120446180D01*
X158878829Y-120446183D01*
X158865873Y-120470809D01*
X158787003Y-120620715D01*
X158726807Y-120814578D01*
X158702948Y-121016164D01*
X158378364Y-121016164D01*
X158362458Y-120843059D01*
X158360890Y-120837499D01*
X158308925Y-120653246D01*
X158308924Y-120653244D01*
X158307357Y-120647687D01*
X158296778Y-120626233D01*
X158220131Y-120470809D01*
X158217576Y-120465628D01*
X158096120Y-120302979D01*
X157947058Y-120165187D01*
X157942175Y-120162106D01*
X157942171Y-120162103D01*
X157780264Y-120059948D01*
X157775381Y-120056867D01*
X157586839Y-119981646D01*
X157581179Y-119980520D01*
X157581175Y-119980519D01*
X157393413Y-119943171D01*
X157393410Y-119943171D01*
X157387746Y-119942044D01*
X157381971Y-119941968D01*
X157381967Y-119941968D01*
X157280593Y-119940641D01*
X157184771Y-119939387D01*
X157179074Y-119940366D01*
X157179073Y-119940366D01*
X156990407Y-119972785D01*
X156984710Y-119973764D01*
X156794263Y-120044024D01*
X156619810Y-120147812D01*
X156615470Y-120151618D01*
X156615466Y-120151621D01*
X156595523Y-120169111D01*
X156467192Y-120281655D01*
X156341520Y-120441069D01*
X156338831Y-120446180D01*
X156338829Y-120446183D01*
X156325873Y-120470809D01*
X156247003Y-120620715D01*
X156186807Y-120814578D01*
X156162948Y-121016164D01*
X155838364Y-121016164D01*
X155822458Y-120843059D01*
X155820890Y-120837499D01*
X155768925Y-120653246D01*
X155768924Y-120653244D01*
X155767357Y-120647687D01*
X155756778Y-120626233D01*
X155680131Y-120470809D01*
X155677576Y-120465628D01*
X155556120Y-120302979D01*
X155407058Y-120165187D01*
X155402175Y-120162106D01*
X155402171Y-120162103D01*
X155240264Y-120059948D01*
X155235381Y-120056867D01*
X155046839Y-119981646D01*
X155041179Y-119980520D01*
X155041175Y-119980519D01*
X154853413Y-119943171D01*
X154853410Y-119943171D01*
X154847746Y-119942044D01*
X154841971Y-119941968D01*
X154841967Y-119941968D01*
X154740593Y-119940641D01*
X154644771Y-119939387D01*
X154639074Y-119940366D01*
X154639073Y-119940366D01*
X154450407Y-119972785D01*
X154444710Y-119973764D01*
X154254263Y-120044024D01*
X154079810Y-120147812D01*
X154075470Y-120151618D01*
X154075466Y-120151621D01*
X154055523Y-120169111D01*
X153927192Y-120281655D01*
X153801520Y-120441069D01*
X153798831Y-120446180D01*
X153798829Y-120446183D01*
X153785873Y-120470809D01*
X153707003Y-120620715D01*
X153646807Y-120814578D01*
X153622948Y-121016164D01*
X153298364Y-121016164D01*
X153282458Y-120843059D01*
X153280890Y-120837499D01*
X153228925Y-120653246D01*
X153228924Y-120653244D01*
X153227357Y-120647687D01*
X153216778Y-120626233D01*
X153140131Y-120470809D01*
X153137576Y-120465628D01*
X153016120Y-120302979D01*
X152867058Y-120165187D01*
X152862175Y-120162106D01*
X152862171Y-120162103D01*
X152700264Y-120059948D01*
X152695381Y-120056867D01*
X152506839Y-119981646D01*
X152501179Y-119980520D01*
X152501175Y-119980519D01*
X152313413Y-119943171D01*
X152313410Y-119943171D01*
X152307746Y-119942044D01*
X152301971Y-119941968D01*
X152301967Y-119941968D01*
X152200593Y-119940641D01*
X152104771Y-119939387D01*
X152099074Y-119940366D01*
X152099073Y-119940366D01*
X151910407Y-119972785D01*
X151904710Y-119973764D01*
X151714263Y-120044024D01*
X151539810Y-120147812D01*
X151535470Y-120151618D01*
X151535466Y-120151621D01*
X151515523Y-120169111D01*
X151387192Y-120281655D01*
X151261520Y-120441069D01*
X151258831Y-120446180D01*
X151258829Y-120446183D01*
X151245873Y-120470809D01*
X151167003Y-120620715D01*
X151106807Y-120814578D01*
X151082948Y-121016164D01*
X150758364Y-121016164D01*
X150742458Y-120843059D01*
X150740890Y-120837499D01*
X150688925Y-120653246D01*
X150688924Y-120653244D01*
X150687357Y-120647687D01*
X150676778Y-120626233D01*
X150600131Y-120470809D01*
X150597576Y-120465628D01*
X150476120Y-120302979D01*
X150327058Y-120165187D01*
X150322175Y-120162106D01*
X150322171Y-120162103D01*
X150160264Y-120059948D01*
X150155381Y-120056867D01*
X149966839Y-119981646D01*
X149961179Y-119980520D01*
X149961175Y-119980519D01*
X149773413Y-119943171D01*
X149773410Y-119943171D01*
X149767746Y-119942044D01*
X149761971Y-119941968D01*
X149761967Y-119941968D01*
X149660593Y-119940641D01*
X149564771Y-119939387D01*
X149559074Y-119940366D01*
X149559073Y-119940366D01*
X149370407Y-119972785D01*
X149364710Y-119973764D01*
X149174263Y-120044024D01*
X148999810Y-120147812D01*
X148995470Y-120151618D01*
X148995466Y-120151621D01*
X148975523Y-120169111D01*
X148847192Y-120281655D01*
X148721520Y-120441069D01*
X148718831Y-120446180D01*
X148718829Y-120446183D01*
X148705873Y-120470809D01*
X148627003Y-120620715D01*
X148566807Y-120814578D01*
X148542948Y-121016164D01*
X148218364Y-121016164D01*
X148202458Y-120843059D01*
X148200890Y-120837499D01*
X148148925Y-120653246D01*
X148148924Y-120653244D01*
X148147357Y-120647687D01*
X148136778Y-120626233D01*
X148060131Y-120470809D01*
X148057576Y-120465628D01*
X147936120Y-120302979D01*
X147787058Y-120165187D01*
X147782175Y-120162106D01*
X147782171Y-120162103D01*
X147620264Y-120059948D01*
X147615381Y-120056867D01*
X147426839Y-119981646D01*
X147421179Y-119980520D01*
X147421175Y-119980519D01*
X147233413Y-119943171D01*
X147233410Y-119943171D01*
X147227746Y-119942044D01*
X147221971Y-119941968D01*
X147221967Y-119941968D01*
X147120593Y-119940641D01*
X147024771Y-119939387D01*
X147019074Y-119940366D01*
X147019073Y-119940366D01*
X146830407Y-119972785D01*
X146824710Y-119973764D01*
X146634263Y-120044024D01*
X146459810Y-120147812D01*
X146455470Y-120151618D01*
X146455466Y-120151621D01*
X146435523Y-120169111D01*
X146307192Y-120281655D01*
X146181520Y-120441069D01*
X146178831Y-120446180D01*
X146178829Y-120446183D01*
X146165873Y-120470809D01*
X146087003Y-120620715D01*
X146026807Y-120814578D01*
X146002948Y-121016164D01*
X145678364Y-121016164D01*
X145662458Y-120843059D01*
X145660890Y-120837499D01*
X145608925Y-120653246D01*
X145608924Y-120653244D01*
X145607357Y-120647687D01*
X145596778Y-120626233D01*
X145520131Y-120470809D01*
X145517576Y-120465628D01*
X145396120Y-120302979D01*
X145247058Y-120165187D01*
X145242175Y-120162106D01*
X145242171Y-120162103D01*
X145080264Y-120059948D01*
X145075381Y-120056867D01*
X144886839Y-119981646D01*
X144881179Y-119980520D01*
X144881175Y-119980519D01*
X144693413Y-119943171D01*
X144693410Y-119943171D01*
X144687746Y-119942044D01*
X144681971Y-119941968D01*
X144681967Y-119941968D01*
X144580593Y-119940641D01*
X144484771Y-119939387D01*
X144479074Y-119940366D01*
X144479073Y-119940366D01*
X144290407Y-119972785D01*
X144284710Y-119973764D01*
X144094263Y-120044024D01*
X143919810Y-120147812D01*
X143915470Y-120151618D01*
X143915466Y-120151621D01*
X143895523Y-120169111D01*
X143767192Y-120281655D01*
X143641520Y-120441069D01*
X143638831Y-120446180D01*
X143638829Y-120446183D01*
X143625873Y-120470809D01*
X143547003Y-120620715D01*
X143486807Y-120814578D01*
X143462948Y-121016164D01*
X143138364Y-121016164D01*
X143122458Y-120843059D01*
X143120890Y-120837499D01*
X143068925Y-120653246D01*
X143068924Y-120653244D01*
X143067357Y-120647687D01*
X143056778Y-120626233D01*
X142980131Y-120470809D01*
X142977576Y-120465628D01*
X142856120Y-120302979D01*
X142707058Y-120165187D01*
X142702175Y-120162106D01*
X142702171Y-120162103D01*
X142540264Y-120059948D01*
X142535381Y-120056867D01*
X142346839Y-119981646D01*
X142341179Y-119980520D01*
X142341175Y-119980519D01*
X142153413Y-119943171D01*
X142153410Y-119943171D01*
X142147746Y-119942044D01*
X142141971Y-119941968D01*
X142141967Y-119941968D01*
X142040593Y-119940641D01*
X141944771Y-119939387D01*
X141939074Y-119940366D01*
X141939073Y-119940366D01*
X141750407Y-119972785D01*
X141744710Y-119973764D01*
X141554263Y-120044024D01*
X141379810Y-120147812D01*
X141375470Y-120151618D01*
X141375466Y-120151621D01*
X141355523Y-120169111D01*
X141227192Y-120281655D01*
X141101520Y-120441069D01*
X141098831Y-120446180D01*
X141098829Y-120446183D01*
X141085873Y-120470809D01*
X141007003Y-120620715D01*
X140946807Y-120814578D01*
X140922948Y-121016164D01*
X140598364Y-121016164D01*
X140582458Y-120843059D01*
X140580890Y-120837499D01*
X140528925Y-120653246D01*
X140528924Y-120653244D01*
X140527357Y-120647687D01*
X140516778Y-120626233D01*
X140440131Y-120470809D01*
X140437576Y-120465628D01*
X140316120Y-120302979D01*
X140167058Y-120165187D01*
X140162175Y-120162106D01*
X140162171Y-120162103D01*
X140000264Y-120059948D01*
X139995381Y-120056867D01*
X139806839Y-119981646D01*
X139801179Y-119980520D01*
X139801175Y-119980519D01*
X139613413Y-119943171D01*
X139613410Y-119943171D01*
X139607746Y-119942044D01*
X139601971Y-119941968D01*
X139601967Y-119941968D01*
X139500593Y-119940641D01*
X139404771Y-119939387D01*
X139399074Y-119940366D01*
X139399073Y-119940366D01*
X139210407Y-119972785D01*
X139204710Y-119973764D01*
X139014263Y-120044024D01*
X138839810Y-120147812D01*
X138835470Y-120151618D01*
X138835466Y-120151621D01*
X138815523Y-120169111D01*
X138687192Y-120281655D01*
X138561520Y-120441069D01*
X138558831Y-120446180D01*
X138558829Y-120446183D01*
X138545873Y-120470809D01*
X138467003Y-120620715D01*
X138406807Y-120814578D01*
X138382948Y-121016164D01*
X138058364Y-121016164D01*
X138042458Y-120843059D01*
X138040890Y-120837499D01*
X137988925Y-120653246D01*
X137988924Y-120653244D01*
X137987357Y-120647687D01*
X137976778Y-120626233D01*
X137900131Y-120470809D01*
X137897576Y-120465628D01*
X137776120Y-120302979D01*
X137627058Y-120165187D01*
X137622175Y-120162106D01*
X137622171Y-120162103D01*
X137460264Y-120059948D01*
X137455381Y-120056867D01*
X137266839Y-119981646D01*
X137261179Y-119980520D01*
X137261175Y-119980519D01*
X137073413Y-119943171D01*
X137073410Y-119943171D01*
X137067746Y-119942044D01*
X137061971Y-119941968D01*
X137061967Y-119941968D01*
X136960593Y-119940641D01*
X136864771Y-119939387D01*
X136859074Y-119940366D01*
X136859073Y-119940366D01*
X136670407Y-119972785D01*
X136664710Y-119973764D01*
X136474263Y-120044024D01*
X136299810Y-120147812D01*
X136295470Y-120151618D01*
X136295466Y-120151621D01*
X136275523Y-120169111D01*
X136147192Y-120281655D01*
X136021520Y-120441069D01*
X136018831Y-120446180D01*
X136018829Y-120446183D01*
X136005873Y-120470809D01*
X135927003Y-120620715D01*
X135866807Y-120814578D01*
X135842948Y-121016164D01*
X135518364Y-121016164D01*
X135502458Y-120843059D01*
X135500890Y-120837499D01*
X135448925Y-120653246D01*
X135448924Y-120653244D01*
X135447357Y-120647687D01*
X135436778Y-120626233D01*
X135360131Y-120470809D01*
X135357576Y-120465628D01*
X135236120Y-120302979D01*
X135087058Y-120165187D01*
X135082175Y-120162106D01*
X135082171Y-120162103D01*
X134920264Y-120059948D01*
X134915381Y-120056867D01*
X134726839Y-119981646D01*
X134721179Y-119980520D01*
X134721175Y-119980519D01*
X134533413Y-119943171D01*
X134533410Y-119943171D01*
X134527746Y-119942044D01*
X134521971Y-119941968D01*
X134521967Y-119941968D01*
X134420593Y-119940641D01*
X134324771Y-119939387D01*
X134319074Y-119940366D01*
X134319073Y-119940366D01*
X134130407Y-119972785D01*
X134124710Y-119973764D01*
X133934263Y-120044024D01*
X133759810Y-120147812D01*
X133755470Y-120151618D01*
X133755466Y-120151621D01*
X133735523Y-120169111D01*
X133607192Y-120281655D01*
X133481520Y-120441069D01*
X133478831Y-120446180D01*
X133478829Y-120446183D01*
X133465873Y-120470809D01*
X133387003Y-120620715D01*
X133326807Y-120814578D01*
X133302948Y-121016164D01*
X132978364Y-121016164D01*
X132962458Y-120843059D01*
X132960890Y-120837499D01*
X132908925Y-120653246D01*
X132908924Y-120653244D01*
X132907357Y-120647687D01*
X132896778Y-120626233D01*
X132820131Y-120470809D01*
X132817576Y-120465628D01*
X132696120Y-120302979D01*
X132547058Y-120165187D01*
X132542175Y-120162106D01*
X132542171Y-120162103D01*
X132380264Y-120059948D01*
X132375381Y-120056867D01*
X132186839Y-119981646D01*
X132181179Y-119980520D01*
X132181175Y-119980519D01*
X131993413Y-119943171D01*
X131993410Y-119943171D01*
X131987746Y-119942044D01*
X131981971Y-119941968D01*
X131981967Y-119941968D01*
X131880593Y-119940641D01*
X131784771Y-119939387D01*
X131779074Y-119940366D01*
X131779073Y-119940366D01*
X131590407Y-119972785D01*
X131584710Y-119973764D01*
X131394263Y-120044024D01*
X131219810Y-120147812D01*
X131215470Y-120151618D01*
X131215466Y-120151621D01*
X131195523Y-120169111D01*
X131067192Y-120281655D01*
X130941520Y-120441069D01*
X130938831Y-120446180D01*
X130938829Y-120446183D01*
X130925873Y-120470809D01*
X130847003Y-120620715D01*
X130786807Y-120814578D01*
X130762948Y-121016164D01*
X130438364Y-121016164D01*
X130422458Y-120843059D01*
X130420890Y-120837499D01*
X130368925Y-120653246D01*
X130368924Y-120653244D01*
X130367357Y-120647687D01*
X130356778Y-120626233D01*
X130280131Y-120470809D01*
X130277576Y-120465628D01*
X130156120Y-120302979D01*
X130007058Y-120165187D01*
X130002175Y-120162106D01*
X130002171Y-120162103D01*
X129840264Y-120059948D01*
X129835381Y-120056867D01*
X129646839Y-119981646D01*
X129641179Y-119980520D01*
X129641175Y-119980519D01*
X129453413Y-119943171D01*
X129453410Y-119943171D01*
X129447746Y-119942044D01*
X129441971Y-119941968D01*
X129441967Y-119941968D01*
X129340593Y-119940641D01*
X129244771Y-119939387D01*
X129239074Y-119940366D01*
X129239073Y-119940366D01*
X129050407Y-119972785D01*
X129044710Y-119973764D01*
X128854263Y-120044024D01*
X128679810Y-120147812D01*
X128675470Y-120151618D01*
X128675466Y-120151621D01*
X128655523Y-120169111D01*
X128527192Y-120281655D01*
X128401520Y-120441069D01*
X128398831Y-120446180D01*
X128398829Y-120446183D01*
X128385873Y-120470809D01*
X128307003Y-120620715D01*
X128246807Y-120814578D01*
X128222948Y-121016164D01*
X127898364Y-121016164D01*
X127882458Y-120843059D01*
X127880890Y-120837499D01*
X127828925Y-120653246D01*
X127828924Y-120653244D01*
X127827357Y-120647687D01*
X127816778Y-120626233D01*
X127740131Y-120470809D01*
X127737576Y-120465628D01*
X127616120Y-120302979D01*
X127467058Y-120165187D01*
X127462175Y-120162106D01*
X127462171Y-120162103D01*
X127300264Y-120059948D01*
X127295381Y-120056867D01*
X127106839Y-119981646D01*
X127101179Y-119980520D01*
X127101175Y-119980519D01*
X126913413Y-119943171D01*
X126913410Y-119943171D01*
X126907746Y-119942044D01*
X126901971Y-119941968D01*
X126901967Y-119941968D01*
X126800593Y-119940641D01*
X126704771Y-119939387D01*
X126699074Y-119940366D01*
X126699073Y-119940366D01*
X126510407Y-119972785D01*
X126504710Y-119973764D01*
X126314263Y-120044024D01*
X126139810Y-120147812D01*
X126135470Y-120151618D01*
X126135466Y-120151621D01*
X126115523Y-120169111D01*
X125987192Y-120281655D01*
X125861520Y-120441069D01*
X125858831Y-120446180D01*
X125858829Y-120446183D01*
X125845873Y-120470809D01*
X125767003Y-120620715D01*
X125706807Y-120814578D01*
X125682948Y-121016164D01*
X125358364Y-121016164D01*
X125342458Y-120843059D01*
X125340890Y-120837499D01*
X125288925Y-120653246D01*
X125288924Y-120653244D01*
X125287357Y-120647687D01*
X125276778Y-120626233D01*
X125200131Y-120470809D01*
X125197576Y-120465628D01*
X125076120Y-120302979D01*
X124927058Y-120165187D01*
X124922175Y-120162106D01*
X124922171Y-120162103D01*
X124760264Y-120059948D01*
X124755381Y-120056867D01*
X124566839Y-119981646D01*
X124561179Y-119980520D01*
X124561175Y-119980519D01*
X124373413Y-119943171D01*
X124373410Y-119943171D01*
X124367746Y-119942044D01*
X124361971Y-119941968D01*
X124361967Y-119941968D01*
X124260593Y-119940641D01*
X124164771Y-119939387D01*
X124159074Y-119940366D01*
X124159073Y-119940366D01*
X123970407Y-119972785D01*
X123964710Y-119973764D01*
X123774263Y-120044024D01*
X123599810Y-120147812D01*
X123595470Y-120151618D01*
X123595466Y-120151621D01*
X123575523Y-120169111D01*
X123447192Y-120281655D01*
X123321520Y-120441069D01*
X123318831Y-120446180D01*
X123318829Y-120446183D01*
X123305873Y-120470809D01*
X123227003Y-120620715D01*
X123166807Y-120814578D01*
X123142948Y-121016164D01*
X122818364Y-121016164D01*
X122802458Y-120843059D01*
X122800890Y-120837499D01*
X122748925Y-120653246D01*
X122748924Y-120653244D01*
X122747357Y-120647687D01*
X122736778Y-120626233D01*
X122660131Y-120470809D01*
X122657576Y-120465628D01*
X122536120Y-120302979D01*
X122387058Y-120165187D01*
X122382175Y-120162106D01*
X122382171Y-120162103D01*
X122220264Y-120059948D01*
X122215381Y-120056867D01*
X122026839Y-119981646D01*
X122021179Y-119980520D01*
X122021175Y-119980519D01*
X121833413Y-119943171D01*
X121833410Y-119943171D01*
X121827746Y-119942044D01*
X121821971Y-119941968D01*
X121821967Y-119941968D01*
X121720593Y-119940641D01*
X121624771Y-119939387D01*
X121619074Y-119940366D01*
X121619073Y-119940366D01*
X121430407Y-119972785D01*
X121424710Y-119973764D01*
X121234263Y-120044024D01*
X121059810Y-120147812D01*
X121055470Y-120151618D01*
X121055466Y-120151621D01*
X121035523Y-120169111D01*
X120907192Y-120281655D01*
X120781520Y-120441069D01*
X120778831Y-120446180D01*
X120778829Y-120446183D01*
X120765873Y-120470809D01*
X120687003Y-120620715D01*
X120626807Y-120814578D01*
X120602948Y-121016164D01*
X115230176Y-121016164D01*
X115231362Y-121010200D01*
X115228797Y-120997303D01*
X115226376Y-120972724D01*
X115226376Y-118476164D01*
X115522948Y-118476164D01*
X115536224Y-118678722D01*
X115537645Y-118684318D01*
X115537646Y-118684323D01*
X115557919Y-118764145D01*
X115586192Y-118875469D01*
X115588609Y-118880712D01*
X115625810Y-118961408D01*
X115671177Y-119059816D01*
X115788333Y-119225589D01*
X115933738Y-119367235D01*
X116102520Y-119480012D01*
X116107823Y-119482290D01*
X116107826Y-119482292D01*
X116239083Y-119538684D01*
X116289028Y-119560142D01*
X116362044Y-119576664D01*
X116481379Y-119603667D01*
X116481384Y-119603668D01*
X116487016Y-119604942D01*
X116492787Y-119605169D01*
X116492789Y-119605169D01*
X116552556Y-119607517D01*
X116689853Y-119612912D01*
X116797148Y-119597355D01*
X116885031Y-119584613D01*
X116885036Y-119584612D01*
X116890745Y-119583784D01*
X116896209Y-119581929D01*
X116896214Y-119581928D01*
X117077493Y-119520392D01*
X117077498Y-119520390D01*
X117082965Y-119518534D01*
X117260076Y-119419347D01*
X117299769Y-119386335D01*
X117411713Y-119293231D01*
X117416145Y-119289545D01*
X117545947Y-119133476D01*
X117645134Y-118956365D01*
X117646990Y-118950898D01*
X117646992Y-118950893D01*
X117708528Y-118769614D01*
X117708529Y-118769609D01*
X117710384Y-118764145D01*
X117711212Y-118758436D01*
X117711213Y-118758431D01*
X117738979Y-118566927D01*
X117739512Y-118563253D01*
X117741032Y-118505200D01*
X117738364Y-118476164D01*
X118062948Y-118476164D01*
X118076224Y-118678722D01*
X118077645Y-118684318D01*
X118077646Y-118684323D01*
X118097919Y-118764145D01*
X118126192Y-118875469D01*
X118128609Y-118880712D01*
X118165810Y-118961408D01*
X118211177Y-119059816D01*
X118328333Y-119225589D01*
X118473738Y-119367235D01*
X118642520Y-119480012D01*
X118647823Y-119482290D01*
X118647826Y-119482292D01*
X118779083Y-119538684D01*
X118829028Y-119560142D01*
X118902044Y-119576664D01*
X119021379Y-119603667D01*
X119021384Y-119603668D01*
X119027016Y-119604942D01*
X119032787Y-119605169D01*
X119032789Y-119605169D01*
X119092556Y-119607517D01*
X119229853Y-119612912D01*
X119337148Y-119597355D01*
X119425031Y-119584613D01*
X119425036Y-119584612D01*
X119430745Y-119583784D01*
X119436209Y-119581929D01*
X119436214Y-119581928D01*
X119617493Y-119520392D01*
X119617498Y-119520390D01*
X119622965Y-119518534D01*
X119800076Y-119419347D01*
X119839769Y-119386335D01*
X119951713Y-119293231D01*
X119956145Y-119289545D01*
X120085947Y-119133476D01*
X120185134Y-118956365D01*
X120186990Y-118950898D01*
X120186992Y-118950893D01*
X120248528Y-118769614D01*
X120248529Y-118769609D01*
X120250384Y-118764145D01*
X120251212Y-118758436D01*
X120251213Y-118758431D01*
X120278979Y-118566927D01*
X120279512Y-118563253D01*
X120281032Y-118505200D01*
X120278364Y-118476164D01*
X120602948Y-118476164D01*
X120616224Y-118678722D01*
X120617645Y-118684318D01*
X120617646Y-118684323D01*
X120637919Y-118764145D01*
X120666192Y-118875469D01*
X120668609Y-118880712D01*
X120705810Y-118961408D01*
X120751177Y-119059816D01*
X120868333Y-119225589D01*
X121013738Y-119367235D01*
X121182520Y-119480012D01*
X121187823Y-119482290D01*
X121187826Y-119482292D01*
X121319083Y-119538684D01*
X121369028Y-119560142D01*
X121442044Y-119576664D01*
X121561379Y-119603667D01*
X121561384Y-119603668D01*
X121567016Y-119604942D01*
X121572787Y-119605169D01*
X121572789Y-119605169D01*
X121632556Y-119607517D01*
X121769853Y-119612912D01*
X121877148Y-119597355D01*
X121965031Y-119584613D01*
X121965036Y-119584612D01*
X121970745Y-119583784D01*
X121976209Y-119581929D01*
X121976214Y-119581928D01*
X122157493Y-119520392D01*
X122157498Y-119520390D01*
X122162965Y-119518534D01*
X122340076Y-119419347D01*
X122379769Y-119386335D01*
X122491713Y-119293231D01*
X122496145Y-119289545D01*
X122625947Y-119133476D01*
X122725134Y-118956365D01*
X122726990Y-118950898D01*
X122726992Y-118950893D01*
X122788528Y-118769614D01*
X122788529Y-118769609D01*
X122790384Y-118764145D01*
X122791212Y-118758436D01*
X122791213Y-118758431D01*
X122818979Y-118566927D01*
X122819512Y-118563253D01*
X122821032Y-118505200D01*
X122818364Y-118476164D01*
X123142948Y-118476164D01*
X123156224Y-118678722D01*
X123157645Y-118684318D01*
X123157646Y-118684323D01*
X123177919Y-118764145D01*
X123206192Y-118875469D01*
X123208609Y-118880712D01*
X123245810Y-118961408D01*
X123291177Y-119059816D01*
X123408333Y-119225589D01*
X123553738Y-119367235D01*
X123722520Y-119480012D01*
X123727823Y-119482290D01*
X123727826Y-119482292D01*
X123859083Y-119538684D01*
X123909028Y-119560142D01*
X123982044Y-119576664D01*
X124101379Y-119603667D01*
X124101384Y-119603668D01*
X124107016Y-119604942D01*
X124112787Y-119605169D01*
X124112789Y-119605169D01*
X124172556Y-119607517D01*
X124309853Y-119612912D01*
X124417148Y-119597355D01*
X124505031Y-119584613D01*
X124505036Y-119584612D01*
X124510745Y-119583784D01*
X124516209Y-119581929D01*
X124516214Y-119581928D01*
X124697493Y-119520392D01*
X124697498Y-119520390D01*
X124702965Y-119518534D01*
X124880076Y-119419347D01*
X124919769Y-119386335D01*
X125031713Y-119293231D01*
X125036145Y-119289545D01*
X125165947Y-119133476D01*
X125265134Y-118956365D01*
X125266990Y-118950898D01*
X125266992Y-118950893D01*
X125328528Y-118769614D01*
X125328529Y-118769609D01*
X125330384Y-118764145D01*
X125331212Y-118758436D01*
X125331213Y-118758431D01*
X125358979Y-118566927D01*
X125359512Y-118563253D01*
X125361032Y-118505200D01*
X125358364Y-118476164D01*
X125682948Y-118476164D01*
X125696224Y-118678722D01*
X125697645Y-118684318D01*
X125697646Y-118684323D01*
X125717919Y-118764145D01*
X125746192Y-118875469D01*
X125748609Y-118880712D01*
X125785810Y-118961408D01*
X125831177Y-119059816D01*
X125948333Y-119225589D01*
X126093738Y-119367235D01*
X126262520Y-119480012D01*
X126267823Y-119482290D01*
X126267826Y-119482292D01*
X126399083Y-119538684D01*
X126449028Y-119560142D01*
X126522044Y-119576664D01*
X126641379Y-119603667D01*
X126641384Y-119603668D01*
X126647016Y-119604942D01*
X126652787Y-119605169D01*
X126652789Y-119605169D01*
X126712556Y-119607517D01*
X126849853Y-119612912D01*
X126957148Y-119597355D01*
X127045031Y-119584613D01*
X127045036Y-119584612D01*
X127050745Y-119583784D01*
X127056209Y-119581929D01*
X127056214Y-119581928D01*
X127237493Y-119520392D01*
X127237498Y-119520390D01*
X127242965Y-119518534D01*
X127420076Y-119419347D01*
X127459769Y-119386335D01*
X127571713Y-119293231D01*
X127576145Y-119289545D01*
X127705947Y-119133476D01*
X127805134Y-118956365D01*
X127806990Y-118950898D01*
X127806992Y-118950893D01*
X127868528Y-118769614D01*
X127868529Y-118769609D01*
X127870384Y-118764145D01*
X127871212Y-118758436D01*
X127871213Y-118758431D01*
X127898979Y-118566927D01*
X127899512Y-118563253D01*
X127901032Y-118505200D01*
X127898364Y-118476164D01*
X128222948Y-118476164D01*
X128236224Y-118678722D01*
X128237645Y-118684318D01*
X128237646Y-118684323D01*
X128257919Y-118764145D01*
X128286192Y-118875469D01*
X128288609Y-118880712D01*
X128325810Y-118961408D01*
X128371177Y-119059816D01*
X128488333Y-119225589D01*
X128633738Y-119367235D01*
X128802520Y-119480012D01*
X128807823Y-119482290D01*
X128807826Y-119482292D01*
X128939083Y-119538684D01*
X128989028Y-119560142D01*
X129062044Y-119576664D01*
X129181379Y-119603667D01*
X129181384Y-119603668D01*
X129187016Y-119604942D01*
X129192787Y-119605169D01*
X129192789Y-119605169D01*
X129252556Y-119607517D01*
X129389853Y-119612912D01*
X129497148Y-119597355D01*
X129585031Y-119584613D01*
X129585036Y-119584612D01*
X129590745Y-119583784D01*
X129596209Y-119581929D01*
X129596214Y-119581928D01*
X129777493Y-119520392D01*
X129777498Y-119520390D01*
X129782965Y-119518534D01*
X129960076Y-119419347D01*
X129999769Y-119386335D01*
X130111713Y-119293231D01*
X130116145Y-119289545D01*
X130245947Y-119133476D01*
X130345134Y-118956365D01*
X130346990Y-118950898D01*
X130346992Y-118950893D01*
X130408528Y-118769614D01*
X130408529Y-118769609D01*
X130410384Y-118764145D01*
X130411212Y-118758436D01*
X130411213Y-118758431D01*
X130438979Y-118566927D01*
X130439512Y-118563253D01*
X130441032Y-118505200D01*
X130438364Y-118476164D01*
X130762948Y-118476164D01*
X130776224Y-118678722D01*
X130777645Y-118684318D01*
X130777646Y-118684323D01*
X130797919Y-118764145D01*
X130826192Y-118875469D01*
X130828609Y-118880712D01*
X130865810Y-118961408D01*
X130911177Y-119059816D01*
X131028333Y-119225589D01*
X131173738Y-119367235D01*
X131342520Y-119480012D01*
X131347823Y-119482290D01*
X131347826Y-119482292D01*
X131479083Y-119538684D01*
X131529028Y-119560142D01*
X131602044Y-119576664D01*
X131721379Y-119603667D01*
X131721384Y-119603668D01*
X131727016Y-119604942D01*
X131732787Y-119605169D01*
X131732789Y-119605169D01*
X131792556Y-119607517D01*
X131929853Y-119612912D01*
X132037148Y-119597355D01*
X132125031Y-119584613D01*
X132125036Y-119584612D01*
X132130745Y-119583784D01*
X132136209Y-119581929D01*
X132136214Y-119581928D01*
X132317493Y-119520392D01*
X132317498Y-119520390D01*
X132322965Y-119518534D01*
X132500076Y-119419347D01*
X132539769Y-119386335D01*
X132651713Y-119293231D01*
X132656145Y-119289545D01*
X132785947Y-119133476D01*
X132885134Y-118956365D01*
X132886990Y-118950898D01*
X132886992Y-118950893D01*
X132948528Y-118769614D01*
X132948529Y-118769609D01*
X132950384Y-118764145D01*
X132951212Y-118758436D01*
X132951213Y-118758431D01*
X132978979Y-118566927D01*
X132979512Y-118563253D01*
X132981032Y-118505200D01*
X132978364Y-118476164D01*
X133302948Y-118476164D01*
X133316224Y-118678722D01*
X133317645Y-118684318D01*
X133317646Y-118684323D01*
X133337919Y-118764145D01*
X133366192Y-118875469D01*
X133368609Y-118880712D01*
X133405810Y-118961408D01*
X133451177Y-119059816D01*
X133568333Y-119225589D01*
X133713738Y-119367235D01*
X133882520Y-119480012D01*
X133887823Y-119482290D01*
X133887826Y-119482292D01*
X134019083Y-119538684D01*
X134069028Y-119560142D01*
X134142044Y-119576664D01*
X134261379Y-119603667D01*
X134261384Y-119603668D01*
X134267016Y-119604942D01*
X134272787Y-119605169D01*
X134272789Y-119605169D01*
X134332556Y-119607517D01*
X134469853Y-119612912D01*
X134577148Y-119597355D01*
X134665031Y-119584613D01*
X134665036Y-119584612D01*
X134670745Y-119583784D01*
X134676209Y-119581929D01*
X134676214Y-119581928D01*
X134857493Y-119520392D01*
X134857498Y-119520390D01*
X134862965Y-119518534D01*
X135040076Y-119419347D01*
X135079769Y-119386335D01*
X135191713Y-119293231D01*
X135196145Y-119289545D01*
X135325947Y-119133476D01*
X135425134Y-118956365D01*
X135426990Y-118950898D01*
X135426992Y-118950893D01*
X135488528Y-118769614D01*
X135488529Y-118769609D01*
X135490384Y-118764145D01*
X135491212Y-118758436D01*
X135491213Y-118758431D01*
X135518979Y-118566927D01*
X135519512Y-118563253D01*
X135521032Y-118505200D01*
X135518364Y-118476164D01*
X135842948Y-118476164D01*
X135856224Y-118678722D01*
X135857645Y-118684318D01*
X135857646Y-118684323D01*
X135877919Y-118764145D01*
X135906192Y-118875469D01*
X135908609Y-118880712D01*
X135945810Y-118961408D01*
X135991177Y-119059816D01*
X136108333Y-119225589D01*
X136253738Y-119367235D01*
X136422520Y-119480012D01*
X136427823Y-119482290D01*
X136427826Y-119482292D01*
X136559083Y-119538684D01*
X136609028Y-119560142D01*
X136682044Y-119576664D01*
X136801379Y-119603667D01*
X136801384Y-119603668D01*
X136807016Y-119604942D01*
X136812787Y-119605169D01*
X136812789Y-119605169D01*
X136872556Y-119607517D01*
X137009853Y-119612912D01*
X137117148Y-119597355D01*
X137205031Y-119584613D01*
X137205036Y-119584612D01*
X137210745Y-119583784D01*
X137216209Y-119581929D01*
X137216214Y-119581928D01*
X137397493Y-119520392D01*
X137397498Y-119520390D01*
X137402965Y-119518534D01*
X137580076Y-119419347D01*
X137619769Y-119386335D01*
X137731713Y-119293231D01*
X137736145Y-119289545D01*
X137865947Y-119133476D01*
X137965134Y-118956365D01*
X137966990Y-118950898D01*
X137966992Y-118950893D01*
X138028528Y-118769614D01*
X138028529Y-118769609D01*
X138030384Y-118764145D01*
X138031212Y-118758436D01*
X138031213Y-118758431D01*
X138058979Y-118566927D01*
X138059512Y-118563253D01*
X138061032Y-118505200D01*
X138058364Y-118476164D01*
X138382948Y-118476164D01*
X138396224Y-118678722D01*
X138397645Y-118684318D01*
X138397646Y-118684323D01*
X138417919Y-118764145D01*
X138446192Y-118875469D01*
X138448609Y-118880712D01*
X138485810Y-118961408D01*
X138531177Y-119059816D01*
X138648333Y-119225589D01*
X138793738Y-119367235D01*
X138962520Y-119480012D01*
X138967823Y-119482290D01*
X138967826Y-119482292D01*
X139099083Y-119538684D01*
X139149028Y-119560142D01*
X139222044Y-119576664D01*
X139341379Y-119603667D01*
X139341384Y-119603668D01*
X139347016Y-119604942D01*
X139352787Y-119605169D01*
X139352789Y-119605169D01*
X139412556Y-119607517D01*
X139549853Y-119612912D01*
X139657148Y-119597355D01*
X139745031Y-119584613D01*
X139745036Y-119584612D01*
X139750745Y-119583784D01*
X139756209Y-119581929D01*
X139756214Y-119581928D01*
X139937493Y-119520392D01*
X139937498Y-119520390D01*
X139942965Y-119518534D01*
X140120076Y-119419347D01*
X140159769Y-119386335D01*
X140271713Y-119293231D01*
X140276145Y-119289545D01*
X140405947Y-119133476D01*
X140505134Y-118956365D01*
X140506990Y-118950898D01*
X140506992Y-118950893D01*
X140568528Y-118769614D01*
X140568529Y-118769609D01*
X140570384Y-118764145D01*
X140571212Y-118758436D01*
X140571213Y-118758431D01*
X140598979Y-118566927D01*
X140599512Y-118563253D01*
X140601032Y-118505200D01*
X140598364Y-118476164D01*
X140922948Y-118476164D01*
X140936224Y-118678722D01*
X140937645Y-118684318D01*
X140937646Y-118684323D01*
X140957919Y-118764145D01*
X140986192Y-118875469D01*
X140988609Y-118880712D01*
X141025810Y-118961408D01*
X141071177Y-119059816D01*
X141188333Y-119225589D01*
X141333738Y-119367235D01*
X141502520Y-119480012D01*
X141507823Y-119482290D01*
X141507826Y-119482292D01*
X141639083Y-119538684D01*
X141689028Y-119560142D01*
X141762044Y-119576664D01*
X141881379Y-119603667D01*
X141881384Y-119603668D01*
X141887016Y-119604942D01*
X141892787Y-119605169D01*
X141892789Y-119605169D01*
X141952556Y-119607517D01*
X142089853Y-119612912D01*
X142197148Y-119597355D01*
X142285031Y-119584613D01*
X142285036Y-119584612D01*
X142290745Y-119583784D01*
X142296209Y-119581929D01*
X142296214Y-119581928D01*
X142477493Y-119520392D01*
X142477498Y-119520390D01*
X142482965Y-119518534D01*
X142660076Y-119419347D01*
X142699769Y-119386335D01*
X142811713Y-119293231D01*
X142816145Y-119289545D01*
X142945947Y-119133476D01*
X143045134Y-118956365D01*
X143046990Y-118950898D01*
X143046992Y-118950893D01*
X143108528Y-118769614D01*
X143108529Y-118769609D01*
X143110384Y-118764145D01*
X143111212Y-118758436D01*
X143111213Y-118758431D01*
X143138979Y-118566927D01*
X143139512Y-118563253D01*
X143141032Y-118505200D01*
X143138364Y-118476164D01*
X143462948Y-118476164D01*
X143476224Y-118678722D01*
X143477645Y-118684318D01*
X143477646Y-118684323D01*
X143497919Y-118764145D01*
X143526192Y-118875469D01*
X143528609Y-118880712D01*
X143565810Y-118961408D01*
X143611177Y-119059816D01*
X143728333Y-119225589D01*
X143873738Y-119367235D01*
X144042520Y-119480012D01*
X144047823Y-119482290D01*
X144047826Y-119482292D01*
X144179083Y-119538684D01*
X144229028Y-119560142D01*
X144302044Y-119576664D01*
X144421379Y-119603667D01*
X144421384Y-119603668D01*
X144427016Y-119604942D01*
X144432787Y-119605169D01*
X144432789Y-119605169D01*
X144492556Y-119607517D01*
X144629853Y-119612912D01*
X144737148Y-119597355D01*
X144825031Y-119584613D01*
X144825036Y-119584612D01*
X144830745Y-119583784D01*
X144836209Y-119581929D01*
X144836214Y-119581928D01*
X145017493Y-119520392D01*
X145017498Y-119520390D01*
X145022965Y-119518534D01*
X145200076Y-119419347D01*
X145239769Y-119386335D01*
X145351713Y-119293231D01*
X145356145Y-119289545D01*
X145485947Y-119133476D01*
X145585134Y-118956365D01*
X145586990Y-118950898D01*
X145586992Y-118950893D01*
X145648528Y-118769614D01*
X145648529Y-118769609D01*
X145650384Y-118764145D01*
X145651212Y-118758436D01*
X145651213Y-118758431D01*
X145678979Y-118566927D01*
X145679512Y-118563253D01*
X145681032Y-118505200D01*
X145678364Y-118476164D01*
X146002948Y-118476164D01*
X146016224Y-118678722D01*
X146017645Y-118684318D01*
X146017646Y-118684323D01*
X146037919Y-118764145D01*
X146066192Y-118875469D01*
X146068609Y-118880712D01*
X146105810Y-118961408D01*
X146151177Y-119059816D01*
X146268333Y-119225589D01*
X146413738Y-119367235D01*
X146582520Y-119480012D01*
X146587823Y-119482290D01*
X146587826Y-119482292D01*
X146719083Y-119538684D01*
X146769028Y-119560142D01*
X146842044Y-119576664D01*
X146961379Y-119603667D01*
X146961384Y-119603668D01*
X146967016Y-119604942D01*
X146972787Y-119605169D01*
X146972789Y-119605169D01*
X147032556Y-119607517D01*
X147169853Y-119612912D01*
X147277148Y-119597355D01*
X147365031Y-119584613D01*
X147365036Y-119584612D01*
X147370745Y-119583784D01*
X147376209Y-119581929D01*
X147376214Y-119581928D01*
X147557493Y-119520392D01*
X147557498Y-119520390D01*
X147562965Y-119518534D01*
X147740076Y-119419347D01*
X147779769Y-119386335D01*
X147891713Y-119293231D01*
X147896145Y-119289545D01*
X148025947Y-119133476D01*
X148125134Y-118956365D01*
X148126990Y-118950898D01*
X148126992Y-118950893D01*
X148188528Y-118769614D01*
X148188529Y-118769609D01*
X148190384Y-118764145D01*
X148191212Y-118758436D01*
X148191213Y-118758431D01*
X148218979Y-118566927D01*
X148219512Y-118563253D01*
X148221032Y-118505200D01*
X148218364Y-118476164D01*
X148542948Y-118476164D01*
X148556224Y-118678722D01*
X148557645Y-118684318D01*
X148557646Y-118684323D01*
X148577919Y-118764145D01*
X148606192Y-118875469D01*
X148608609Y-118880712D01*
X148645810Y-118961408D01*
X148691177Y-119059816D01*
X148808333Y-119225589D01*
X148953738Y-119367235D01*
X149122520Y-119480012D01*
X149127823Y-119482290D01*
X149127826Y-119482292D01*
X149259083Y-119538684D01*
X149309028Y-119560142D01*
X149382044Y-119576664D01*
X149501379Y-119603667D01*
X149501384Y-119603668D01*
X149507016Y-119604942D01*
X149512787Y-119605169D01*
X149512789Y-119605169D01*
X149572556Y-119607517D01*
X149709853Y-119612912D01*
X149817148Y-119597355D01*
X149905031Y-119584613D01*
X149905036Y-119584612D01*
X149910745Y-119583784D01*
X149916209Y-119581929D01*
X149916214Y-119581928D01*
X150097493Y-119520392D01*
X150097498Y-119520390D01*
X150102965Y-119518534D01*
X150280076Y-119419347D01*
X150319769Y-119386335D01*
X150431713Y-119293231D01*
X150436145Y-119289545D01*
X150565947Y-119133476D01*
X150665134Y-118956365D01*
X150666990Y-118950898D01*
X150666992Y-118950893D01*
X150728528Y-118769614D01*
X150728529Y-118769609D01*
X150730384Y-118764145D01*
X150731212Y-118758436D01*
X150731213Y-118758431D01*
X150758979Y-118566927D01*
X150759512Y-118563253D01*
X150761032Y-118505200D01*
X150758364Y-118476164D01*
X151082948Y-118476164D01*
X151096224Y-118678722D01*
X151097645Y-118684318D01*
X151097646Y-118684323D01*
X151117919Y-118764145D01*
X151146192Y-118875469D01*
X151148609Y-118880712D01*
X151185810Y-118961408D01*
X151231177Y-119059816D01*
X151348333Y-119225589D01*
X151493738Y-119367235D01*
X151662520Y-119480012D01*
X151667823Y-119482290D01*
X151667826Y-119482292D01*
X151799083Y-119538684D01*
X151849028Y-119560142D01*
X151922044Y-119576664D01*
X152041379Y-119603667D01*
X152041384Y-119603668D01*
X152047016Y-119604942D01*
X152052787Y-119605169D01*
X152052789Y-119605169D01*
X152112556Y-119607517D01*
X152249853Y-119612912D01*
X152357148Y-119597355D01*
X152445031Y-119584613D01*
X152445036Y-119584612D01*
X152450745Y-119583784D01*
X152456209Y-119581929D01*
X152456214Y-119581928D01*
X152637493Y-119520392D01*
X152637498Y-119520390D01*
X152642965Y-119518534D01*
X152820076Y-119419347D01*
X152859769Y-119386335D01*
X152971713Y-119293231D01*
X152976145Y-119289545D01*
X153105947Y-119133476D01*
X153205134Y-118956365D01*
X153206990Y-118950898D01*
X153206992Y-118950893D01*
X153268528Y-118769614D01*
X153268529Y-118769609D01*
X153270384Y-118764145D01*
X153271212Y-118758436D01*
X153271213Y-118758431D01*
X153298979Y-118566927D01*
X153299512Y-118563253D01*
X153301032Y-118505200D01*
X153298364Y-118476164D01*
X153622948Y-118476164D01*
X153636224Y-118678722D01*
X153637645Y-118684318D01*
X153637646Y-118684323D01*
X153657919Y-118764145D01*
X153686192Y-118875469D01*
X153688609Y-118880712D01*
X153725810Y-118961408D01*
X153771177Y-119059816D01*
X153888333Y-119225589D01*
X154033738Y-119367235D01*
X154202520Y-119480012D01*
X154207823Y-119482290D01*
X154207826Y-119482292D01*
X154339083Y-119538684D01*
X154389028Y-119560142D01*
X154462044Y-119576664D01*
X154581379Y-119603667D01*
X154581384Y-119603668D01*
X154587016Y-119604942D01*
X154592787Y-119605169D01*
X154592789Y-119605169D01*
X154652556Y-119607517D01*
X154789853Y-119612912D01*
X154897148Y-119597355D01*
X154985031Y-119584613D01*
X154985036Y-119584612D01*
X154990745Y-119583784D01*
X154996209Y-119581929D01*
X154996214Y-119581928D01*
X155177493Y-119520392D01*
X155177498Y-119520390D01*
X155182965Y-119518534D01*
X155360076Y-119419347D01*
X155399769Y-119386335D01*
X155511713Y-119293231D01*
X155516145Y-119289545D01*
X155645947Y-119133476D01*
X155745134Y-118956365D01*
X155746990Y-118950898D01*
X155746992Y-118950893D01*
X155808528Y-118769614D01*
X155808529Y-118769609D01*
X155810384Y-118764145D01*
X155811212Y-118758436D01*
X155811213Y-118758431D01*
X155838979Y-118566927D01*
X155839512Y-118563253D01*
X155841032Y-118505200D01*
X155838364Y-118476164D01*
X156162948Y-118476164D01*
X156176224Y-118678722D01*
X156177645Y-118684318D01*
X156177646Y-118684323D01*
X156197919Y-118764145D01*
X156226192Y-118875469D01*
X156228609Y-118880712D01*
X156265810Y-118961408D01*
X156311177Y-119059816D01*
X156428333Y-119225589D01*
X156573738Y-119367235D01*
X156742520Y-119480012D01*
X156747823Y-119482290D01*
X156747826Y-119482292D01*
X156879083Y-119538684D01*
X156929028Y-119560142D01*
X157002044Y-119576664D01*
X157121379Y-119603667D01*
X157121384Y-119603668D01*
X157127016Y-119604942D01*
X157132787Y-119605169D01*
X157132789Y-119605169D01*
X157192556Y-119607517D01*
X157329853Y-119612912D01*
X157437148Y-119597355D01*
X157525031Y-119584613D01*
X157525036Y-119584612D01*
X157530745Y-119583784D01*
X157536209Y-119581929D01*
X157536214Y-119581928D01*
X157717493Y-119520392D01*
X157717498Y-119520390D01*
X157722965Y-119518534D01*
X157900076Y-119419347D01*
X157939769Y-119386335D01*
X158051713Y-119293231D01*
X158056145Y-119289545D01*
X158185947Y-119133476D01*
X158285134Y-118956365D01*
X158286990Y-118950898D01*
X158286992Y-118950893D01*
X158348528Y-118769614D01*
X158348529Y-118769609D01*
X158350384Y-118764145D01*
X158351212Y-118758436D01*
X158351213Y-118758431D01*
X158378979Y-118566927D01*
X158379512Y-118563253D01*
X158381032Y-118505200D01*
X158378364Y-118476164D01*
X158702948Y-118476164D01*
X158716224Y-118678722D01*
X158717645Y-118684318D01*
X158717646Y-118684323D01*
X158737919Y-118764145D01*
X158766192Y-118875469D01*
X158768609Y-118880712D01*
X158805810Y-118961408D01*
X158851177Y-119059816D01*
X158968333Y-119225589D01*
X159113738Y-119367235D01*
X159282520Y-119480012D01*
X159287823Y-119482290D01*
X159287826Y-119482292D01*
X159419083Y-119538684D01*
X159469028Y-119560142D01*
X159542044Y-119576664D01*
X159661379Y-119603667D01*
X159661384Y-119603668D01*
X159667016Y-119604942D01*
X159672787Y-119605169D01*
X159672789Y-119605169D01*
X159732556Y-119607517D01*
X159869853Y-119612912D01*
X159977148Y-119597355D01*
X160065031Y-119584613D01*
X160065036Y-119584612D01*
X160070745Y-119583784D01*
X160076209Y-119581929D01*
X160076214Y-119581928D01*
X160257493Y-119520392D01*
X160257498Y-119520390D01*
X160262965Y-119518534D01*
X160440076Y-119419347D01*
X160479769Y-119386335D01*
X160591713Y-119293231D01*
X160596145Y-119289545D01*
X160725947Y-119133476D01*
X160825134Y-118956365D01*
X160826990Y-118950898D01*
X160826992Y-118950893D01*
X160888528Y-118769614D01*
X160888529Y-118769609D01*
X160890384Y-118764145D01*
X160891212Y-118758436D01*
X160891213Y-118758431D01*
X160918979Y-118566927D01*
X160919512Y-118563253D01*
X160921032Y-118505200D01*
X160918364Y-118476164D01*
X161242948Y-118476164D01*
X161256224Y-118678722D01*
X161257645Y-118684318D01*
X161257646Y-118684323D01*
X161277919Y-118764145D01*
X161306192Y-118875469D01*
X161308609Y-118880712D01*
X161345810Y-118961408D01*
X161391177Y-119059816D01*
X161508333Y-119225589D01*
X161653738Y-119367235D01*
X161822520Y-119480012D01*
X161827823Y-119482290D01*
X161827826Y-119482292D01*
X161959083Y-119538684D01*
X162009028Y-119560142D01*
X162082044Y-119576664D01*
X162201379Y-119603667D01*
X162201384Y-119603668D01*
X162207016Y-119604942D01*
X162212787Y-119605169D01*
X162212789Y-119605169D01*
X162272556Y-119607517D01*
X162409853Y-119612912D01*
X162517148Y-119597355D01*
X162605031Y-119584613D01*
X162605036Y-119584612D01*
X162610745Y-119583784D01*
X162616209Y-119581929D01*
X162616214Y-119581928D01*
X162797493Y-119520392D01*
X162797498Y-119520390D01*
X162802965Y-119518534D01*
X162980076Y-119419347D01*
X163019769Y-119386335D01*
X163131713Y-119293231D01*
X163136145Y-119289545D01*
X163265947Y-119133476D01*
X163365134Y-118956365D01*
X163366990Y-118950898D01*
X163366992Y-118950893D01*
X163428528Y-118769614D01*
X163428529Y-118769609D01*
X163430384Y-118764145D01*
X163431212Y-118758436D01*
X163431213Y-118758431D01*
X163458979Y-118566927D01*
X163459512Y-118563253D01*
X163461032Y-118505200D01*
X163442458Y-118303059D01*
X163440890Y-118297499D01*
X163388925Y-118113246D01*
X163388924Y-118113244D01*
X163387357Y-118107687D01*
X163376778Y-118086233D01*
X163300131Y-117930809D01*
X163297576Y-117925628D01*
X163176120Y-117762979D01*
X163032409Y-117630133D01*
X163787300Y-117630133D01*
X163787301Y-119380266D01*
X163802066Y-119454501D01*
X163808961Y-119464820D01*
X163808962Y-119464822D01*
X163849316Y-119525215D01*
X163858316Y-119538684D01*
X163942499Y-119594934D01*
X164016733Y-119609700D01*
X164891658Y-119609700D01*
X165766866Y-119609699D01*
X165802618Y-119602588D01*
X165828926Y-119597356D01*
X165828928Y-119597355D01*
X165841101Y-119594934D01*
X165851421Y-119588039D01*
X165851422Y-119588038D01*
X165914968Y-119545577D01*
X165925284Y-119538684D01*
X165981534Y-119454501D01*
X165996300Y-119380267D01*
X165996299Y-117630134D01*
X165981534Y-117555899D01*
X165955454Y-117516867D01*
X165932177Y-117482032D01*
X165925284Y-117471716D01*
X165841101Y-117415466D01*
X165766867Y-117400700D01*
X164891942Y-117400700D01*
X164016734Y-117400701D01*
X163980982Y-117407812D01*
X163954674Y-117413044D01*
X163954672Y-117413045D01*
X163942499Y-117415466D01*
X163932179Y-117422361D01*
X163932178Y-117422362D01*
X163871785Y-117462716D01*
X163858316Y-117471716D01*
X163802066Y-117555899D01*
X163787300Y-117630133D01*
X163032409Y-117630133D01*
X163027058Y-117625187D01*
X163022175Y-117622106D01*
X163022171Y-117622103D01*
X162860264Y-117519948D01*
X162855381Y-117516867D01*
X162666839Y-117441646D01*
X162661179Y-117440520D01*
X162661175Y-117440519D01*
X162473413Y-117403171D01*
X162473410Y-117403171D01*
X162467746Y-117402044D01*
X162461971Y-117401968D01*
X162461967Y-117401968D01*
X162360593Y-117400641D01*
X162264771Y-117399387D01*
X162259074Y-117400366D01*
X162259073Y-117400366D01*
X162171197Y-117415466D01*
X162064710Y-117433764D01*
X161874263Y-117504024D01*
X161699810Y-117607812D01*
X161695470Y-117611618D01*
X161695466Y-117611621D01*
X161551533Y-117737848D01*
X161547192Y-117741655D01*
X161421520Y-117901069D01*
X161418831Y-117906180D01*
X161418829Y-117906183D01*
X161405873Y-117930809D01*
X161327003Y-118080715D01*
X161266807Y-118274578D01*
X161242948Y-118476164D01*
X160918364Y-118476164D01*
X160902458Y-118303059D01*
X160900890Y-118297499D01*
X160848925Y-118113246D01*
X160848924Y-118113244D01*
X160847357Y-118107687D01*
X160836778Y-118086233D01*
X160760131Y-117930809D01*
X160757576Y-117925628D01*
X160636120Y-117762979D01*
X160487058Y-117625187D01*
X160482175Y-117622106D01*
X160482171Y-117622103D01*
X160320264Y-117519948D01*
X160315381Y-117516867D01*
X160126839Y-117441646D01*
X160121179Y-117440520D01*
X160121175Y-117440519D01*
X159933413Y-117403171D01*
X159933410Y-117403171D01*
X159927746Y-117402044D01*
X159921971Y-117401968D01*
X159921967Y-117401968D01*
X159820593Y-117400641D01*
X159724771Y-117399387D01*
X159719074Y-117400366D01*
X159719073Y-117400366D01*
X159631197Y-117415466D01*
X159524710Y-117433764D01*
X159334263Y-117504024D01*
X159159810Y-117607812D01*
X159155470Y-117611618D01*
X159155466Y-117611621D01*
X159011533Y-117737848D01*
X159007192Y-117741655D01*
X158881520Y-117901069D01*
X158878831Y-117906180D01*
X158878829Y-117906183D01*
X158865873Y-117930809D01*
X158787003Y-118080715D01*
X158726807Y-118274578D01*
X158702948Y-118476164D01*
X158378364Y-118476164D01*
X158362458Y-118303059D01*
X158360890Y-118297499D01*
X158308925Y-118113246D01*
X158308924Y-118113244D01*
X158307357Y-118107687D01*
X158296778Y-118086233D01*
X158220131Y-117930809D01*
X158217576Y-117925628D01*
X158096120Y-117762979D01*
X157947058Y-117625187D01*
X157942175Y-117622106D01*
X157942171Y-117622103D01*
X157780264Y-117519948D01*
X157775381Y-117516867D01*
X157586839Y-117441646D01*
X157581179Y-117440520D01*
X157581175Y-117440519D01*
X157393413Y-117403171D01*
X157393410Y-117403171D01*
X157387746Y-117402044D01*
X157381971Y-117401968D01*
X157381967Y-117401968D01*
X157280593Y-117400641D01*
X157184771Y-117399387D01*
X157179074Y-117400366D01*
X157179073Y-117400366D01*
X157091197Y-117415466D01*
X156984710Y-117433764D01*
X156794263Y-117504024D01*
X156619810Y-117607812D01*
X156615470Y-117611618D01*
X156615466Y-117611621D01*
X156471533Y-117737848D01*
X156467192Y-117741655D01*
X156341520Y-117901069D01*
X156338831Y-117906180D01*
X156338829Y-117906183D01*
X156325873Y-117930809D01*
X156247003Y-118080715D01*
X156186807Y-118274578D01*
X156162948Y-118476164D01*
X155838364Y-118476164D01*
X155822458Y-118303059D01*
X155820890Y-118297499D01*
X155768925Y-118113246D01*
X155768924Y-118113244D01*
X155767357Y-118107687D01*
X155756778Y-118086233D01*
X155680131Y-117930809D01*
X155677576Y-117925628D01*
X155556120Y-117762979D01*
X155407058Y-117625187D01*
X155402175Y-117622106D01*
X155402171Y-117622103D01*
X155240264Y-117519948D01*
X155235381Y-117516867D01*
X155046839Y-117441646D01*
X155041179Y-117440520D01*
X155041175Y-117440519D01*
X154853413Y-117403171D01*
X154853410Y-117403171D01*
X154847746Y-117402044D01*
X154841971Y-117401968D01*
X154841967Y-117401968D01*
X154740593Y-117400641D01*
X154644771Y-117399387D01*
X154639074Y-117400366D01*
X154639073Y-117400366D01*
X154551197Y-117415466D01*
X154444710Y-117433764D01*
X154254263Y-117504024D01*
X154079810Y-117607812D01*
X154075470Y-117611618D01*
X154075466Y-117611621D01*
X153931533Y-117737848D01*
X153927192Y-117741655D01*
X153801520Y-117901069D01*
X153798831Y-117906180D01*
X153798829Y-117906183D01*
X153785873Y-117930809D01*
X153707003Y-118080715D01*
X153646807Y-118274578D01*
X153622948Y-118476164D01*
X153298364Y-118476164D01*
X153282458Y-118303059D01*
X153280890Y-118297499D01*
X153228925Y-118113246D01*
X153228924Y-118113244D01*
X153227357Y-118107687D01*
X153216778Y-118086233D01*
X153140131Y-117930809D01*
X153137576Y-117925628D01*
X153016120Y-117762979D01*
X152867058Y-117625187D01*
X152862175Y-117622106D01*
X152862171Y-117622103D01*
X152700264Y-117519948D01*
X152695381Y-117516867D01*
X152506839Y-117441646D01*
X152501179Y-117440520D01*
X152501175Y-117440519D01*
X152313413Y-117403171D01*
X152313410Y-117403171D01*
X152307746Y-117402044D01*
X152301971Y-117401968D01*
X152301967Y-117401968D01*
X152200593Y-117400641D01*
X152104771Y-117399387D01*
X152099074Y-117400366D01*
X152099073Y-117400366D01*
X152011197Y-117415466D01*
X151904710Y-117433764D01*
X151714263Y-117504024D01*
X151539810Y-117607812D01*
X151535470Y-117611618D01*
X151535466Y-117611621D01*
X151391533Y-117737848D01*
X151387192Y-117741655D01*
X151261520Y-117901069D01*
X151258831Y-117906180D01*
X151258829Y-117906183D01*
X151245873Y-117930809D01*
X151167003Y-118080715D01*
X151106807Y-118274578D01*
X151082948Y-118476164D01*
X150758364Y-118476164D01*
X150742458Y-118303059D01*
X150740890Y-118297499D01*
X150688925Y-118113246D01*
X150688924Y-118113244D01*
X150687357Y-118107687D01*
X150676778Y-118086233D01*
X150600131Y-117930809D01*
X150597576Y-117925628D01*
X150476120Y-117762979D01*
X150327058Y-117625187D01*
X150322175Y-117622106D01*
X150322171Y-117622103D01*
X150160264Y-117519948D01*
X150155381Y-117516867D01*
X149966839Y-117441646D01*
X149961179Y-117440520D01*
X149961175Y-117440519D01*
X149773413Y-117403171D01*
X149773410Y-117403171D01*
X149767746Y-117402044D01*
X149761971Y-117401968D01*
X149761967Y-117401968D01*
X149660593Y-117400641D01*
X149564771Y-117399387D01*
X149559074Y-117400366D01*
X149559073Y-117400366D01*
X149471197Y-117415466D01*
X149364710Y-117433764D01*
X149174263Y-117504024D01*
X148999810Y-117607812D01*
X148995470Y-117611618D01*
X148995466Y-117611621D01*
X148851533Y-117737848D01*
X148847192Y-117741655D01*
X148721520Y-117901069D01*
X148718831Y-117906180D01*
X148718829Y-117906183D01*
X148705873Y-117930809D01*
X148627003Y-118080715D01*
X148566807Y-118274578D01*
X148542948Y-118476164D01*
X148218364Y-118476164D01*
X148202458Y-118303059D01*
X148200890Y-118297499D01*
X148148925Y-118113246D01*
X148148924Y-118113244D01*
X148147357Y-118107687D01*
X148136778Y-118086233D01*
X148060131Y-117930809D01*
X148057576Y-117925628D01*
X147936120Y-117762979D01*
X147787058Y-117625187D01*
X147782175Y-117622106D01*
X147782171Y-117622103D01*
X147620264Y-117519948D01*
X147615381Y-117516867D01*
X147426839Y-117441646D01*
X147421179Y-117440520D01*
X147421175Y-117440519D01*
X147233413Y-117403171D01*
X147233410Y-117403171D01*
X147227746Y-117402044D01*
X147221971Y-117401968D01*
X147221967Y-117401968D01*
X147120593Y-117400641D01*
X147024771Y-117399387D01*
X147019074Y-117400366D01*
X147019073Y-117400366D01*
X146931197Y-117415466D01*
X146824710Y-117433764D01*
X146634263Y-117504024D01*
X146459810Y-117607812D01*
X146455470Y-117611618D01*
X146455466Y-117611621D01*
X146311533Y-117737848D01*
X146307192Y-117741655D01*
X146181520Y-117901069D01*
X146178831Y-117906180D01*
X146178829Y-117906183D01*
X146165873Y-117930809D01*
X146087003Y-118080715D01*
X146026807Y-118274578D01*
X146002948Y-118476164D01*
X145678364Y-118476164D01*
X145662458Y-118303059D01*
X145660890Y-118297499D01*
X145608925Y-118113246D01*
X145608924Y-118113244D01*
X145607357Y-118107687D01*
X145596778Y-118086233D01*
X145520131Y-117930809D01*
X145517576Y-117925628D01*
X145396120Y-117762979D01*
X145247058Y-117625187D01*
X145242175Y-117622106D01*
X145242171Y-117622103D01*
X145080264Y-117519948D01*
X145075381Y-117516867D01*
X144886839Y-117441646D01*
X144881179Y-117440520D01*
X144881175Y-117440519D01*
X144693413Y-117403171D01*
X144693410Y-117403171D01*
X144687746Y-117402044D01*
X144681971Y-117401968D01*
X144681967Y-117401968D01*
X144580593Y-117400641D01*
X144484771Y-117399387D01*
X144479074Y-117400366D01*
X144479073Y-117400366D01*
X144391197Y-117415466D01*
X144284710Y-117433764D01*
X144094263Y-117504024D01*
X143919810Y-117607812D01*
X143915470Y-117611618D01*
X143915466Y-117611621D01*
X143771533Y-117737848D01*
X143767192Y-117741655D01*
X143641520Y-117901069D01*
X143638831Y-117906180D01*
X143638829Y-117906183D01*
X143625873Y-117930809D01*
X143547003Y-118080715D01*
X143486807Y-118274578D01*
X143462948Y-118476164D01*
X143138364Y-118476164D01*
X143122458Y-118303059D01*
X143120890Y-118297499D01*
X143068925Y-118113246D01*
X143068924Y-118113244D01*
X143067357Y-118107687D01*
X143056778Y-118086233D01*
X142980131Y-117930809D01*
X142977576Y-117925628D01*
X142856120Y-117762979D01*
X142707058Y-117625187D01*
X142702175Y-117622106D01*
X142702171Y-117622103D01*
X142540264Y-117519948D01*
X142535381Y-117516867D01*
X142346839Y-117441646D01*
X142341179Y-117440520D01*
X142341175Y-117440519D01*
X142153413Y-117403171D01*
X142153410Y-117403171D01*
X142147746Y-117402044D01*
X142141971Y-117401968D01*
X142141967Y-117401968D01*
X142040593Y-117400641D01*
X141944771Y-117399387D01*
X141939074Y-117400366D01*
X141939073Y-117400366D01*
X141851197Y-117415466D01*
X141744710Y-117433764D01*
X141554263Y-117504024D01*
X141379810Y-117607812D01*
X141375470Y-117611618D01*
X141375466Y-117611621D01*
X141231533Y-117737848D01*
X141227192Y-117741655D01*
X141101520Y-117901069D01*
X141098831Y-117906180D01*
X141098829Y-117906183D01*
X141085873Y-117930809D01*
X141007003Y-118080715D01*
X140946807Y-118274578D01*
X140922948Y-118476164D01*
X140598364Y-118476164D01*
X140582458Y-118303059D01*
X140580890Y-118297499D01*
X140528925Y-118113246D01*
X140528924Y-118113244D01*
X140527357Y-118107687D01*
X140516778Y-118086233D01*
X140440131Y-117930809D01*
X140437576Y-117925628D01*
X140316120Y-117762979D01*
X140167058Y-117625187D01*
X140162175Y-117622106D01*
X140162171Y-117622103D01*
X140000264Y-117519948D01*
X139995381Y-117516867D01*
X139806839Y-117441646D01*
X139801179Y-117440520D01*
X139801175Y-117440519D01*
X139613413Y-117403171D01*
X139613410Y-117403171D01*
X139607746Y-117402044D01*
X139601971Y-117401968D01*
X139601967Y-117401968D01*
X139500593Y-117400641D01*
X139404771Y-117399387D01*
X139399074Y-117400366D01*
X139399073Y-117400366D01*
X139311197Y-117415466D01*
X139204710Y-117433764D01*
X139014263Y-117504024D01*
X138839810Y-117607812D01*
X138835470Y-117611618D01*
X138835466Y-117611621D01*
X138691533Y-117737848D01*
X138687192Y-117741655D01*
X138561520Y-117901069D01*
X138558831Y-117906180D01*
X138558829Y-117906183D01*
X138545873Y-117930809D01*
X138467003Y-118080715D01*
X138406807Y-118274578D01*
X138382948Y-118476164D01*
X138058364Y-118476164D01*
X138042458Y-118303059D01*
X138040890Y-118297499D01*
X137988925Y-118113246D01*
X137988924Y-118113244D01*
X137987357Y-118107687D01*
X137976778Y-118086233D01*
X137900131Y-117930809D01*
X137897576Y-117925628D01*
X137776120Y-117762979D01*
X137627058Y-117625187D01*
X137622175Y-117622106D01*
X137622171Y-117622103D01*
X137460264Y-117519948D01*
X137455381Y-117516867D01*
X137266839Y-117441646D01*
X137261179Y-117440520D01*
X137261175Y-117440519D01*
X137073413Y-117403171D01*
X137073410Y-117403171D01*
X137067746Y-117402044D01*
X137061971Y-117401968D01*
X137061967Y-117401968D01*
X136960593Y-117400641D01*
X136864771Y-117399387D01*
X136859074Y-117400366D01*
X136859073Y-117400366D01*
X136771197Y-117415466D01*
X136664710Y-117433764D01*
X136474263Y-117504024D01*
X136299810Y-117607812D01*
X136295470Y-117611618D01*
X136295466Y-117611621D01*
X136151533Y-117737848D01*
X136147192Y-117741655D01*
X136021520Y-117901069D01*
X136018831Y-117906180D01*
X136018829Y-117906183D01*
X136005873Y-117930809D01*
X135927003Y-118080715D01*
X135866807Y-118274578D01*
X135842948Y-118476164D01*
X135518364Y-118476164D01*
X135502458Y-118303059D01*
X135500890Y-118297499D01*
X135448925Y-118113246D01*
X135448924Y-118113244D01*
X135447357Y-118107687D01*
X135436778Y-118086233D01*
X135360131Y-117930809D01*
X135357576Y-117925628D01*
X135236120Y-117762979D01*
X135087058Y-117625187D01*
X135082175Y-117622106D01*
X135082171Y-117622103D01*
X134920264Y-117519948D01*
X134915381Y-117516867D01*
X134726839Y-117441646D01*
X134721179Y-117440520D01*
X134721175Y-117440519D01*
X134533413Y-117403171D01*
X134533410Y-117403171D01*
X134527746Y-117402044D01*
X134521971Y-117401968D01*
X134521967Y-117401968D01*
X134420593Y-117400641D01*
X134324771Y-117399387D01*
X134319074Y-117400366D01*
X134319073Y-117400366D01*
X134231197Y-117415466D01*
X134124710Y-117433764D01*
X133934263Y-117504024D01*
X133759810Y-117607812D01*
X133755470Y-117611618D01*
X133755466Y-117611621D01*
X133611533Y-117737848D01*
X133607192Y-117741655D01*
X133481520Y-117901069D01*
X133478831Y-117906180D01*
X133478829Y-117906183D01*
X133465873Y-117930809D01*
X133387003Y-118080715D01*
X133326807Y-118274578D01*
X133302948Y-118476164D01*
X132978364Y-118476164D01*
X132962458Y-118303059D01*
X132960890Y-118297499D01*
X132908925Y-118113246D01*
X132908924Y-118113244D01*
X132907357Y-118107687D01*
X132896778Y-118086233D01*
X132820131Y-117930809D01*
X132817576Y-117925628D01*
X132696120Y-117762979D01*
X132547058Y-117625187D01*
X132542175Y-117622106D01*
X132542171Y-117622103D01*
X132380264Y-117519948D01*
X132375381Y-117516867D01*
X132186839Y-117441646D01*
X132181179Y-117440520D01*
X132181175Y-117440519D01*
X131993413Y-117403171D01*
X131993410Y-117403171D01*
X131987746Y-117402044D01*
X131981971Y-117401968D01*
X131981967Y-117401968D01*
X131880593Y-117400641D01*
X131784771Y-117399387D01*
X131779074Y-117400366D01*
X131779073Y-117400366D01*
X131691197Y-117415466D01*
X131584710Y-117433764D01*
X131394263Y-117504024D01*
X131219810Y-117607812D01*
X131215470Y-117611618D01*
X131215466Y-117611621D01*
X131071533Y-117737848D01*
X131067192Y-117741655D01*
X130941520Y-117901069D01*
X130938831Y-117906180D01*
X130938829Y-117906183D01*
X130925873Y-117930809D01*
X130847003Y-118080715D01*
X130786807Y-118274578D01*
X130762948Y-118476164D01*
X130438364Y-118476164D01*
X130422458Y-118303059D01*
X130420890Y-118297499D01*
X130368925Y-118113246D01*
X130368924Y-118113244D01*
X130367357Y-118107687D01*
X130356778Y-118086233D01*
X130280131Y-117930809D01*
X130277576Y-117925628D01*
X130156120Y-117762979D01*
X130007058Y-117625187D01*
X130002175Y-117622106D01*
X130002171Y-117622103D01*
X129840264Y-117519948D01*
X129835381Y-117516867D01*
X129646839Y-117441646D01*
X129641179Y-117440520D01*
X129641175Y-117440519D01*
X129453413Y-117403171D01*
X129453410Y-117403171D01*
X129447746Y-117402044D01*
X129441971Y-117401968D01*
X129441967Y-117401968D01*
X129340593Y-117400641D01*
X129244771Y-117399387D01*
X129239074Y-117400366D01*
X129239073Y-117400366D01*
X129151197Y-117415466D01*
X129044710Y-117433764D01*
X128854263Y-117504024D01*
X128679810Y-117607812D01*
X128675470Y-117611618D01*
X128675466Y-117611621D01*
X128531533Y-117737848D01*
X128527192Y-117741655D01*
X128401520Y-117901069D01*
X128398831Y-117906180D01*
X128398829Y-117906183D01*
X128385873Y-117930809D01*
X128307003Y-118080715D01*
X128246807Y-118274578D01*
X128222948Y-118476164D01*
X127898364Y-118476164D01*
X127882458Y-118303059D01*
X127880890Y-118297499D01*
X127828925Y-118113246D01*
X127828924Y-118113244D01*
X127827357Y-118107687D01*
X127816778Y-118086233D01*
X127740131Y-117930809D01*
X127737576Y-117925628D01*
X127616120Y-117762979D01*
X127467058Y-117625187D01*
X127462175Y-117622106D01*
X127462171Y-117622103D01*
X127300264Y-117519948D01*
X127295381Y-117516867D01*
X127106839Y-117441646D01*
X127101179Y-117440520D01*
X127101175Y-117440519D01*
X126913413Y-117403171D01*
X126913410Y-117403171D01*
X126907746Y-117402044D01*
X126901971Y-117401968D01*
X126901967Y-117401968D01*
X126800593Y-117400641D01*
X126704771Y-117399387D01*
X126699074Y-117400366D01*
X126699073Y-117400366D01*
X126611197Y-117415466D01*
X126504710Y-117433764D01*
X126314263Y-117504024D01*
X126139810Y-117607812D01*
X126135470Y-117611618D01*
X126135466Y-117611621D01*
X125991533Y-117737848D01*
X125987192Y-117741655D01*
X125861520Y-117901069D01*
X125858831Y-117906180D01*
X125858829Y-117906183D01*
X125845873Y-117930809D01*
X125767003Y-118080715D01*
X125706807Y-118274578D01*
X125682948Y-118476164D01*
X125358364Y-118476164D01*
X125342458Y-118303059D01*
X125340890Y-118297499D01*
X125288925Y-118113246D01*
X125288924Y-118113244D01*
X125287357Y-118107687D01*
X125276778Y-118086233D01*
X125200131Y-117930809D01*
X125197576Y-117925628D01*
X125076120Y-117762979D01*
X124927058Y-117625187D01*
X124922175Y-117622106D01*
X124922171Y-117622103D01*
X124760264Y-117519948D01*
X124755381Y-117516867D01*
X124566839Y-117441646D01*
X124561179Y-117440520D01*
X124561175Y-117440519D01*
X124373413Y-117403171D01*
X124373410Y-117403171D01*
X124367746Y-117402044D01*
X124361971Y-117401968D01*
X124361967Y-117401968D01*
X124260593Y-117400641D01*
X124164771Y-117399387D01*
X124159074Y-117400366D01*
X124159073Y-117400366D01*
X124071197Y-117415466D01*
X123964710Y-117433764D01*
X123774263Y-117504024D01*
X123599810Y-117607812D01*
X123595470Y-117611618D01*
X123595466Y-117611621D01*
X123451533Y-117737848D01*
X123447192Y-117741655D01*
X123321520Y-117901069D01*
X123318831Y-117906180D01*
X123318829Y-117906183D01*
X123305873Y-117930809D01*
X123227003Y-118080715D01*
X123166807Y-118274578D01*
X123142948Y-118476164D01*
X122818364Y-118476164D01*
X122802458Y-118303059D01*
X122800890Y-118297499D01*
X122748925Y-118113246D01*
X122748924Y-118113244D01*
X122747357Y-118107687D01*
X122736778Y-118086233D01*
X122660131Y-117930809D01*
X122657576Y-117925628D01*
X122536120Y-117762979D01*
X122387058Y-117625187D01*
X122382175Y-117622106D01*
X122382171Y-117622103D01*
X122220264Y-117519948D01*
X122215381Y-117516867D01*
X122026839Y-117441646D01*
X122021179Y-117440520D01*
X122021175Y-117440519D01*
X121833413Y-117403171D01*
X121833410Y-117403171D01*
X121827746Y-117402044D01*
X121821971Y-117401968D01*
X121821967Y-117401968D01*
X121720593Y-117400641D01*
X121624771Y-117399387D01*
X121619074Y-117400366D01*
X121619073Y-117400366D01*
X121531197Y-117415466D01*
X121424710Y-117433764D01*
X121234263Y-117504024D01*
X121059810Y-117607812D01*
X121055470Y-117611618D01*
X121055466Y-117611621D01*
X120911533Y-117737848D01*
X120907192Y-117741655D01*
X120781520Y-117901069D01*
X120778831Y-117906180D01*
X120778829Y-117906183D01*
X120765873Y-117930809D01*
X120687003Y-118080715D01*
X120626807Y-118274578D01*
X120602948Y-118476164D01*
X120278364Y-118476164D01*
X120262458Y-118303059D01*
X120260890Y-118297499D01*
X120208925Y-118113246D01*
X120208924Y-118113244D01*
X120207357Y-118107687D01*
X120196778Y-118086233D01*
X120120131Y-117930809D01*
X120117576Y-117925628D01*
X119996120Y-117762979D01*
X119847058Y-117625187D01*
X119842175Y-117622106D01*
X119842171Y-117622103D01*
X119680264Y-117519948D01*
X119675381Y-117516867D01*
X119486839Y-117441646D01*
X119481179Y-117440520D01*
X119481175Y-117440519D01*
X119293413Y-117403171D01*
X119293410Y-117403171D01*
X119287746Y-117402044D01*
X119281971Y-117401968D01*
X119281967Y-117401968D01*
X119180593Y-117400641D01*
X119084771Y-117399387D01*
X119079074Y-117400366D01*
X119079073Y-117400366D01*
X118991197Y-117415466D01*
X118884710Y-117433764D01*
X118694263Y-117504024D01*
X118519810Y-117607812D01*
X118515470Y-117611618D01*
X118515466Y-117611621D01*
X118371533Y-117737848D01*
X118367192Y-117741655D01*
X118241520Y-117901069D01*
X118238831Y-117906180D01*
X118238829Y-117906183D01*
X118225873Y-117930809D01*
X118147003Y-118080715D01*
X118086807Y-118274578D01*
X118062948Y-118476164D01*
X117738364Y-118476164D01*
X117722458Y-118303059D01*
X117720890Y-118297499D01*
X117668925Y-118113246D01*
X117668924Y-118113244D01*
X117667357Y-118107687D01*
X117656778Y-118086233D01*
X117580131Y-117930809D01*
X117577576Y-117925628D01*
X117456120Y-117762979D01*
X117307058Y-117625187D01*
X117302175Y-117622106D01*
X117302171Y-117622103D01*
X117140264Y-117519948D01*
X117135381Y-117516867D01*
X116946839Y-117441646D01*
X116941179Y-117440520D01*
X116941175Y-117440519D01*
X116753413Y-117403171D01*
X116753410Y-117403171D01*
X116747746Y-117402044D01*
X116741971Y-117401968D01*
X116741967Y-117401968D01*
X116640593Y-117400641D01*
X116544771Y-117399387D01*
X116539074Y-117400366D01*
X116539073Y-117400366D01*
X116451197Y-117415466D01*
X116344710Y-117433764D01*
X116154263Y-117504024D01*
X115979810Y-117607812D01*
X115975470Y-117611618D01*
X115975466Y-117611621D01*
X115831533Y-117737848D01*
X115827192Y-117741655D01*
X115701520Y-117901069D01*
X115698831Y-117906180D01*
X115698829Y-117906183D01*
X115685873Y-117930809D01*
X115607003Y-118080715D01*
X115546807Y-118274578D01*
X115522948Y-118476164D01*
X115226376Y-118476164D01*
X115226376Y-108207296D01*
X146685929Y-108207296D01*
X146703313Y-108364753D01*
X146757753Y-108513519D01*
X146846108Y-108645005D01*
X146851727Y-108650118D01*
X146851728Y-108650119D01*
X146863103Y-108660469D01*
X146963276Y-108751619D01*
X147102493Y-108827208D01*
X147255722Y-108867407D01*
X147339677Y-108868726D01*
X147406519Y-108869776D01*
X147406522Y-108869776D01*
X147414116Y-108869895D01*
X147568532Y-108834529D01*
X147638942Y-108799117D01*
X147703272Y-108766763D01*
X147703275Y-108766761D01*
X147710055Y-108763351D01*
X147715826Y-108758422D01*
X147715829Y-108758420D01*
X147824736Y-108665404D01*
X147824736Y-108665403D01*
X147830514Y-108660469D01*
X147922955Y-108531824D01*
X147982042Y-108384841D01*
X148004362Y-108228007D01*
X148004507Y-108214200D01*
X147985476Y-108056933D01*
X147929480Y-107908746D01*
X147866149Y-107816598D01*
X147844055Y-107784451D01*
X147844054Y-107784449D01*
X147839753Y-107778192D01*
X147721475Y-107672811D01*
X147714089Y-107668900D01*
X147588188Y-107602239D01*
X147588189Y-107602239D01*
X147581474Y-107598684D01*
X147427833Y-107560092D01*
X147420234Y-107560052D01*
X147420233Y-107560052D01*
X147354381Y-107559707D01*
X147269421Y-107559262D01*
X147262041Y-107561034D01*
X147262039Y-107561034D01*
X147122763Y-107594471D01*
X147122760Y-107594472D01*
X147115384Y-107596243D01*
X146974614Y-107668900D01*
X146855239Y-107773038D01*
X146764150Y-107902644D01*
X146735378Y-107976441D01*
X146709837Y-108041951D01*
X146706606Y-108050237D01*
X146705614Y-108057770D01*
X146705614Y-108057771D01*
X146693894Y-108146799D01*
X146685929Y-108207296D01*
X115226376Y-108207296D01*
X115226376Y-107485896D01*
X134240129Y-107485896D01*
X134257513Y-107643353D01*
X134260123Y-107650484D01*
X134260123Y-107650486D01*
X134306857Y-107778192D01*
X134311953Y-107792119D01*
X134400308Y-107923605D01*
X134405927Y-107928718D01*
X134405928Y-107928719D01*
X134417303Y-107939069D01*
X134517476Y-108030219D01*
X134656693Y-108105808D01*
X134809922Y-108146007D01*
X134893877Y-108147326D01*
X134960719Y-108148376D01*
X134960722Y-108148376D01*
X134968316Y-108148495D01*
X135122732Y-108113129D01*
X135219475Y-108064473D01*
X135257472Y-108045363D01*
X135257475Y-108045361D01*
X135264255Y-108041951D01*
X135270026Y-108037022D01*
X135270029Y-108037020D01*
X135378936Y-107944004D01*
X135378936Y-107944003D01*
X135384714Y-107939069D01*
X135477155Y-107810424D01*
X135536242Y-107663441D01*
X135558562Y-107506607D01*
X135558707Y-107492800D01*
X135539676Y-107335533D01*
X135483680Y-107187346D01*
X135393953Y-107056792D01*
X135275675Y-106951411D01*
X135268289Y-106947500D01*
X135142388Y-106880839D01*
X135142389Y-106880839D01*
X135135674Y-106877284D01*
X134982033Y-106838692D01*
X134974434Y-106838652D01*
X134974433Y-106838652D01*
X134908581Y-106838307D01*
X134823621Y-106837862D01*
X134816241Y-106839634D01*
X134816239Y-106839634D01*
X134676963Y-106873071D01*
X134676960Y-106873072D01*
X134669584Y-106874843D01*
X134528814Y-106947500D01*
X134409439Y-107051638D01*
X134318350Y-107181244D01*
X134260806Y-107328837D01*
X134240129Y-107485896D01*
X115226376Y-107485896D01*
X115226376Y-103333857D01*
X115246378Y-103265736D01*
X115300034Y-103219243D01*
X115370308Y-103209139D01*
X115434888Y-103238633D01*
X115474499Y-103302841D01*
X115489592Y-103362269D01*
X115492009Y-103367512D01*
X115563785Y-103523207D01*
X115574577Y-103546616D01*
X115577910Y-103551332D01*
X115658130Y-103664841D01*
X115691733Y-103712389D01*
X115695875Y-103716424D01*
X115752837Y-103771913D01*
X115837138Y-103854035D01*
X116005920Y-103966812D01*
X116011223Y-103969090D01*
X116011226Y-103969092D01*
X116165195Y-104035242D01*
X116192428Y-104046942D01*
X116245200Y-104058883D01*
X116384779Y-104090467D01*
X116384784Y-104090468D01*
X116390416Y-104091742D01*
X116396187Y-104091969D01*
X116396189Y-104091969D01*
X116455956Y-104094317D01*
X116593253Y-104099712D01*
X116693699Y-104085148D01*
X116788431Y-104071413D01*
X116788436Y-104071412D01*
X116794145Y-104070584D01*
X116799609Y-104068729D01*
X116799614Y-104068728D01*
X116980893Y-104007192D01*
X116980898Y-104007190D01*
X116986365Y-104005334D01*
X116992210Y-104002061D01*
X117060883Y-103963602D01*
X117163476Y-103906147D01*
X117226134Y-103854035D01*
X117315113Y-103780031D01*
X117319545Y-103776345D01*
X117406416Y-103671895D01*
X117445653Y-103624718D01*
X117445655Y-103624715D01*
X117449347Y-103620276D01*
X117523580Y-103487724D01*
X117523820Y-103487296D01*
X121375929Y-103487296D01*
X121381899Y-103541371D01*
X121390611Y-103620276D01*
X121393313Y-103644753D01*
X121395923Y-103651884D01*
X121395923Y-103651886D01*
X121440353Y-103773296D01*
X121447753Y-103793519D01*
X121451989Y-103799822D01*
X121451989Y-103799823D01*
X121520954Y-103902453D01*
X121536108Y-103925005D01*
X121541727Y-103930118D01*
X121541728Y-103930119D01*
X121584559Y-103969092D01*
X121653276Y-104031619D01*
X121792493Y-104107208D01*
X121945722Y-104147407D01*
X122029677Y-104148726D01*
X122096519Y-104149776D01*
X122096522Y-104149776D01*
X122104116Y-104149895D01*
X122258532Y-104114529D01*
X122344043Y-104071522D01*
X122393272Y-104046763D01*
X122393275Y-104046761D01*
X122400055Y-104043351D01*
X122405826Y-104038422D01*
X122405829Y-104038420D01*
X122514736Y-103945404D01*
X122514736Y-103945403D01*
X122520514Y-103940469D01*
X122612955Y-103811824D01*
X122672042Y-103664841D01*
X122694362Y-103508007D01*
X122694507Y-103494200D01*
X122688262Y-103442594D01*
X137389729Y-103442594D01*
X137396951Y-103508007D01*
X137401214Y-103546616D01*
X137407113Y-103600051D01*
X137409723Y-103607182D01*
X137409723Y-103607184D01*
X137430823Y-103664841D01*
X137461553Y-103748817D01*
X137465789Y-103755120D01*
X137465789Y-103755121D01*
X137534414Y-103857245D01*
X137549908Y-103880303D01*
X137555527Y-103885416D01*
X137555528Y-103885417D01*
X137641453Y-103963602D01*
X137667076Y-103986917D01*
X137806293Y-104062506D01*
X137959522Y-104102705D01*
X138043477Y-104104024D01*
X138110319Y-104105074D01*
X138110322Y-104105074D01*
X138117916Y-104105193D01*
X138272332Y-104069827D01*
X138358461Y-104026509D01*
X138407072Y-104002061D01*
X138407075Y-104002059D01*
X138413855Y-103998649D01*
X138419626Y-103993720D01*
X138419629Y-103993718D01*
X138528536Y-103900702D01*
X138528536Y-103900701D01*
X138534314Y-103895767D01*
X138626755Y-103767122D01*
X138685842Y-103620139D01*
X138695490Y-103552347D01*
X138724891Y-103487724D01*
X138784562Y-103449255D01*
X138855558Y-103449153D01*
X138880355Y-103459369D01*
X138917220Y-103479385D01*
X138923893Y-103483008D01*
X139077122Y-103523207D01*
X139161077Y-103524526D01*
X139227919Y-103525576D01*
X139227922Y-103525576D01*
X139235516Y-103525695D01*
X139389932Y-103490329D01*
X139483708Y-103443165D01*
X139524672Y-103422563D01*
X139524675Y-103422561D01*
X139531455Y-103419151D01*
X139537226Y-103414222D01*
X139537229Y-103414220D01*
X139646136Y-103321204D01*
X139646136Y-103321203D01*
X139651914Y-103316269D01*
X139652668Y-103317152D01*
X139707217Y-103284327D01*
X139778183Y-103286420D01*
X139823935Y-103313023D01*
X139922060Y-103402309D01*
X139927676Y-103407419D01*
X140066893Y-103483008D01*
X140220122Y-103523207D01*
X140304077Y-103524526D01*
X140370919Y-103525576D01*
X140370922Y-103525576D01*
X140378516Y-103525695D01*
X140532932Y-103490329D01*
X140626708Y-103443165D01*
X140667672Y-103422563D01*
X140667675Y-103422561D01*
X140674455Y-103419151D01*
X140680226Y-103414222D01*
X140680229Y-103414220D01*
X140789136Y-103321204D01*
X140789136Y-103321203D01*
X140794914Y-103316269D01*
X140887355Y-103187624D01*
X140946442Y-103040641D01*
X140957823Y-102960669D01*
X140968181Y-102887891D01*
X140968181Y-102887888D01*
X140968762Y-102883807D01*
X140968835Y-102876834D01*
X140968864Y-102874134D01*
X140968864Y-102874128D01*
X140968907Y-102870000D01*
X140949876Y-102712733D01*
X140893880Y-102564546D01*
X140854671Y-102507496D01*
X148921329Y-102507496D01*
X148926268Y-102552228D01*
X148937233Y-102651546D01*
X148938713Y-102664953D01*
X148941323Y-102672084D01*
X148941323Y-102672086D01*
X148986446Y-102795390D01*
X148993153Y-102813719D01*
X148997389Y-102820022D01*
X148997389Y-102820023D01*
X149056581Y-102908109D01*
X149081508Y-102945205D01*
X149087127Y-102950318D01*
X149087128Y-102950319D01*
X149178120Y-103033115D01*
X149198676Y-103051819D01*
X149337893Y-103127408D01*
X149491122Y-103167607D01*
X149575077Y-103168926D01*
X149641919Y-103169976D01*
X149641922Y-103169976D01*
X149649516Y-103170095D01*
X149803932Y-103134729D01*
X149874342Y-103099317D01*
X149938672Y-103066963D01*
X149938675Y-103066961D01*
X149945455Y-103063551D01*
X149951226Y-103058622D01*
X149951229Y-103058620D01*
X150060136Y-102965604D01*
X150060136Y-102965603D01*
X150065914Y-102960669D01*
X150158355Y-102832024D01*
X150217442Y-102685041D01*
X150230329Y-102594487D01*
X150239181Y-102532291D01*
X150239181Y-102532288D01*
X150239762Y-102528207D01*
X150239907Y-102514400D01*
X150220876Y-102357133D01*
X150164880Y-102208946D01*
X150075153Y-102078392D01*
X149956875Y-101973011D01*
X149949489Y-101969100D01*
X149823588Y-101902439D01*
X149823589Y-101902439D01*
X149816874Y-101898884D01*
X149663233Y-101860292D01*
X149655634Y-101860252D01*
X149655633Y-101860252D01*
X149589781Y-101859907D01*
X149504821Y-101859462D01*
X149497441Y-101861234D01*
X149497439Y-101861234D01*
X149358163Y-101894671D01*
X149358160Y-101894672D01*
X149350784Y-101896443D01*
X149210014Y-101969100D01*
X149090639Y-102073238D01*
X148999550Y-102202844D01*
X148970778Y-102276641D01*
X148948546Y-102333664D01*
X148942006Y-102350437D01*
X148941014Y-102357970D01*
X148941014Y-102357971D01*
X148927855Y-102457929D01*
X148921329Y-102507496D01*
X140854671Y-102507496D01*
X140849495Y-102499965D01*
X140808455Y-102440251D01*
X140808454Y-102440249D01*
X140804153Y-102433992D01*
X140685875Y-102328611D01*
X140678489Y-102324700D01*
X140552588Y-102258039D01*
X140552589Y-102258039D01*
X140545874Y-102254484D01*
X140392233Y-102215892D01*
X140384634Y-102215852D01*
X140384633Y-102215852D01*
X140318781Y-102215507D01*
X140233821Y-102215062D01*
X140226441Y-102216834D01*
X140226439Y-102216834D01*
X140087163Y-102250271D01*
X140087160Y-102250272D01*
X140079784Y-102252043D01*
X139939014Y-102324700D01*
X139933297Y-102329687D01*
X139933290Y-102329692D01*
X139820345Y-102428221D01*
X139755863Y-102457929D01*
X139685556Y-102448059D01*
X139653697Y-102427349D01*
X139575828Y-102357971D01*
X139542875Y-102328611D01*
X139535489Y-102324700D01*
X139409588Y-102258039D01*
X139409589Y-102258039D01*
X139402874Y-102254484D01*
X139249233Y-102215892D01*
X139241634Y-102215852D01*
X139241633Y-102215852D01*
X139175781Y-102215507D01*
X139090821Y-102215062D01*
X139083441Y-102216834D01*
X139083439Y-102216834D01*
X138944163Y-102250271D01*
X138944160Y-102250272D01*
X138936784Y-102252043D01*
X138796014Y-102324700D01*
X138676639Y-102428838D01*
X138585550Y-102558444D01*
X138569330Y-102600046D01*
X138533442Y-102692095D01*
X138528006Y-102706037D01*
X138527014Y-102713570D01*
X138527014Y-102713571D01*
X138520105Y-102766051D01*
X138491383Y-102830978D01*
X138432117Y-102870070D01*
X138361126Y-102870915D01*
X138336229Y-102860961D01*
X138285274Y-102833982D01*
X138131633Y-102795390D01*
X138124034Y-102795350D01*
X138124033Y-102795350D01*
X138058181Y-102795005D01*
X137973221Y-102794560D01*
X137965841Y-102796332D01*
X137965839Y-102796332D01*
X137826563Y-102829769D01*
X137826560Y-102829770D01*
X137819184Y-102831541D01*
X137678414Y-102904198D01*
X137559039Y-103008336D01*
X137467950Y-103137942D01*
X137410406Y-103285535D01*
X137409414Y-103293068D01*
X137409414Y-103293069D01*
X137393883Y-103411042D01*
X137389729Y-103442594D01*
X122688262Y-103442594D01*
X122675476Y-103336933D01*
X122619480Y-103188746D01*
X122603519Y-103165522D01*
X122534055Y-103064451D01*
X122534054Y-103064449D01*
X122529753Y-103058192D01*
X122411475Y-102952811D01*
X122404089Y-102948900D01*
X122288863Y-102887891D01*
X122271474Y-102878684D01*
X122117833Y-102840092D01*
X122110234Y-102840052D01*
X122110233Y-102840052D01*
X122044381Y-102839707D01*
X121959421Y-102839262D01*
X121952041Y-102841034D01*
X121952039Y-102841034D01*
X121812763Y-102874471D01*
X121812760Y-102874472D01*
X121805384Y-102876243D01*
X121664614Y-102948900D01*
X121545239Y-103053038D01*
X121454150Y-103182644D01*
X121449432Y-103194745D01*
X121400128Y-103321204D01*
X121396606Y-103330237D01*
X121395614Y-103337770D01*
X121395614Y-103337771D01*
X121379606Y-103459369D01*
X121375929Y-103487296D01*
X117523820Y-103487296D01*
X117545710Y-103448208D01*
X117545711Y-103448206D01*
X117548534Y-103443165D01*
X117550390Y-103437698D01*
X117550392Y-103437693D01*
X117611928Y-103256414D01*
X117611929Y-103256409D01*
X117613784Y-103250945D01*
X117614612Y-103245236D01*
X117614613Y-103245231D01*
X117641732Y-103058192D01*
X117642912Y-103050053D01*
X117644432Y-102992000D01*
X117630401Y-102839302D01*
X117626387Y-102795613D01*
X117626386Y-102795610D01*
X117625858Y-102789859D01*
X117622098Y-102776526D01*
X117572325Y-102600046D01*
X117572324Y-102600044D01*
X117570757Y-102594487D01*
X117560178Y-102573033D01*
X117483531Y-102417609D01*
X117480976Y-102412428D01*
X117359520Y-102249779D01*
X117210458Y-102111987D01*
X117205575Y-102108906D01*
X117205571Y-102108903D01*
X117043664Y-102006748D01*
X117038781Y-102003667D01*
X116850239Y-101928446D01*
X116844579Y-101927320D01*
X116844575Y-101927319D01*
X116656813Y-101889971D01*
X116656810Y-101889971D01*
X116651146Y-101888844D01*
X116645371Y-101888768D01*
X116645367Y-101888768D01*
X116543993Y-101887441D01*
X116448171Y-101886187D01*
X116442474Y-101887166D01*
X116442473Y-101887166D01*
X116253807Y-101919585D01*
X116248110Y-101920564D01*
X116057663Y-101990824D01*
X115883210Y-102094612D01*
X115878870Y-102098418D01*
X115878866Y-102098421D01*
X115752838Y-102208946D01*
X115730592Y-102228455D01*
X115604920Y-102387869D01*
X115602231Y-102392980D01*
X115602229Y-102392983D01*
X115577360Y-102440251D01*
X115510403Y-102567515D01*
X115502028Y-102594487D01*
X115472709Y-102688910D01*
X115433406Y-102748035D01*
X115368376Y-102776526D01*
X115298267Y-102765336D01*
X115245337Y-102718019D01*
X115226376Y-102651546D01*
X115226376Y-101488776D01*
X115246378Y-101420655D01*
X115300034Y-101374162D01*
X115370308Y-101364058D01*
X115434888Y-101393552D01*
X115457139Y-101418771D01*
X115501716Y-101485484D01*
X115585899Y-101541734D01*
X115660133Y-101556500D01*
X116535058Y-101556500D01*
X117410266Y-101556499D01*
X117446018Y-101549388D01*
X117472326Y-101544156D01*
X117472328Y-101544155D01*
X117484501Y-101541734D01*
X117494821Y-101534839D01*
X117494822Y-101534838D01*
X117558368Y-101492377D01*
X117568684Y-101485484D01*
X117624934Y-101401301D01*
X117639700Y-101327067D01*
X117639700Y-101034296D01*
X162281729Y-101034296D01*
X162299113Y-101191753D01*
X162353553Y-101340519D01*
X162357789Y-101346822D01*
X162357789Y-101346823D01*
X162406138Y-101418773D01*
X162441908Y-101472005D01*
X162447527Y-101477118D01*
X162447528Y-101477119D01*
X162521200Y-101544155D01*
X162559076Y-101578619D01*
X162698293Y-101654208D01*
X162851522Y-101694407D01*
X162935477Y-101695726D01*
X163002319Y-101696776D01*
X163002322Y-101696776D01*
X163009916Y-101696895D01*
X163164332Y-101661529D01*
X163234742Y-101626117D01*
X163299072Y-101593763D01*
X163299075Y-101593761D01*
X163305855Y-101590351D01*
X163311626Y-101585422D01*
X163311629Y-101585420D01*
X163420536Y-101492404D01*
X163420536Y-101492403D01*
X163426314Y-101487469D01*
X163518755Y-101358824D01*
X163577842Y-101211841D01*
X163600162Y-101055007D01*
X163600307Y-101041200D01*
X163581276Y-100883933D01*
X163525280Y-100735746D01*
X163435553Y-100605192D01*
X163317275Y-100499811D01*
X163309889Y-100495900D01*
X163183988Y-100429239D01*
X163183989Y-100429239D01*
X163177274Y-100425684D01*
X163023633Y-100387092D01*
X163016034Y-100387052D01*
X163016033Y-100387052D01*
X162950181Y-100386707D01*
X162865221Y-100386262D01*
X162857841Y-100388034D01*
X162857839Y-100388034D01*
X162718563Y-100421471D01*
X162718560Y-100421472D01*
X162711184Y-100423243D01*
X162570414Y-100495900D01*
X162451039Y-100600038D01*
X162359950Y-100729644D01*
X162302406Y-100877237D01*
X162281729Y-101034296D01*
X117639700Y-101034296D01*
X117639699Y-99916696D01*
X129769729Y-99916696D01*
X129787113Y-100074153D01*
X129841553Y-100222919D01*
X129929908Y-100354405D01*
X129935527Y-100359518D01*
X129935528Y-100359519D01*
X129965787Y-100387052D01*
X130047076Y-100461019D01*
X130186293Y-100536608D01*
X130339522Y-100576807D01*
X130423477Y-100578126D01*
X130490319Y-100579176D01*
X130490322Y-100579176D01*
X130497916Y-100579295D01*
X130652332Y-100543929D01*
X130730005Y-100504864D01*
X130787072Y-100476163D01*
X130787075Y-100476161D01*
X130793855Y-100472751D01*
X130799626Y-100467822D01*
X130799629Y-100467820D01*
X130908536Y-100374804D01*
X130908536Y-100374803D01*
X130914314Y-100369869D01*
X131006755Y-100241224D01*
X131065842Y-100094241D01*
X131088162Y-99937407D01*
X131088307Y-99923600D01*
X131069276Y-99766333D01*
X131013280Y-99618146D01*
X131004814Y-99605828D01*
X130927855Y-99493851D01*
X130927854Y-99493849D01*
X130923553Y-99487592D01*
X130805275Y-99382211D01*
X130797889Y-99378300D01*
X130671988Y-99311639D01*
X130671989Y-99311639D01*
X130665274Y-99308084D01*
X130511633Y-99269492D01*
X130504034Y-99269452D01*
X130504033Y-99269452D01*
X130438181Y-99269107D01*
X130353221Y-99268662D01*
X130345841Y-99270434D01*
X130345839Y-99270434D01*
X130206563Y-99303871D01*
X130206560Y-99303872D01*
X130199184Y-99305643D01*
X130058414Y-99378300D01*
X129939039Y-99482438D01*
X129847950Y-99612044D01*
X129790406Y-99759637D01*
X129769729Y-99916696D01*
X117639699Y-99916696D01*
X117639699Y-99576934D01*
X117624934Y-99502699D01*
X117613260Y-99485227D01*
X117575577Y-99428832D01*
X117568684Y-99418516D01*
X117484501Y-99362266D01*
X117410267Y-99347500D01*
X116535342Y-99347500D01*
X115660134Y-99347501D01*
X115624382Y-99354612D01*
X115598074Y-99359844D01*
X115598072Y-99359845D01*
X115585899Y-99362266D01*
X115575579Y-99369161D01*
X115575578Y-99369162D01*
X115554436Y-99383289D01*
X115501716Y-99418516D01*
X115457141Y-99485227D01*
X115402663Y-99530754D01*
X115332220Y-99539601D01*
X115268176Y-99508960D01*
X115230865Y-99448558D01*
X115226376Y-99415224D01*
X115226376Y-97071896D01*
X129769729Y-97071896D01*
X129787113Y-97229353D01*
X129841553Y-97378119D01*
X129929908Y-97509605D01*
X129935527Y-97514718D01*
X129935528Y-97514719D01*
X129946903Y-97525069D01*
X130047076Y-97616219D01*
X130186293Y-97691808D01*
X130339522Y-97732007D01*
X130423477Y-97733326D01*
X130490319Y-97734376D01*
X130490322Y-97734376D01*
X130497916Y-97734495D01*
X130652332Y-97699129D01*
X130722742Y-97663717D01*
X130787072Y-97631363D01*
X130787075Y-97631361D01*
X130793855Y-97627951D01*
X130799626Y-97623022D01*
X130799629Y-97623020D01*
X130908536Y-97530004D01*
X130908536Y-97530003D01*
X130914314Y-97525069D01*
X131006755Y-97396424D01*
X131065842Y-97249441D01*
X131088162Y-97092607D01*
X131088307Y-97078800D01*
X131069276Y-96921533D01*
X131013280Y-96773346D01*
X130923553Y-96642792D01*
X130805275Y-96537411D01*
X130797889Y-96533500D01*
X130671988Y-96466839D01*
X130671989Y-96466839D01*
X130665274Y-96463284D01*
X130511633Y-96424692D01*
X130504034Y-96424652D01*
X130504033Y-96424652D01*
X130438181Y-96424307D01*
X130353221Y-96423862D01*
X130345841Y-96425634D01*
X130345839Y-96425634D01*
X130206563Y-96459071D01*
X130206560Y-96459072D01*
X130199184Y-96460843D01*
X130058414Y-96533500D01*
X129939039Y-96637638D01*
X129847950Y-96767244D01*
X129790406Y-96914837D01*
X129769729Y-97071896D01*
X115226376Y-97071896D01*
X115226376Y-94697857D01*
X115246378Y-94629736D01*
X115300034Y-94583243D01*
X115370308Y-94573139D01*
X115434888Y-94602633D01*
X115474499Y-94666841D01*
X115474914Y-94668473D01*
X115489592Y-94726269D01*
X115492009Y-94731512D01*
X115536436Y-94827882D01*
X115574577Y-94910616D01*
X115691733Y-95076389D01*
X115695875Y-95080424D01*
X115740426Y-95123823D01*
X115837138Y-95218035D01*
X116005920Y-95330812D01*
X116011223Y-95333090D01*
X116011226Y-95333092D01*
X116099907Y-95371192D01*
X116192428Y-95410942D01*
X116265444Y-95427464D01*
X116384779Y-95454467D01*
X116384784Y-95454468D01*
X116390416Y-95455742D01*
X116396187Y-95455969D01*
X116396189Y-95455969D01*
X116455956Y-95458317D01*
X116593253Y-95463712D01*
X116693699Y-95449148D01*
X116788431Y-95435413D01*
X116788436Y-95435412D01*
X116794145Y-95434584D01*
X116799609Y-95432729D01*
X116799614Y-95432728D01*
X116980893Y-95371192D01*
X116980898Y-95371190D01*
X116986365Y-95369334D01*
X117019980Y-95350509D01*
X117060883Y-95327602D01*
X117163476Y-95270147D01*
X117177727Y-95258295D01*
X117315113Y-95144031D01*
X117319545Y-95140345D01*
X117439684Y-94995895D01*
X117445653Y-94988718D01*
X117445655Y-94988715D01*
X117449347Y-94984276D01*
X117540039Y-94822334D01*
X117545710Y-94812208D01*
X117545711Y-94812206D01*
X117546221Y-94811296D01*
X160452929Y-94811296D01*
X160470313Y-94968753D01*
X160472923Y-94975884D01*
X160472923Y-94975886D01*
X160509702Y-95076389D01*
X160524753Y-95117519D01*
X160613108Y-95249005D01*
X160618727Y-95254118D01*
X160618728Y-95254119D01*
X160703013Y-95330812D01*
X160730276Y-95355619D01*
X160869493Y-95431208D01*
X161022722Y-95471407D01*
X161106677Y-95472726D01*
X161173519Y-95473776D01*
X161173522Y-95473776D01*
X161181116Y-95473895D01*
X161335532Y-95438529D01*
X161405942Y-95403117D01*
X161470272Y-95370763D01*
X161470275Y-95370761D01*
X161477055Y-95367351D01*
X161482826Y-95362422D01*
X161482829Y-95362420D01*
X161591736Y-95269404D01*
X161591736Y-95269403D01*
X161597514Y-95264469D01*
X161689955Y-95135824D01*
X161749042Y-94988841D01*
X161771362Y-94832007D01*
X161771507Y-94818200D01*
X161769510Y-94801693D01*
X161767302Y-94783454D01*
X161752476Y-94660933D01*
X161696480Y-94512746D01*
X161688014Y-94500428D01*
X161611055Y-94388451D01*
X161611054Y-94388449D01*
X161606753Y-94382192D01*
X161488475Y-94276811D01*
X161481089Y-94272900D01*
X161355188Y-94206239D01*
X161355189Y-94206239D01*
X161348474Y-94202684D01*
X161194833Y-94164092D01*
X161187234Y-94164052D01*
X161187233Y-94164052D01*
X161121381Y-94163707D01*
X161036421Y-94163262D01*
X161029041Y-94165034D01*
X161029039Y-94165034D01*
X160889763Y-94198471D01*
X160889760Y-94198472D01*
X160882384Y-94200243D01*
X160741614Y-94272900D01*
X160622239Y-94377038D01*
X160531150Y-94506644D01*
X160520951Y-94532804D01*
X160481433Y-94634163D01*
X160473606Y-94654237D01*
X160472614Y-94661770D01*
X160472614Y-94661771D01*
X160462895Y-94735599D01*
X160452929Y-94811296D01*
X117546221Y-94811296D01*
X117548534Y-94807165D01*
X117550390Y-94801698D01*
X117550392Y-94801693D01*
X117611928Y-94620414D01*
X117611929Y-94620409D01*
X117613784Y-94614945D01*
X117614612Y-94609236D01*
X117614613Y-94609231D01*
X117642379Y-94417727D01*
X117642912Y-94414053D01*
X117644432Y-94356000D01*
X117629957Y-94198471D01*
X117626387Y-94159613D01*
X117626386Y-94159610D01*
X117625858Y-94153859D01*
X117618942Y-94129336D01*
X117603532Y-94074696D01*
X145492329Y-94074696D01*
X145497925Y-94125378D01*
X145502112Y-94163302D01*
X145509713Y-94232153D01*
X145512323Y-94239284D01*
X145512323Y-94239286D01*
X145556390Y-94359704D01*
X145564153Y-94380919D01*
X145652508Y-94512405D01*
X145658127Y-94517518D01*
X145658128Y-94517519D01*
X145669503Y-94527869D01*
X145769676Y-94619019D01*
X145908893Y-94694608D01*
X146062122Y-94734807D01*
X146146077Y-94736126D01*
X146212919Y-94737176D01*
X146212922Y-94737176D01*
X146220516Y-94737295D01*
X146374932Y-94701929D01*
X146469758Y-94654237D01*
X146509672Y-94634163D01*
X146509675Y-94634161D01*
X146516455Y-94630751D01*
X146522226Y-94625822D01*
X146522229Y-94625820D01*
X146631136Y-94532804D01*
X146631136Y-94532803D01*
X146636914Y-94527869D01*
X146729355Y-94399224D01*
X146788442Y-94252241D01*
X146800993Y-94164052D01*
X146810181Y-94099491D01*
X146810181Y-94099488D01*
X146810762Y-94095407D01*
X146810907Y-94081600D01*
X146791876Y-93924333D01*
X146735880Y-93776146D01*
X146698100Y-93721176D01*
X146650455Y-93651851D01*
X146650454Y-93651849D01*
X146646153Y-93645592D01*
X146527875Y-93540211D01*
X146520489Y-93536300D01*
X146433232Y-93490100D01*
X146387874Y-93466084D01*
X146234233Y-93427492D01*
X146226634Y-93427452D01*
X146226633Y-93427452D01*
X146160781Y-93427107D01*
X146075821Y-93426662D01*
X146068441Y-93428434D01*
X146068439Y-93428434D01*
X145929163Y-93461871D01*
X145929160Y-93461872D01*
X145921784Y-93463643D01*
X145781014Y-93536300D01*
X145661639Y-93640438D01*
X145570550Y-93770044D01*
X145513006Y-93917637D01*
X145492329Y-94074696D01*
X117603532Y-94074696D01*
X117572325Y-93964046D01*
X117572324Y-93964044D01*
X117570757Y-93958487D01*
X117560178Y-93937033D01*
X117483531Y-93781609D01*
X117480976Y-93776428D01*
X117359520Y-93613779D01*
X117210458Y-93475987D01*
X117205575Y-93472906D01*
X117205571Y-93472903D01*
X117043664Y-93370748D01*
X117038781Y-93367667D01*
X116850239Y-93292446D01*
X116844579Y-93291320D01*
X116844575Y-93291319D01*
X116656813Y-93253971D01*
X116656810Y-93253971D01*
X116651146Y-93252844D01*
X116645371Y-93252768D01*
X116645367Y-93252768D01*
X116543993Y-93251441D01*
X116448171Y-93250187D01*
X116442474Y-93251166D01*
X116442473Y-93251166D01*
X116253807Y-93283585D01*
X116248110Y-93284564D01*
X116057663Y-93354824D01*
X115883210Y-93458612D01*
X115878870Y-93462418D01*
X115878866Y-93462421D01*
X115788935Y-93541289D01*
X115730592Y-93592455D01*
X115727017Y-93596990D01*
X115727016Y-93596991D01*
X115716875Y-93609855D01*
X115604920Y-93751869D01*
X115602231Y-93756980D01*
X115602229Y-93756983D01*
X115589273Y-93781609D01*
X115510403Y-93931515D01*
X115502028Y-93958487D01*
X115472709Y-94052910D01*
X115433406Y-94112035D01*
X115368376Y-94140526D01*
X115298267Y-94129336D01*
X115245337Y-94082019D01*
X115226376Y-94015546D01*
X115226376Y-93058696D01*
X132766929Y-93058696D01*
X132784313Y-93216153D01*
X132786923Y-93223284D01*
X132786923Y-93223286D01*
X132835059Y-93354824D01*
X132838753Y-93364919D01*
X132842989Y-93371222D01*
X132842989Y-93371223D01*
X132913388Y-93475987D01*
X132927108Y-93496405D01*
X132932727Y-93501518D01*
X132932728Y-93501519D01*
X133028482Y-93588648D01*
X133044276Y-93603019D01*
X133183493Y-93678608D01*
X133336722Y-93718807D01*
X133420677Y-93720126D01*
X133487519Y-93721176D01*
X133487522Y-93721176D01*
X133495116Y-93721295D01*
X133649532Y-93685929D01*
X133739982Y-93640438D01*
X133784272Y-93618163D01*
X133784275Y-93618161D01*
X133791055Y-93614751D01*
X133796826Y-93609822D01*
X133796829Y-93609820D01*
X133905736Y-93516804D01*
X133905736Y-93516803D01*
X133911514Y-93511869D01*
X134003955Y-93383224D01*
X134063042Y-93236241D01*
X134085362Y-93079407D01*
X134085507Y-93065600D01*
X134066476Y-92908333D01*
X134010480Y-92760146D01*
X133967174Y-92697135D01*
X133925055Y-92635851D01*
X133925054Y-92635849D01*
X133920753Y-92629592D01*
X133802475Y-92524211D01*
X133795089Y-92520300D01*
X133669188Y-92453639D01*
X133669189Y-92453639D01*
X133662474Y-92450084D01*
X133508833Y-92411492D01*
X133501234Y-92411452D01*
X133501233Y-92411452D01*
X133435381Y-92411107D01*
X133350421Y-92410662D01*
X133343041Y-92412434D01*
X133343039Y-92412434D01*
X133203763Y-92445871D01*
X133203760Y-92445872D01*
X133196384Y-92447643D01*
X133055614Y-92520300D01*
X132936239Y-92624438D01*
X132845150Y-92754044D01*
X132833001Y-92785205D01*
X132807940Y-92849484D01*
X132787606Y-92901637D01*
X132786614Y-92909170D01*
X132786614Y-92909171D01*
X132773551Y-93008399D01*
X132766929Y-93058696D01*
X115226376Y-93058696D01*
X115226376Y-92852776D01*
X115246378Y-92784655D01*
X115300034Y-92738162D01*
X115370308Y-92728058D01*
X115434888Y-92757552D01*
X115457139Y-92782771D01*
X115501716Y-92849484D01*
X115585899Y-92905734D01*
X115660133Y-92920500D01*
X116535058Y-92920500D01*
X117410266Y-92920499D01*
X117446018Y-92913388D01*
X117472326Y-92908156D01*
X117472328Y-92908155D01*
X117484501Y-92905734D01*
X117494821Y-92898839D01*
X117494822Y-92898838D01*
X117558368Y-92856377D01*
X117568684Y-92849484D01*
X117624934Y-92765301D01*
X117639700Y-92691067D01*
X117639700Y-92347496D01*
X138050129Y-92347496D01*
X138057399Y-92413343D01*
X138061402Y-92449598D01*
X138067513Y-92504953D01*
X138070123Y-92512084D01*
X138070123Y-92512086D01*
X138113512Y-92630652D01*
X138121953Y-92653719D01*
X138126189Y-92660022D01*
X138126189Y-92660023D01*
X138204848Y-92777079D01*
X138210308Y-92785205D01*
X138215927Y-92790318D01*
X138215928Y-92790319D01*
X138321860Y-92886709D01*
X138327476Y-92891819D01*
X138466693Y-92967408D01*
X138619922Y-93007607D01*
X138703877Y-93008926D01*
X138770719Y-93009976D01*
X138770722Y-93009976D01*
X138778316Y-93010095D01*
X138932732Y-92974729D01*
X139003142Y-92939317D01*
X139067472Y-92906963D01*
X139067475Y-92906961D01*
X139074255Y-92903551D01*
X139080026Y-92898622D01*
X139080029Y-92898620D01*
X139188936Y-92805604D01*
X139188936Y-92805603D01*
X139194714Y-92800669D01*
X139287155Y-92672024D01*
X139346242Y-92525041D01*
X139361478Y-92417985D01*
X139367981Y-92372291D01*
X139367981Y-92372288D01*
X139368562Y-92368207D01*
X139368707Y-92354400D01*
X139365417Y-92327208D01*
X139361693Y-92296441D01*
X139349676Y-92197133D01*
X139320112Y-92118896D01*
X140412329Y-92118896D01*
X140420967Y-92197133D01*
X140428278Y-92263351D01*
X140429713Y-92276353D01*
X140432323Y-92283484D01*
X140432323Y-92283486D01*
X140479844Y-92413343D01*
X140484153Y-92425119D01*
X140488389Y-92431422D01*
X140488389Y-92431423D01*
X140554136Y-92529264D01*
X140572508Y-92556605D01*
X140578127Y-92561718D01*
X140578128Y-92561719D01*
X140684060Y-92658109D01*
X140689676Y-92663219D01*
X140828893Y-92738808D01*
X140982122Y-92779007D01*
X141066077Y-92780326D01*
X141132919Y-92781376D01*
X141132922Y-92781376D01*
X141140516Y-92781495D01*
X141294932Y-92746129D01*
X141404414Y-92691066D01*
X141429672Y-92678363D01*
X141429675Y-92678361D01*
X141436455Y-92674951D01*
X141442226Y-92670022D01*
X141442229Y-92670020D01*
X141551136Y-92577004D01*
X141551136Y-92577003D01*
X141556914Y-92572069D01*
X141649355Y-92443424D01*
X141708442Y-92296441D01*
X141730762Y-92139607D01*
X141730907Y-92125800D01*
X141711876Y-91968533D01*
X141655880Y-91820346D01*
X141599893Y-91738884D01*
X141578183Y-91707296D01*
X157860929Y-91707296D01*
X157864809Y-91742439D01*
X157872737Y-91814244D01*
X157878313Y-91864753D01*
X157880923Y-91871884D01*
X157880923Y-91871886D01*
X157916291Y-91968533D01*
X157932753Y-92013519D01*
X157936989Y-92019822D01*
X157936989Y-92019823D01*
X158010981Y-92129934D01*
X158021108Y-92145005D01*
X158026727Y-92150118D01*
X158026728Y-92150119D01*
X158070591Y-92190031D01*
X158138276Y-92251619D01*
X158277493Y-92327208D01*
X158430722Y-92367407D01*
X158514677Y-92368726D01*
X158581519Y-92369776D01*
X158581522Y-92369776D01*
X158589116Y-92369895D01*
X158743532Y-92334529D01*
X158819262Y-92296441D01*
X158878272Y-92266763D01*
X158878275Y-92266761D01*
X158885055Y-92263351D01*
X158890826Y-92258422D01*
X158890829Y-92258420D01*
X158999736Y-92165404D01*
X158999736Y-92165403D01*
X159005514Y-92160469D01*
X159097955Y-92031824D01*
X159157042Y-91884841D01*
X159165210Y-91827449D01*
X159178781Y-91732091D01*
X159178781Y-91732088D01*
X159179362Y-91728007D01*
X159179507Y-91714200D01*
X159160476Y-91556933D01*
X159104480Y-91408746D01*
X159014753Y-91278192D01*
X159015780Y-91277486D01*
X158988966Y-91220070D01*
X158998471Y-91149713D01*
X159011200Y-91127556D01*
X159097955Y-91006824D01*
X159157042Y-90859841D01*
X159163771Y-90812558D01*
X159178781Y-90707091D01*
X159178781Y-90707088D01*
X159179362Y-90703007D01*
X159179507Y-90689200D01*
X159160476Y-90531933D01*
X159104480Y-90383746D01*
X159014753Y-90253192D01*
X158896475Y-90147811D01*
X158889089Y-90143900D01*
X158763188Y-90077239D01*
X158763189Y-90077239D01*
X158756474Y-90073684D01*
X158602833Y-90035092D01*
X158595234Y-90035052D01*
X158595233Y-90035052D01*
X158529381Y-90034707D01*
X158444421Y-90034262D01*
X158437041Y-90036034D01*
X158437039Y-90036034D01*
X158297763Y-90069471D01*
X158297760Y-90069472D01*
X158290384Y-90071243D01*
X158149614Y-90143900D01*
X158030239Y-90248038D01*
X157939150Y-90377644D01*
X157881606Y-90525237D01*
X157860929Y-90682296D01*
X157866545Y-90733161D01*
X157875311Y-90812558D01*
X157878313Y-90839753D01*
X157880923Y-90846884D01*
X157880923Y-90846886D01*
X157915340Y-90940934D01*
X157932753Y-90988519D01*
X158021108Y-91120005D01*
X158022713Y-91121465D01*
X158051127Y-91183996D01*
X158040891Y-91254251D01*
X158029462Y-91274143D01*
X157943522Y-91396422D01*
X157943519Y-91396427D01*
X157939150Y-91402644D01*
X157936390Y-91409724D01*
X157896778Y-91511324D01*
X157881606Y-91550237D01*
X157880614Y-91557770D01*
X157880614Y-91557771D01*
X157863094Y-91690852D01*
X157860929Y-91707296D01*
X141578183Y-91707296D01*
X141570455Y-91696051D01*
X141570454Y-91696049D01*
X141566153Y-91689792D01*
X141447875Y-91584411D01*
X141440489Y-91580500D01*
X141314588Y-91513839D01*
X141314589Y-91513839D01*
X141307874Y-91510284D01*
X141154233Y-91471692D01*
X141146634Y-91471652D01*
X141146633Y-91471652D01*
X141080781Y-91471307D01*
X140995821Y-91470862D01*
X140988441Y-91472634D01*
X140988439Y-91472634D01*
X140849163Y-91506071D01*
X140849160Y-91506072D01*
X140841784Y-91507843D01*
X140701014Y-91580500D01*
X140581639Y-91684638D01*
X140490550Y-91814244D01*
X140433006Y-91961837D01*
X140432014Y-91969370D01*
X140432014Y-91969371D01*
X140423160Y-92036628D01*
X140412329Y-92118896D01*
X139320112Y-92118896D01*
X139293680Y-92048946D01*
X139203953Y-91918392D01*
X139085675Y-91813011D01*
X139078289Y-91809100D01*
X138952388Y-91742439D01*
X138952389Y-91742439D01*
X138945674Y-91738884D01*
X138792033Y-91700292D01*
X138784434Y-91700252D01*
X138784433Y-91700252D01*
X138718581Y-91699907D01*
X138633621Y-91699462D01*
X138626241Y-91701234D01*
X138626239Y-91701234D01*
X138486963Y-91734671D01*
X138486960Y-91734672D01*
X138479584Y-91736443D01*
X138338814Y-91809100D01*
X138219439Y-91913238D01*
X138128350Y-92042844D01*
X138125590Y-92049924D01*
X138097609Y-92121692D01*
X138070806Y-92190437D01*
X138069814Y-92197970D01*
X138069814Y-92197971D01*
X138053277Y-92323585D01*
X138050129Y-92347496D01*
X117639700Y-92347496D01*
X117639699Y-90940934D01*
X117624934Y-90866699D01*
X117613260Y-90849227D01*
X117575577Y-90792832D01*
X117568684Y-90782516D01*
X117484501Y-90726266D01*
X117410267Y-90711500D01*
X116535342Y-90711500D01*
X115660134Y-90711501D01*
X115624382Y-90718612D01*
X115598074Y-90723844D01*
X115598072Y-90723845D01*
X115585899Y-90726266D01*
X115575579Y-90733161D01*
X115575578Y-90733162D01*
X115515185Y-90773516D01*
X115501716Y-90782516D01*
X115468516Y-90832203D01*
X115457141Y-90849227D01*
X115402663Y-90894754D01*
X115332220Y-90903601D01*
X115268176Y-90872960D01*
X115230865Y-90812558D01*
X115226376Y-90779224D01*
X115226376Y-88707296D01*
X134260929Y-88707296D01*
X134269621Y-88786025D01*
X134277179Y-88854480D01*
X134278313Y-88864753D01*
X134280923Y-88871884D01*
X134280923Y-88871886D01*
X134329319Y-89004134D01*
X134332753Y-89013519D01*
X134421108Y-89145005D01*
X134426727Y-89150118D01*
X134426728Y-89150119D01*
X134438103Y-89160469D01*
X134538276Y-89251619D01*
X134677493Y-89327208D01*
X134830722Y-89367407D01*
X134914677Y-89368726D01*
X134981519Y-89369776D01*
X134981522Y-89369776D01*
X134989116Y-89369895D01*
X135143532Y-89334529D01*
X135213942Y-89299117D01*
X135278272Y-89266763D01*
X135278275Y-89266761D01*
X135285055Y-89263351D01*
X135290827Y-89258421D01*
X135297159Y-89254214D01*
X135298421Y-89256113D01*
X135352915Y-89231690D01*
X135423116Y-89242290D01*
X135436708Y-89250193D01*
X135438276Y-89251619D01*
X135444953Y-89255244D01*
X135444954Y-89255245D01*
X135466168Y-89266763D01*
X135577493Y-89327208D01*
X135730722Y-89367407D01*
X135814677Y-89368726D01*
X135881519Y-89369776D01*
X135881522Y-89369776D01*
X135889116Y-89369895D01*
X136043532Y-89334529D01*
X136113942Y-89299117D01*
X136178272Y-89266763D01*
X136178275Y-89266761D01*
X136185055Y-89263351D01*
X136190826Y-89258422D01*
X136190829Y-89258420D01*
X136299736Y-89165404D01*
X136299736Y-89165403D01*
X136305514Y-89160469D01*
X136397955Y-89031824D01*
X136457042Y-88884841D01*
X136479362Y-88728007D01*
X136479507Y-88714200D01*
X136460476Y-88556933D01*
X136404480Y-88408746D01*
X136391490Y-88389846D01*
X136386301Y-88382296D01*
X142960929Y-88382296D01*
X142978313Y-88539753D01*
X142980923Y-88546884D01*
X142980923Y-88546886D01*
X142984907Y-88557771D01*
X143032753Y-88688519D01*
X143121108Y-88820005D01*
X143126727Y-88825118D01*
X143126728Y-88825119D01*
X143201785Y-88893415D01*
X143238276Y-88926619D01*
X143377493Y-89002208D01*
X143530722Y-89042407D01*
X143614677Y-89043726D01*
X143681519Y-89044776D01*
X143681522Y-89044776D01*
X143689116Y-89044895D01*
X143843532Y-89009529D01*
X143913942Y-88974117D01*
X143978272Y-88941763D01*
X143978275Y-88941761D01*
X143985055Y-88938351D01*
X143990828Y-88933420D01*
X143990833Y-88933417D01*
X144003680Y-88922445D01*
X144068470Y-88893415D01*
X144138670Y-88904022D01*
X144170307Y-88925064D01*
X144192909Y-88945630D01*
X144332126Y-89021219D01*
X144485355Y-89061418D01*
X144569310Y-89062737D01*
X144636152Y-89063787D01*
X144636155Y-89063787D01*
X144643749Y-89063906D01*
X144798165Y-89028540D01*
X144868575Y-88993128D01*
X144932905Y-88960774D01*
X144932908Y-88960772D01*
X144939688Y-88957362D01*
X144945459Y-88952433D01*
X144945462Y-88952431D01*
X145054369Y-88859415D01*
X145054369Y-88859414D01*
X145060147Y-88854480D01*
X145152588Y-88725835D01*
X145211675Y-88578852D01*
X145233995Y-88422018D01*
X145234140Y-88408211D01*
X145233448Y-88402488D01*
X145229935Y-88373465D01*
X145215109Y-88250944D01*
X145159113Y-88102757D01*
X145069386Y-87972203D01*
X144951108Y-87866822D01*
X144943722Y-87862911D01*
X144817821Y-87796250D01*
X144817822Y-87796250D01*
X144811107Y-87792695D01*
X144657466Y-87754103D01*
X144649867Y-87754063D01*
X144649866Y-87754063D01*
X144584014Y-87753718D01*
X144499054Y-87753273D01*
X144491674Y-87755045D01*
X144491672Y-87755045D01*
X144352396Y-87788482D01*
X144352393Y-87788483D01*
X144345017Y-87790254D01*
X144204247Y-87862911D01*
X144191538Y-87873998D01*
X144127056Y-87903707D01*
X144056749Y-87893838D01*
X144024889Y-87873126D01*
X144002151Y-87852867D01*
X144002145Y-87852863D01*
X143996475Y-87847811D01*
X143989089Y-87843900D01*
X143950765Y-87823609D01*
X143856474Y-87773684D01*
X143702833Y-87735092D01*
X143695234Y-87735052D01*
X143695233Y-87735052D01*
X143629381Y-87734707D01*
X143544421Y-87734262D01*
X143537041Y-87736034D01*
X143537039Y-87736034D01*
X143397763Y-87769471D01*
X143397760Y-87769472D01*
X143390384Y-87771243D01*
X143249614Y-87843900D01*
X143130239Y-87948038D01*
X143039150Y-88077644D01*
X143029561Y-88102239D01*
X142992369Y-88197632D01*
X142981606Y-88225237D01*
X142980614Y-88232770D01*
X142980614Y-88232771D01*
X142978222Y-88250944D01*
X142960929Y-88382296D01*
X136386301Y-88382296D01*
X136319055Y-88284451D01*
X136319054Y-88284449D01*
X136314753Y-88278192D01*
X136196475Y-88172811D01*
X136189089Y-88168900D01*
X136077582Y-88109860D01*
X136056474Y-88098684D01*
X135902833Y-88060092D01*
X135895234Y-88060052D01*
X135895233Y-88060052D01*
X135829381Y-88059707D01*
X135744421Y-88059262D01*
X135737041Y-88061034D01*
X135737039Y-88061034D01*
X135597763Y-88094471D01*
X135597760Y-88094472D01*
X135590384Y-88096243D01*
X135449614Y-88168900D01*
X135443890Y-88173893D01*
X135440961Y-88175884D01*
X135373378Y-88197632D01*
X135304765Y-88179389D01*
X135301412Y-88177210D01*
X135296475Y-88172811D01*
X135289089Y-88168900D01*
X135177582Y-88109860D01*
X135156474Y-88098684D01*
X135002833Y-88060092D01*
X134995234Y-88060052D01*
X134995233Y-88060052D01*
X134929381Y-88059707D01*
X134844421Y-88059262D01*
X134837041Y-88061034D01*
X134837039Y-88061034D01*
X134697763Y-88094471D01*
X134697760Y-88094472D01*
X134690384Y-88096243D01*
X134549614Y-88168900D01*
X134430239Y-88273038D01*
X134339150Y-88402644D01*
X134330004Y-88426102D01*
X134285694Y-88539753D01*
X134281606Y-88550237D01*
X134280614Y-88557770D01*
X134280614Y-88557771D01*
X134278830Y-88571326D01*
X134260929Y-88707296D01*
X115226376Y-88707296D01*
X115226376Y-86173253D01*
X135057300Y-86173253D01*
X135072538Y-86303954D01*
X135132568Y-86469334D01*
X135229034Y-86616468D01*
X135356760Y-86737464D01*
X135508896Y-86825832D01*
X135677280Y-86876830D01*
X135852880Y-86887724D01*
X135860096Y-86886484D01*
X135860098Y-86886484D01*
X136019062Y-86859169D01*
X136019064Y-86859168D01*
X136026277Y-86857929D01*
X136188168Y-86789044D01*
X136329871Y-86684763D01*
X136443782Y-86550680D01*
X136466001Y-86507166D01*
X136520466Y-86400505D01*
X136520468Y-86400500D01*
X136523793Y-86393988D01*
X136565611Y-86223092D01*
X136566300Y-86211986D01*
X136566300Y-85501988D01*
X136586302Y-85433867D01*
X136639958Y-85387374D01*
X136710232Y-85377270D01*
X136774812Y-85406764D01*
X136792262Y-85425283D01*
X136828496Y-85472504D01*
X136949550Y-85565392D01*
X137090520Y-85623784D01*
X137203820Y-85638700D01*
X137279780Y-85638700D01*
X137393080Y-85623784D01*
X137534050Y-85565392D01*
X137655104Y-85472504D01*
X137747992Y-85351450D01*
X137806384Y-85210480D01*
X137826300Y-85059200D01*
X142437300Y-85059200D01*
X142457216Y-85210480D01*
X142515608Y-85351450D01*
X142608496Y-85472504D01*
X142729550Y-85565392D01*
X142870520Y-85623784D01*
X142983820Y-85638700D01*
X143059780Y-85638700D01*
X143173080Y-85623784D01*
X143314050Y-85565392D01*
X143435104Y-85472504D01*
X143471337Y-85425284D01*
X143528675Y-85383417D01*
X143599546Y-85379195D01*
X143661449Y-85413959D01*
X143694730Y-85476671D01*
X143697300Y-85501988D01*
X143697300Y-86173253D01*
X143712538Y-86303954D01*
X143772568Y-86469334D01*
X143869034Y-86616468D01*
X143996760Y-86737464D01*
X144148896Y-86825832D01*
X144317280Y-86876830D01*
X144492880Y-86887724D01*
X144500096Y-86886484D01*
X144500098Y-86886484D01*
X144659062Y-86859169D01*
X144659064Y-86859168D01*
X144666277Y-86857929D01*
X144828168Y-86789044D01*
X144969871Y-86684763D01*
X145083782Y-86550680D01*
X145106001Y-86507166D01*
X145160466Y-86400505D01*
X145160468Y-86400500D01*
X145163793Y-86393988D01*
X145205611Y-86223092D01*
X145206300Y-86211986D01*
X145206300Y-84985147D01*
X145191062Y-84854446D01*
X145131032Y-84689066D01*
X145102729Y-84645896D01*
X145074041Y-84602141D01*
X145034566Y-84541932D01*
X144906840Y-84420936D01*
X144754704Y-84332568D01*
X144586320Y-84281570D01*
X144410720Y-84270676D01*
X144403504Y-84271916D01*
X144403502Y-84271916D01*
X144244538Y-84299231D01*
X144244536Y-84299232D01*
X144237323Y-84300471D01*
X144075432Y-84369356D01*
X143933729Y-84473637D01*
X143819818Y-84607720D01*
X143796982Y-84652442D01*
X143744548Y-84755127D01*
X143695755Y-84806700D01*
X143626825Y-84823706D01*
X143559643Y-84800746D01*
X143528468Y-84766585D01*
X143527992Y-84766950D01*
X143527631Y-84766480D01*
X143435104Y-84645896D01*
X143314050Y-84553008D01*
X143173080Y-84494616D01*
X143059780Y-84479700D01*
X142983820Y-84479700D01*
X142870520Y-84494616D01*
X142729550Y-84553008D01*
X142608496Y-84645896D01*
X142515608Y-84766950D01*
X142457216Y-84907920D01*
X142437300Y-85059200D01*
X137826300Y-85059200D01*
X137806384Y-84907920D01*
X137747992Y-84766950D01*
X137655104Y-84645896D01*
X137534050Y-84553008D01*
X137393080Y-84494616D01*
X137279780Y-84479700D01*
X137203820Y-84479700D01*
X137090520Y-84494616D01*
X136949550Y-84553008D01*
X136828496Y-84645896D01*
X136735608Y-84766950D01*
X136735535Y-84766894D01*
X136687157Y-84813023D01*
X136617443Y-84826460D01*
X136551532Y-84800073D01*
X136510980Y-84744022D01*
X136493528Y-84695942D01*
X136493528Y-84695941D01*
X136491032Y-84689066D01*
X136462729Y-84645896D01*
X136434041Y-84602141D01*
X136394566Y-84541932D01*
X136266840Y-84420936D01*
X136114704Y-84332568D01*
X135946320Y-84281570D01*
X135770720Y-84270676D01*
X135763504Y-84271916D01*
X135763502Y-84271916D01*
X135604538Y-84299231D01*
X135604536Y-84299232D01*
X135597323Y-84300471D01*
X135435432Y-84369356D01*
X135293729Y-84473637D01*
X135179818Y-84607720D01*
X135176490Y-84614238D01*
X135103134Y-84757895D01*
X135103132Y-84757900D01*
X135099807Y-84764412D01*
X135098068Y-84771518D01*
X135098067Y-84771521D01*
X135091081Y-84800073D01*
X135057989Y-84935308D01*
X135057300Y-84946414D01*
X135057300Y-86173253D01*
X115226376Y-86173253D01*
X115226376Y-83526799D01*
X115228797Y-83502219D01*
X115228941Y-83501495D01*
X115231362Y-83489323D01*
X115228941Y-83477153D01*
X115228941Y-83465813D01*
X115228025Y-83453644D01*
X115234472Y-83314200D01*
X115234791Y-83307296D01*
X136660929Y-83307296D01*
X136669621Y-83386025D01*
X136677098Y-83453746D01*
X136678313Y-83464753D01*
X136680923Y-83471884D01*
X136680923Y-83471886D01*
X136728667Y-83602352D01*
X136732753Y-83613519D01*
X136736989Y-83619822D01*
X136736989Y-83619823D01*
X136737550Y-83620657D01*
X136821108Y-83745005D01*
X136826727Y-83750118D01*
X136826728Y-83750119D01*
X136929985Y-83844075D01*
X136938276Y-83851619D01*
X137077493Y-83927208D01*
X137230722Y-83967407D01*
X137314677Y-83968726D01*
X137381519Y-83969776D01*
X137381522Y-83969776D01*
X137389116Y-83969895D01*
X137543532Y-83934529D01*
X137613942Y-83899117D01*
X137678272Y-83866763D01*
X137678275Y-83866761D01*
X137685055Y-83863351D01*
X137737856Y-83818255D01*
X137802645Y-83789224D01*
X137872845Y-83799829D01*
X137904485Y-83820872D01*
X137929985Y-83844075D01*
X137938276Y-83851619D01*
X138077493Y-83927208D01*
X138230722Y-83967407D01*
X138314677Y-83968726D01*
X138381519Y-83969776D01*
X138381522Y-83969776D01*
X138389116Y-83969895D01*
X138543532Y-83934529D01*
X138613942Y-83899117D01*
X138678272Y-83866763D01*
X138678275Y-83866761D01*
X138685055Y-83863351D01*
X138690826Y-83858422D01*
X138690829Y-83858420D01*
X138799736Y-83765404D01*
X138799736Y-83765403D01*
X138805514Y-83760469D01*
X138897955Y-83631824D01*
X138957042Y-83484841D01*
X138979362Y-83328007D01*
X138979507Y-83314200D01*
X138977320Y-83296129D01*
X141310929Y-83296129D01*
X141328313Y-83453586D01*
X141330923Y-83460717D01*
X141330923Y-83460719D01*
X141341391Y-83489323D01*
X141382753Y-83602352D01*
X141471108Y-83733838D01*
X141476727Y-83738951D01*
X141476728Y-83738952D01*
X141566758Y-83820872D01*
X141588276Y-83840452D01*
X141727493Y-83916041D01*
X141880722Y-83956240D01*
X141964677Y-83957559D01*
X142031519Y-83958609D01*
X142031522Y-83958609D01*
X142039116Y-83958728D01*
X142193532Y-83923362D01*
X142306068Y-83866763D01*
X142328272Y-83855596D01*
X142328275Y-83855594D01*
X142335055Y-83852184D01*
X142387856Y-83807088D01*
X142452645Y-83778057D01*
X142522845Y-83788662D01*
X142554485Y-83809705D01*
X142566758Y-83820872D01*
X142588276Y-83840452D01*
X142727493Y-83916041D01*
X142880722Y-83956240D01*
X142964677Y-83957559D01*
X143031519Y-83958609D01*
X143031522Y-83958609D01*
X143039116Y-83958728D01*
X143193532Y-83923362D01*
X143306068Y-83866763D01*
X143328272Y-83855596D01*
X143328275Y-83855594D01*
X143335055Y-83852184D01*
X143340826Y-83847255D01*
X143340829Y-83847253D01*
X143449736Y-83754237D01*
X143449736Y-83754236D01*
X143455514Y-83749302D01*
X143547955Y-83620657D01*
X143607042Y-83473674D01*
X143629362Y-83316840D01*
X143629433Y-83310092D01*
X143629464Y-83307167D01*
X143629464Y-83307161D01*
X143629507Y-83303033D01*
X143610476Y-83145766D01*
X143554480Y-82997579D01*
X143485521Y-82897242D01*
X143469055Y-82873284D01*
X143469054Y-82873282D01*
X143464753Y-82867025D01*
X143346475Y-82761644D01*
X143339089Y-82757733D01*
X143213188Y-82691072D01*
X143213189Y-82691072D01*
X143206474Y-82687517D01*
X143052833Y-82648925D01*
X143045234Y-82648885D01*
X143045233Y-82648885D01*
X142979381Y-82648540D01*
X142894421Y-82648095D01*
X142887041Y-82649867D01*
X142887039Y-82649867D01*
X142747763Y-82683304D01*
X142747760Y-82683305D01*
X142740384Y-82685076D01*
X142599614Y-82757733D01*
X142593895Y-82762722D01*
X142553199Y-82798223D01*
X142488716Y-82827930D01*
X142418409Y-82818060D01*
X142386552Y-82797350D01*
X142352151Y-82766700D01*
X142352145Y-82766696D01*
X142346475Y-82761644D01*
X142339089Y-82757733D01*
X142213188Y-82691072D01*
X142213189Y-82691072D01*
X142206474Y-82687517D01*
X142052833Y-82648925D01*
X142045234Y-82648885D01*
X142045233Y-82648885D01*
X141979381Y-82648540D01*
X141894421Y-82648095D01*
X141887041Y-82649867D01*
X141887039Y-82649867D01*
X141747763Y-82683304D01*
X141747760Y-82683305D01*
X141740384Y-82685076D01*
X141599614Y-82757733D01*
X141480239Y-82861871D01*
X141389150Y-82991477D01*
X141379648Y-83015849D01*
X141334714Y-83131099D01*
X141331606Y-83139070D01*
X141330614Y-83146603D01*
X141330614Y-83146604D01*
X141312803Y-83281895D01*
X141310929Y-83296129D01*
X138977320Y-83296129D01*
X138960476Y-83156933D01*
X138904480Y-83008746D01*
X138864104Y-82949998D01*
X138819055Y-82884451D01*
X138819054Y-82884449D01*
X138814753Y-82878192D01*
X138696475Y-82772811D01*
X138689089Y-82768900D01*
X138563188Y-82702239D01*
X138563189Y-82702239D01*
X138556474Y-82698684D01*
X138402833Y-82660092D01*
X138395234Y-82660052D01*
X138395233Y-82660052D01*
X138329381Y-82659707D01*
X138244421Y-82659262D01*
X138237041Y-82661034D01*
X138237039Y-82661034D01*
X138097763Y-82694471D01*
X138097760Y-82694472D01*
X138090384Y-82696243D01*
X137949614Y-82768900D01*
X137943895Y-82773889D01*
X137903199Y-82809390D01*
X137838716Y-82839097D01*
X137768409Y-82829227D01*
X137736552Y-82808517D01*
X137702151Y-82777867D01*
X137702145Y-82777863D01*
X137696475Y-82772811D01*
X137689089Y-82768900D01*
X137563188Y-82702239D01*
X137563189Y-82702239D01*
X137556474Y-82698684D01*
X137402833Y-82660092D01*
X137395234Y-82660052D01*
X137395233Y-82660052D01*
X137329381Y-82659707D01*
X137244421Y-82659262D01*
X137237041Y-82661034D01*
X137237039Y-82661034D01*
X137097763Y-82694471D01*
X137097760Y-82694472D01*
X137090384Y-82696243D01*
X136949614Y-82768900D01*
X136830239Y-82873038D01*
X136739150Y-83002644D01*
X136734002Y-83015849D01*
X136685960Y-83139070D01*
X136681606Y-83150237D01*
X136680614Y-83157770D01*
X136680614Y-83157771D01*
X136663391Y-83288598D01*
X136660929Y-83307296D01*
X115234791Y-83307296D01*
X115242936Y-83131096D01*
X115244010Y-83119511D01*
X115246631Y-83100725D01*
X115292747Y-82770114D01*
X115294886Y-82758674D01*
X115327667Y-82619296D01*
X130379329Y-82619296D01*
X130386657Y-82685667D01*
X130395603Y-82766697D01*
X130396713Y-82776753D01*
X130399323Y-82783884D01*
X130399323Y-82783886D01*
X130443773Y-82905351D01*
X130451153Y-82925519D01*
X130455389Y-82931822D01*
X130455389Y-82931823D01*
X130508056Y-83010199D01*
X130539508Y-83057005D01*
X130545127Y-83062118D01*
X130545128Y-83062119D01*
X130641523Y-83149831D01*
X130656676Y-83163619D01*
X130795893Y-83239208D01*
X130949122Y-83279407D01*
X131033077Y-83280726D01*
X131099919Y-83281776D01*
X131099922Y-83281776D01*
X131107516Y-83281895D01*
X131261932Y-83246529D01*
X131332342Y-83211117D01*
X131396672Y-83178763D01*
X131396675Y-83178761D01*
X131403455Y-83175351D01*
X131409226Y-83170422D01*
X131409229Y-83170420D01*
X131518136Y-83077404D01*
X131518136Y-83077403D01*
X131523914Y-83072469D01*
X131616355Y-82943824D01*
X131675442Y-82796841D01*
X131687077Y-82715087D01*
X131697181Y-82644091D01*
X131697181Y-82644088D01*
X131697762Y-82640007D01*
X131697907Y-82626200D01*
X131678876Y-82468933D01*
X131622880Y-82320746D01*
X131540361Y-82200680D01*
X131537455Y-82196451D01*
X131537454Y-82196449D01*
X131533153Y-82190192D01*
X131519172Y-82177735D01*
X131420546Y-82089864D01*
X131414875Y-82084811D01*
X131407489Y-82080900D01*
X131327273Y-82038428D01*
X131274874Y-82010684D01*
X131121233Y-81972092D01*
X131113634Y-81972052D01*
X131113633Y-81972052D01*
X131047781Y-81971707D01*
X130962821Y-81971262D01*
X130955441Y-81973034D01*
X130955439Y-81973034D01*
X130816163Y-82006471D01*
X130816160Y-82006472D01*
X130808784Y-82008243D01*
X130668014Y-82080900D01*
X130548639Y-82185038D01*
X130457550Y-82314644D01*
X130446976Y-82341765D01*
X130409049Y-82439044D01*
X130400006Y-82462237D01*
X130399014Y-82469770D01*
X130399014Y-82469771D01*
X130391443Y-82527283D01*
X130379329Y-82619296D01*
X115327667Y-82619296D01*
X115375652Y-82415271D01*
X115378836Y-82404077D01*
X115386092Y-82382428D01*
X115490950Y-82069569D01*
X115495146Y-82058740D01*
X115495330Y-82058324D01*
X115637641Y-81736015D01*
X115642826Y-81725602D01*
X115675595Y-81666771D01*
X115747662Y-81537384D01*
X115814492Y-81417401D01*
X115820619Y-81407506D01*
X116019988Y-81116461D01*
X116026992Y-81107186D01*
X116252382Y-80835757D01*
X116260203Y-80827179D01*
X116509658Y-80577724D01*
X116518258Y-80569883D01*
X116789661Y-80344511D01*
X116798949Y-80337497D01*
X117089995Y-80138125D01*
X117099890Y-80131999D01*
X117408074Y-79960341D01*
X117418492Y-79955153D01*
X117509881Y-79914801D01*
X117741226Y-79812652D01*
X117752058Y-79808456D01*
X118086565Y-79696339D01*
X118097741Y-79693159D01*
X118441152Y-79612390D01*
X118452592Y-79610251D01*
X118801990Y-79561512D01*
X118813579Y-79560438D01*
X118925013Y-79555286D01*
X119136027Y-79545530D01*
X119148456Y-79546465D01*
X119159628Y-79546465D01*
X119171800Y-79548886D01*
X119184697Y-79546321D01*
X119209276Y-79543900D01*
X124663510Y-79543900D01*
X124731631Y-79563902D01*
G37*
%TD.AperFunction*%
%TD*%
M02*
