M48
; DRILL file {KiCad 6.0.11-2627ca5db0~126~ubuntu20.04.1} date Tue 28 Feb 2023 05:49:02 PM WIB
; FORMAT={-:-/ absolute / inch / decimal}
; #@! TF.CreationDate,2023-02-28T17:49:02+07:00
; #@! TF.GenerationSoftware,Kicad,Pcbnew,6.0.11-2627ca5db0~126~ubuntu20.04.1
; #@! TF.FileFunction,Plated,1,4,PTH
FMAT,2
INCH
; #@! TA.AperFunction,Plated,PTH,ViaDrill
T1C0.0157
; #@! TA.AperFunction,Plated,PTH,ComponentDrill
T2C0.0197
; #@! TA.AperFunction,Plated,PTH,ComponentDrill
T3C0.0236
; #@! TA.AperFunction,Plated,PTH,ComponentDrill
T4C0.0394
; #@! TA.AperFunction,Plated,PTH,ComponentDrill
T5C0.1260
%
G90
G05
T1
X4.8045Y-4.0746
X4.911Y-3.489
X4.9782Y-4.0903
X5.135Y-3.822
X5.135Y-3.934
X5.159Y-3.253
X5.24Y-3.254
X5.2429Y-3.3687
X5.253Y-3.664
X5.282Y-3.604
X5.311Y-4.232
X5.3118Y-3.4425
X5.3118Y-3.4927
X5.3473Y-3.4425
X5.3473Y-3.4927
X5.3504Y-4.232
X5.383Y-3.703
X5.4034Y-3.6413
X5.4063Y-3.2801
X5.4083Y-3.2191
X5.435Y-4.0728
X5.4457Y-3.2801
X5.454Y-4.249
X5.461Y-3.636
X5.4752Y-3.1974
X5.479Y-4.05
X5.4791Y-3.4612
X5.4791Y-3.5006
X5.4791Y-3.5399
X5.4791Y-3.5793
X5.524Y-4.05
X5.5343Y-3.2191
X5.554Y-3.627
X5.5549Y-3.4612
X5.5549Y-3.5006
X5.5549Y-3.5399
X5.5549Y-3.5793
X5.5894Y-3.2796
X5.6091Y-3.2427
X5.613Y-3.6423
X5.6287Y-3.2796
X5.6524Y-3.5242
X5.654Y-4.069
X5.6543Y-3.4799
X5.6878Y-3.4415
X5.6919Y-3.4806
X5.711Y-3.7027
X5.7242Y-3.4415
X5.7291Y-4.2594
X5.754Y-3.704
X5.801Y-4.2604
X5.8177Y-3.7031
X5.8384Y-3.2889
X5.8728Y-3.225
X5.889Y-4.036
X5.8984Y-3.5872
X5.952Y-3.56
X5.997Y-3.764
X6.0289Y-3.203
X6.0289Y-3.2424
X6.061Y-3.726
X6.088Y-3.203
X6.088Y-3.2424
X6.115Y-3.726
X6.1471Y-3.203
X6.1471Y-3.2424
X6.178Y-3.764
X6.241Y-3.5704
X6.241Y-3.6108
X6.338Y-3.8
X6.343Y-3.733
X6.415Y-3.978
T2
X4.5973Y-3.287
X4.5973Y-4.3656
X4.625Y-3.2202
X4.625Y-3.3538
X4.625Y-4.2987
X4.625Y-4.4324
X4.6918Y-3.1925
X4.6918Y-3.3815
X4.6918Y-4.2711
X4.6918Y-4.46
X4.7586Y-3.2202
X4.7586Y-3.3538
X4.7586Y-4.2987
X4.7586Y-4.4324
X4.7863Y-3.287
X4.7863Y-4.3656
X6.2973Y-3.287
X6.2973Y-4.3656
X6.325Y-3.2202
X6.325Y-3.3538
X6.325Y-4.2987
X6.325Y-4.4324
X6.3918Y-3.1925
X6.3918Y-3.3815
X6.3918Y-4.2711
X6.3918Y-4.46
X6.4586Y-3.2202
X6.4586Y-3.3538
X6.4586Y-4.2987
X6.4586Y-4.4324
X6.4863Y-3.287
X6.4863Y-4.3656
T4
X4.588Y-3.6148
X4.588Y-3.7148
X4.588Y-3.9548
X4.588Y-4.0548
X4.5918Y-4.6656
X4.5918Y-4.7656
X4.6918Y-4.6656
X4.6918Y-4.7656
X4.7918Y-4.6656
X4.7918Y-4.7656
X4.8918Y-4.6656
X4.8918Y-4.7656
X4.9918Y-4.6656
X4.9918Y-4.7656
X5.0918Y-4.6656
X5.0918Y-4.7656
X5.1918Y-4.6656
X5.1918Y-4.7656
X5.2918Y-4.6656
X5.2918Y-4.7656
X5.3918Y-4.6656
X5.3918Y-4.7656
X5.4918Y-4.6656
X5.4918Y-4.7656
X5.5918Y-4.6656
X5.5918Y-4.7656
X5.6918Y-4.6656
X5.6918Y-4.7656
X5.7918Y-4.6656
X5.7918Y-4.7656
X5.8918Y-4.6656
X5.8918Y-4.7656
X5.9918Y-4.6656
X5.9918Y-4.7656
X6.0918Y-4.6656
X6.0918Y-4.7656
X6.1918Y-4.6656
X6.1918Y-4.7656
X6.2918Y-4.6656
X6.2918Y-4.7656
X6.3918Y-4.6656
X6.3918Y-4.7656
X6.4918Y-4.6656
X6.4918Y-4.7656
T5
X4.6918Y-3.287
X4.6918Y-4.3656
X6.3918Y-3.287
X6.3918Y-4.3656
T3
G00X5.3469Y-3.2197
M15
G01X5.3469Y-3.1882
M16
G05
G00X5.3469Y-3.3909
M15
G01X5.3469Y-3.3476
M16
G05
G00X5.6871Y-3.2197
M15
G01X5.6871Y-3.1882
M16
G05
G00X5.6871Y-3.3909
M15
G01X5.6871Y-3.3476
M16
G05
T0
M30
