%TF.GenerationSoftware,KiCad,Pcbnew,6.0.11-2627ca5db0~126~ubuntu20.04.1*%
%TF.CreationDate,2023-02-28T17:49:04+07:00*%
%TF.ProjectId,CY7C68013A-56-SSOP,43593743-3638-4303-9133-412d35362d53,rev?*%
%TF.SameCoordinates,Original*%
%TF.FileFunction,Paste,Top*%
%TF.FilePolarity,Positive*%
%FSLAX46Y46*%
G04 Gerber Fmt 4.6, Leading zero omitted, Abs format (unit mm)*
G04 Created by KiCad (PCBNEW 6.0.11-2627ca5db0~126~ubuntu20.04.1) date 2023-02-28 17:49:04*
%MOMM*%
%LPD*%
G01*
G04 APERTURE LIST*
G04 Aperture macros list*
%AMRoundRect*
0 Rectangle with rounded corners*
0 $1 Rounding radius*
0 $2 $3 $4 $5 $6 $7 $8 $9 X,Y pos of 4 corners*
0 Add a 4 corners polygon primitive as box body*
4,1,4,$2,$3,$4,$5,$6,$7,$8,$9,$2,$3,0*
0 Add four circle primitives for the rounded corners*
1,1,$1+$1,$2,$3*
1,1,$1+$1,$4,$5*
1,1,$1+$1,$6,$7*
1,1,$1+$1,$8,$9*
0 Add four rect primitives between the rounded corners*
20,1,$1+$1,$2,$3,$4,$5,0*
20,1,$1+$1,$4,$5,$6,$7,0*
20,1,$1+$1,$6,$7,$8,$9,0*
20,1,$1+$1,$8,$9,$2,$3,0*%
G04 Aperture macros list end*
%ADD10R,1.500000X2.000000*%
%ADD11R,3.800000X2.000000*%
%ADD12RoundRect,0.140000X-0.140000X-0.170000X0.140000X-0.170000X0.140000X0.170000X-0.140000X0.170000X0*%
%ADD13RoundRect,0.135000X0.185000X-0.135000X0.185000X0.135000X-0.185000X0.135000X-0.185000X-0.135000X0*%
%ADD14RoundRect,0.140000X-0.170000X0.140000X-0.170000X-0.140000X0.170000X-0.140000X0.170000X0.140000X0*%
%ADD15RoundRect,0.250000X0.250000X0.475000X-0.250000X0.475000X-0.250000X-0.475000X0.250000X-0.475000X0*%
%ADD16RoundRect,0.243750X0.243750X0.456250X-0.243750X0.456250X-0.243750X-0.456250X0.243750X-0.456250X0*%
%ADD17RoundRect,0.135000X0.135000X0.185000X-0.135000X0.185000X-0.135000X-0.185000X0.135000X-0.185000X0*%
%ADD18RoundRect,0.250000X-0.475000X0.250000X-0.475000X-0.250000X0.475000X-0.250000X0.475000X0.250000X0*%
%ADD19R,1.400000X1.200000*%
%ADD20RoundRect,0.140000X0.140000X0.170000X-0.140000X0.170000X-0.140000X-0.170000X0.140000X-0.170000X0*%
%ADD21RoundRect,0.140000X0.170000X-0.140000X0.170000X0.140000X-0.170000X0.140000X-0.170000X-0.140000X0*%
%ADD22R,1.000000X0.900000*%
%ADD23RoundRect,0.135000X-0.135000X-0.185000X0.135000X-0.185000X0.135000X0.185000X-0.135000X0.185000X0*%
%ADD24R,0.400000X1.200000*%
%ADD25R,0.600000X1.240000*%
%ADD26R,0.300000X1.240000*%
%ADD27RoundRect,0.150000X-0.825000X-0.150000X0.825000X-0.150000X0.825000X0.150000X-0.825000X0.150000X0*%
G04 APERTURE END LIST*
D10*
%TO.C,U3*%
X152335200Y-90424400D03*
X154635200Y-90424400D03*
D11*
X154635200Y-84124400D03*
D10*
X156935200Y-90424400D03*
%TD*%
D12*
%TO.C,C12*%
X141074200Y-93065600D03*
X142034200Y-93065600D03*
%TD*%
D13*
%TO.C,R1*%
X124739400Y-87962200D03*
X124739400Y-86942200D03*
%TD*%
D10*
%TO.C,U3*%
X152335200Y-90424400D03*
X154635200Y-90424400D03*
D11*
X154635200Y-84124400D03*
D10*
X156935200Y-90424400D03*
%TD*%
D14*
%TO.C,C11*%
X145517400Y-106526600D03*
X145517400Y-107486600D03*
%TD*%
D13*
%TO.C,R9*%
X142470200Y-91174200D03*
X142470200Y-90154200D03*
%TD*%
%TO.C,R10*%
X136970200Y-91174200D03*
X136970200Y-90154200D03*
%TD*%
D14*
%TO.C,C5*%
X153949400Y-92992000D03*
X153949400Y-93952000D03*
%TD*%
D15*
%TO.C,C15*%
X148270200Y-81914200D03*
X146370200Y-81914200D03*
%TD*%
D16*
%TO.C,D3*%
X126411900Y-97069240D03*
X124536900Y-97069240D03*
%TD*%
D17*
%TO.C,R8*%
X147630200Y-83534200D03*
X146610200Y-83534200D03*
%TD*%
D12*
%TO.C,C9*%
X134902000Y-106781600D03*
X135862000Y-106781600D03*
%TD*%
D18*
%TO.C,C1*%
X156935200Y-92801400D03*
X156935200Y-94701400D03*
%TD*%
D16*
%TO.C,D1*%
X126442700Y-102758840D03*
X124567700Y-102758840D03*
%TD*%
D17*
%TO.C,R3*%
X132107400Y-89535000D03*
X131087400Y-89535000D03*
%TD*%
D19*
%TO.C,Y1*%
X147345200Y-89814200D03*
X145145200Y-89814200D03*
X145145200Y-91514200D03*
X147345200Y-91514200D03*
%TD*%
D13*
%TO.C,R11*%
X146670200Y-107524200D03*
X146670200Y-106504200D03*
%TD*%
D20*
%TO.C,C6*%
X138706800Y-93065600D03*
X137746800Y-93065600D03*
%TD*%
D14*
%TO.C,C2*%
X155321000Y-92989400D03*
X155321000Y-93949400D03*
%TD*%
D17*
%TO.C,R5*%
X162663600Y-95377000D03*
X161643600Y-95377000D03*
%TD*%
D21*
%TO.C,C4*%
X148895200Y-90184200D03*
X148895200Y-91144200D03*
%TD*%
D22*
%TO.C,SW1*%
X161353600Y-97848200D03*
X161353600Y-101948200D03*
X162953600Y-97848200D03*
X162953600Y-101948200D03*
%TD*%
D23*
%TO.C,R4*%
X122035200Y-102764200D03*
X123055200Y-102764200D03*
%TD*%
D17*
%TO.C,R7*%
X123055200Y-97074200D03*
X122035200Y-97074200D03*
%TD*%
D24*
%TO.C,U1*%
X149339300Y-95249000D03*
X148704300Y-95249000D03*
X148069300Y-95249000D03*
X147434300Y-95249000D03*
X146799300Y-95249000D03*
X146164300Y-95249000D03*
X145529300Y-95249000D03*
X144894300Y-95249000D03*
X144259300Y-95249000D03*
X143624300Y-95249000D03*
X142989300Y-95249000D03*
X142354300Y-95249000D03*
X141719300Y-95249000D03*
X141084300Y-95249000D03*
X140449300Y-95249000D03*
X139814300Y-95249000D03*
X139179300Y-95249000D03*
X138544300Y-95249000D03*
X137909300Y-95249000D03*
X137274300Y-95249000D03*
X136639300Y-95249000D03*
X136004300Y-95249000D03*
X135369300Y-95249000D03*
X134734300Y-95249000D03*
X134099300Y-95249000D03*
X133464300Y-95249000D03*
X132829300Y-95249000D03*
X132194300Y-95249000D03*
X132194300Y-104649000D03*
X132829300Y-104649000D03*
X133464300Y-104649000D03*
X134099300Y-104649000D03*
X134734300Y-104649000D03*
X135369300Y-104649000D03*
X136004300Y-104649000D03*
X136639300Y-104649000D03*
X137274300Y-104649000D03*
X137909300Y-104649000D03*
X138544300Y-104649000D03*
X139179300Y-104649000D03*
X139814300Y-104649000D03*
X140449300Y-104649000D03*
X141084300Y-104649000D03*
X141719300Y-104649000D03*
X142354300Y-104649000D03*
X142989300Y-104649000D03*
X143624300Y-104649000D03*
X144259300Y-104649000D03*
X144894300Y-104649000D03*
X145529300Y-104649000D03*
X146164300Y-104649000D03*
X146799300Y-104649000D03*
X147434300Y-104649000D03*
X148069300Y-104649000D03*
X148704300Y-104649000D03*
X149339300Y-104649000D03*
%TD*%
D12*
%TO.C,C10*%
X131597400Y-83185000D03*
X132557400Y-83185000D03*
%TD*%
D20*
%TO.C,C13*%
X162633600Y-96520000D03*
X161673600Y-96520000D03*
%TD*%
D17*
%TO.C,R2*%
X132107400Y-90703400D03*
X131087400Y-90703400D03*
%TD*%
D14*
%TO.C,C3*%
X143570200Y-91144200D03*
X143570200Y-90184200D03*
%TD*%
%TO.C,C7*%
X138531600Y-106301600D03*
X138531600Y-107261600D03*
%TD*%
D25*
%TO.C,J5*%
X143331800Y-86179200D03*
X142531800Y-86179200D03*
D26*
X141381800Y-86179200D03*
X140381800Y-86179200D03*
X139881800Y-86179200D03*
X138881800Y-86179200D03*
D25*
X137731800Y-86179200D03*
X136931800Y-86179200D03*
X136931800Y-86179200D03*
X137731800Y-86179200D03*
D26*
X138381800Y-86179200D03*
X139381800Y-86179200D03*
X140881800Y-86179200D03*
X141881800Y-86179200D03*
D25*
X142531800Y-86179200D03*
X143331800Y-86179200D03*
%TD*%
D17*
%TO.C,R6*%
X123055200Y-99924200D03*
X122035200Y-99924200D03*
%TD*%
D27*
%TO.C,U2*%
X126658600Y-84302600D03*
X126658600Y-85572600D03*
X126658600Y-86842600D03*
X126658600Y-88112600D03*
X131608600Y-88112600D03*
X131608600Y-86842600D03*
X131608600Y-85572600D03*
X131608600Y-84302600D03*
%TD*%
D21*
%TO.C,C14*%
X134747000Y-93065600D03*
X134747000Y-92105600D03*
%TD*%
D18*
%TO.C,C8*%
X152335200Y-92801400D03*
X152335200Y-94701400D03*
%TD*%
D16*
%TO.C,D2*%
X126442700Y-99924200D03*
X124567700Y-99924200D03*
%TD*%
M02*
