%TF.GenerationSoftware,KiCad,Pcbnew,6.0.11-2627ca5db0~126~ubuntu20.04.1*%
%TF.CreationDate,2023-02-28T17:49:04+07:00*%
%TF.ProjectId,CY7C68013A-56-SSOP,43593743-3638-4303-9133-412d35362d53,rev?*%
%TF.SameCoordinates,Original*%
%TF.FileFunction,Copper,L4,Bot*%
%TF.FilePolarity,Positive*%
%FSLAX46Y46*%
G04 Gerber Fmt 4.6, Leading zero omitted, Abs format (unit mm)*
G04 Created by KiCad (PCBNEW 6.0.11-2627ca5db0~126~ubuntu20.04.1) date 2023-02-28 17:49:04*
%MOMM*%
%LPD*%
G01*
G04 APERTURE LIST*
%ADD10C,0.250000*%
%TA.AperFunction,NonConductor*%
%ADD11C,0.250000*%
%TD*%
%TA.AperFunction,ComponentPad*%
%ADD12C,0.800000*%
%TD*%
%TA.AperFunction,ComponentPad*%
%ADD13C,6.400000*%
%TD*%
%TA.AperFunction,ComponentPad*%
%ADD14R,1.700000X1.700000*%
%TD*%
%TA.AperFunction,ComponentPad*%
%ADD15O,1.700000X1.700000*%
%TD*%
%TA.AperFunction,ComponentPad*%
%ADD16O,1.000000X2.100000*%
%TD*%
%TA.AperFunction,ComponentPad*%
%ADD17O,1.000000X1.800000*%
%TD*%
%TA.AperFunction,ViaPad*%
%ADD18C,0.800000*%
%TD*%
%TA.AperFunction,Conductor*%
%ADD19C,0.800000*%
%TD*%
%TA.AperFunction,Conductor*%
%ADD20C,0.250000*%
%TD*%
%TA.AperFunction,Conductor*%
%ADD21C,0.150000*%
%TD*%
G04 APERTURE END LIST*
D10*
D11*
X127935676Y-80599914D02*
X127935676Y-81266580D01*
X127697580Y-80218961D02*
X127459485Y-80933247D01*
X128078533Y-80933247D01*
D12*
%TO.P,H2,1,1*%
%TO.N,GND*%
X119171800Y-85889324D03*
X117474744Y-85186380D03*
X121571800Y-83489324D03*
X116771800Y-83489324D03*
X120868856Y-81792268D03*
D13*
X119171800Y-83489324D03*
D12*
X117474744Y-81792268D03*
X119171800Y-81089324D03*
X120868856Y-85186380D03*
%TD*%
D13*
%TO.P,H4,1,1*%
%TO.N,GND*%
X119171800Y-110885200D03*
D12*
X117474744Y-109188144D03*
X119171800Y-113285200D03*
X120868856Y-112582256D03*
X117474744Y-112582256D03*
X119171800Y-108485200D03*
X116771800Y-110885200D03*
X121571800Y-110885200D03*
X120868856Y-109188144D03*
%TD*%
D14*
%TO.P,J1,1,Pin_1*%
%TO.N,Net-(J1-Pad1)*%
X116535200Y-91816000D03*
D15*
%TO.P,J1,2,Pin_2*%
%TO.N,+3V3*%
X116535200Y-94356000D03*
%TD*%
D12*
%TO.P,H3,1,1*%
%TO.N,GND*%
X159951800Y-83489324D03*
X160654744Y-85186380D03*
X164751800Y-83489324D03*
X162351800Y-85889324D03*
X164048856Y-81792268D03*
D13*
X162351800Y-83489324D03*
D12*
X160654744Y-81792268D03*
X162351800Y-81089324D03*
X164048856Y-85186380D03*
%TD*%
D14*
%TO.P,J2,1,Pin_1*%
%TO.N,+3V3*%
X116535200Y-100452000D03*
D15*
%TO.P,J2,2,Pin_2*%
%TO.N,Net-(J2-Pad2)*%
X116535200Y-102992000D03*
%TD*%
D14*
%TO.P,J4,1,Pin_1*%
%TO.N,VBUS*%
X164891800Y-118505200D03*
D15*
%TO.P,J4,2,Pin_2*%
%TO.N,GND*%
X164891800Y-121045200D03*
%TO.P,J4,3,Pin_3*%
%TO.N,+3V3*%
X162351800Y-118505200D03*
%TO.P,J4,4,Pin_4*%
%TO.N,/PD5*%
X162351800Y-121045200D03*
%TO.P,J4,5,Pin_5*%
%TO.N,/PD6*%
X159811800Y-118505200D03*
%TO.P,J4,6,Pin_6*%
%TO.N,/PD7*%
X159811800Y-121045200D03*
%TO.P,J4,7,Pin_7*%
%TO.N,/CLKOUT*%
X157271800Y-118505200D03*
%TO.P,J4,8,Pin_8*%
%TO.N,/RDY0*%
X157271800Y-121045200D03*
%TO.P,J4,9,Pin_9*%
%TO.N,/RDY1*%
X154731800Y-118505200D03*
%TO.P,J4,10,Pin_10*%
%TO.N,/PD4*%
X154731800Y-121045200D03*
%TO.P,J4,11,Pin_11*%
%TO.N,/PD3*%
X152191800Y-118505200D03*
%TO.P,J4,12,Pin_12*%
%TO.N,/PD2*%
X152191800Y-121045200D03*
%TO.P,J4,13,Pin_13*%
%TO.N,/PD1*%
X149651800Y-118505200D03*
%TO.P,J4,14,Pin_14*%
%TO.N,/PD0*%
X149651800Y-121045200D03*
%TO.P,J4,15,Pin_15*%
%TO.N,/RST*%
X147111800Y-118505200D03*
%TO.P,J4,16,Pin_16*%
%TO.N,/PA7*%
X147111800Y-121045200D03*
%TO.P,J4,17,Pin_17*%
%TO.N,/PA6*%
X144571800Y-118505200D03*
%TO.P,J4,18,Pin_18*%
%TO.N,/PA5*%
X144571800Y-121045200D03*
%TO.P,J4,19,Pin_19*%
%TO.N,/PA4*%
X142031800Y-118505200D03*
%TO.P,J4,20,Pin_20*%
%TO.N,/PA3*%
X142031800Y-121045200D03*
%TO.P,J4,21,Pin_21*%
%TO.N,/PA2*%
X139491800Y-118505200D03*
%TO.P,J4,22,Pin_22*%
%TO.N,/PA1*%
X139491800Y-121045200D03*
%TO.P,J4,23,Pin_23*%
%TO.N,/PA0*%
X136951800Y-118505200D03*
%TO.P,J4,24,Pin_24*%
%TO.N,/CTL2*%
X136951800Y-121045200D03*
%TO.P,J4,25,Pin_25*%
%TO.N,/CTL1*%
X134411800Y-118505200D03*
%TO.P,J4,26,Pin_26*%
%TO.N,/CTL0*%
X134411800Y-121045200D03*
%TO.P,J4,27,Pin_27*%
%TO.N,/PB7*%
X131871800Y-118505200D03*
%TO.P,J4,28,Pin_28*%
%TO.N,/PB6*%
X131871800Y-121045200D03*
%TO.P,J4,29,Pin_29*%
%TO.N,/PB5*%
X129331800Y-118505200D03*
%TO.P,J4,30,Pin_30*%
%TO.N,/PB4*%
X129331800Y-121045200D03*
%TO.P,J4,31,Pin_31*%
%TO.N,/IFCLK*%
X126791800Y-118505200D03*
%TO.P,J4,32,Pin_32*%
%TO.N,/PB0*%
X126791800Y-121045200D03*
%TO.P,J4,33,Pin_33*%
%TO.N,/PB1*%
X124251800Y-118505200D03*
%TO.P,J4,34,Pin_34*%
%TO.N,/PB2*%
X124251800Y-121045200D03*
%TO.P,J4,35,Pin_35*%
%TO.N,/PB3*%
X121711800Y-118505200D03*
%TO.P,J4,36,Pin_36*%
%TO.N,unconnected-(J4-Pad36)*%
X121711800Y-121045200D03*
%TO.P,J4,37,Pin_37*%
%TO.N,+3V3*%
X119171800Y-118505200D03*
%TO.P,J4,38,Pin_38*%
%TO.N,GND*%
X119171800Y-121045200D03*
%TO.P,J4,39,Pin_39*%
%TO.N,+3V3*%
X116631800Y-118505200D03*
%TO.P,J4,40,Pin_40*%
%TO.N,GND*%
X116631800Y-121045200D03*
%TD*%
D12*
%TO.P,H1,1,1*%
%TO.N,GND*%
X162351800Y-108485200D03*
D13*
X162351800Y-110885200D03*
D12*
X162351800Y-113285200D03*
X160654744Y-109188144D03*
X160654744Y-112582256D03*
X159951800Y-110885200D03*
X164048856Y-112582256D03*
X164751800Y-110885200D03*
X164048856Y-109188144D03*
%TD*%
D16*
%TO.P,J5,S1,SHIELD*%
%TO.N,Earth_Protective*%
X144451800Y-85579200D03*
X135811800Y-85579200D03*
D17*
X135811800Y-81379200D03*
X144451800Y-81379200D03*
%TD*%
D18*
%TO.N,GND*%
X143570200Y-89514200D03*
X149820200Y-91114200D03*
%TO.N,VBUS*%
X143620200Y-88389200D03*
X144574833Y-88408211D03*
X158520200Y-91714200D03*
X158520200Y-90689200D03*
X134920200Y-88714200D03*
X135820200Y-88714200D03*
%TO.N,GND*%
X141095200Y-90914200D03*
X151180800Y-90424000D03*
X139170200Y-90914200D03*
X144470200Y-87414200D03*
X137370200Y-81764200D03*
X155321000Y-94640400D03*
X133170200Y-85564200D03*
X126445200Y-103894200D03*
X141095200Y-89914200D03*
X138531600Y-107924600D03*
X133096000Y-82651600D03*
X139070200Y-81214200D03*
X153949400Y-94640400D03*
X135898903Y-107492800D03*
X143611600Y-103352600D03*
X139170200Y-87914200D03*
X156921200Y-95605600D03*
X140570200Y-81764200D03*
X147769137Y-94057925D03*
X139170200Y-89914200D03*
X160985200Y-96520000D03*
X135820200Y-87439200D03*
X134920200Y-87439200D03*
X141095200Y-87914200D03*
X145395200Y-87414200D03*
X145520200Y-108189200D03*
X136728800Y-94056200D03*
X142470200Y-82364200D03*
X139170200Y-88914200D03*
X145059400Y-94049498D03*
X148295200Y-83539200D03*
X142570200Y-92514200D03*
X141095200Y-88914200D03*
X134162800Y-91541600D03*
X149170200Y-81914200D03*
X152323800Y-95605600D03*
X137245200Y-92489200D03*
X124739400Y-88620600D03*
%TO.N,+3V3*%
X156135200Y-81356200D03*
X131038600Y-82626200D03*
X146151600Y-94081600D03*
X134899400Y-107492800D03*
X156135200Y-82356200D03*
X161112200Y-94818200D03*
X153135200Y-81356200D03*
X122035200Y-103494200D03*
X141071600Y-92125800D03*
X133426200Y-93065600D03*
X154635200Y-82356200D03*
X138709400Y-92354400D03*
X138049000Y-103449498D03*
X154635200Y-81356200D03*
X153135200Y-82356200D03*
X147345200Y-108214200D03*
%TO.N,/RST*%
X162941000Y-101041200D03*
X149580600Y-102514400D03*
%TO.N,/D-*%
X142970200Y-83303033D03*
X138320200Y-83314200D03*
%TO.N,/D+*%
X141970200Y-83303033D03*
X137320200Y-83314200D03*
%TO.N,/PA0*%
X139166600Y-102870000D03*
X130429000Y-99923600D03*
%TO.N,/PA1*%
X130429000Y-97078800D03*
X140309600Y-102870000D03*
%TD*%
D19*
%TO.N,GND*%
X139070200Y-81214200D02*
X137920200Y-81214200D01*
X137920200Y-81214200D02*
X137370200Y-81764200D01*
X140570200Y-81764200D02*
X141870200Y-81764200D01*
X141870200Y-81764200D02*
X142470200Y-82364200D01*
X139070200Y-81214200D02*
X140020200Y-81214200D01*
X140020200Y-81214200D02*
X140570200Y-81764200D01*
%TO.N,Earth_Protective*%
X135811800Y-81379200D02*
X135811800Y-80597600D01*
X135811800Y-80597600D02*
X136483400Y-79926000D01*
X136483400Y-79926000D02*
X143732000Y-79926000D01*
X143732000Y-79926000D02*
X144451800Y-80645800D01*
X144451800Y-80645800D02*
X144451800Y-81379200D01*
D20*
%TO.N,/RST*%
X161467800Y-102514400D02*
X162941000Y-101041200D01*
X149580600Y-102514400D02*
X161467800Y-102514400D01*
D19*
%TO.N,Earth_Protective*%
X144451800Y-85579200D02*
X144451800Y-81379200D01*
X135811800Y-85579200D02*
X135811800Y-81379200D01*
D21*
%TO.N,/D-*%
X142645200Y-83628033D02*
X142645200Y-84086688D01*
X140547712Y-84689200D02*
X139941343Y-84082831D01*
X138335250Y-82289200D02*
X137995200Y-82629250D01*
X142645200Y-84086688D02*
X142042688Y-84689200D01*
X139597712Y-82289200D02*
X138335250Y-82289200D01*
X137995200Y-82989200D02*
X138320200Y-83314200D01*
X137995200Y-82629250D02*
X137995200Y-82989200D01*
X142042688Y-84689200D02*
X140547712Y-84689200D01*
X142970200Y-83303033D02*
X142645200Y-83628033D01*
X139941343Y-84082831D02*
X139941343Y-82632831D01*
X139941343Y-82632831D02*
X139597712Y-82289200D01*
%TO.N,/D+*%
X141897712Y-84339200D02*
X140692688Y-84339200D01*
X142295200Y-83941712D02*
X141897712Y-84339200D01*
X137645200Y-82989200D02*
X137320200Y-83314200D01*
X137645200Y-82484274D02*
X137645200Y-82989200D01*
X139742688Y-81939200D02*
X138190274Y-81939200D01*
X140692688Y-84339200D02*
X140291343Y-83937855D01*
X140291343Y-83937855D02*
X140291343Y-82487855D01*
X140291343Y-82487855D02*
X139742688Y-81939200D01*
X142295200Y-83628033D02*
X142295200Y-83941712D01*
X141970200Y-83303033D02*
X142295200Y-83628033D01*
X138190274Y-81939200D02*
X137645200Y-82484274D01*
D20*
%TO.N,/PA0*%
X136220200Y-99923600D02*
X139166600Y-102870000D01*
X130429000Y-99923600D02*
X136220200Y-99923600D01*
%TO.N,/PA1*%
X130429000Y-97078800D02*
X134518400Y-97078800D01*
X134518400Y-97078800D02*
X140309600Y-102870000D01*
%TD*%
M02*
